<svg version="1.1" xmlns="http://www.w3.org/2000/svg" viewBox="0 0 810.3609313964844 331.4847412109375" width="810.3609313964844" height="331.4847412109375">
  <!-- svg-source:excalidraw -->
  
  <defs>
    <style>
      @font-face {
        font-family: "Virgil";
        src: url("https://excalidraw.com/Virgil.woff2");
      }
      @font-face {
        font-family: "Cascadia";
        src: url("https://excalidraw.com/Cascadia.woff2");
      }
    </style>
  </defs>
  <g stroke-linecap="round" transform="translate(10 263.4688720703125) rotate(0 69.67401123046875 29.0079345703125)"><path d="M0.01 -1.46 C49.27 -0.76, 102.58 -1.31, 139.12 -1.13 M-0.12 0.2 C39.77 0.42, 80.9 1.48, 138.64 0.98 M138.12 1.07 C137.6 18.7, 139.97 33.28, 139.92 57.72 M138.91 -0.58 C139.8 21.12, 140.03 44.22, 139.02 58.65 M137.36 59.67 C88.21 59.89, 33.91 59.87, -1.22 57.95 M139.78 57.79 C107.58 58.06, 75.43 59.16, 0.85 58.3 M-0.38 59.66 C0.58 39.71, 0.89 19.79, 1.26 1.11 M0.5 58.15 C-0.9 39, -0.15 18.08, 0.34 -0.84" stroke="#000000" stroke-width="1" fill="none"></path></g><g transform="translate(17.257720947265625 270.9145812988281) rotate(0 36 10)"><text x="36" y="14" font-family="Virgil, Segoe UI Emoji" font-size="16px" fill="#000000" text-anchor="middle" style="white-space: pre;" direction="ltr">ActiveMQ</text></g><g stroke-linecap="round" transform="translate(299.8350524902344 173.97772216796875) rotate(0 101.31512451171875 71.25776672363281)"><path d="M0 0 C0 0, 0 0, 0 0 M0 0 C0 0, 0 0, 0 0 M-0.56 6.75 C0.3 5.25, 1.6 2.93, 4.25 0.09 M-0.14 6.75 C1.29 4.31, 3.37 1.8, 4.63 0.7 M-0.62 12.85 C2.99 9.52, 6.5 7.18, 9.53 -1.28 M0.24 11.27 C2.06 9.85, 4.54 5.54, 10.72 -0.61 M-0.19 16.67 C4.03 12.16, 8.44 7.76, 15.09 1.59 M-1.06 18.89 C5.78 11.63, 11.43 6, 16.02 0.24 M1.96 24.2 C6.07 15.13, 15.54 7.55, 22.63 1.67 M0.93 24.91 C6.76 15.55, 14.5 7.11, 21.39 0.66 M1.77 30.82 C5.55 23.71, 15.14 13.18, 27.73 -0.76 M-0.55 30.04 C6.06 22.49, 13.6 14.97, 26.24 1.15 M-1.15 37.58 C9.64 24.13, 21.63 11.56, 33.27 -0.78 M-0.32 36.53 C12.12 23.26, 22.76 8.38, 32.15 0.39 M-1.8 43.87 C15.51 27.98, 29.58 8.8, 35.76 -1.07 M-0.08 42.23 C10.1 31.89, 18.58 22.09, 36.72 1.1 M0.12 47.73 C17.13 32.49, 31.1 13.15, 42.47 0.25 M0.63 48.74 C15.34 28.81, 32.48 10.53, 41.9 -0.07 M0.65 54.75 C15.69 35.9, 31.14 17.97, 46.06 1.76 M0.13 54.09 C14.6 37.52, 29.41 19.96, 47.79 -0.6 M-1.76 62.24 C17.37 37.56, 38.4 16.46, 53.7 -1.22 M0.37 60.7 C15.58 42.63, 32.8 22.4, 52.96 -0.15 M-1.82 68 C14.32 52.58, 25.72 36.05, 57.7 -0.36 M0.6 68.07 C13.58 52.25, 26.21 36.88, 58.22 -0.59 M-1.46 74.78 C18.91 47.89, 40.54 26.41, 64.63 1.63 M0.51 72.92 C16.55 53.91, 33.85 33.75, 63.02 -0.15 M0.02 78.66 C21.98 54.1, 44.93 28.6, 69.94 -0.7 M-0.77 79.46 C15.72 62.79, 30.21 44.97, 69.16 0.61 M-1.49 85.84 C28.47 55.46, 55.52 23.22, 75.1 0.43 M1.09 86 C29.24 50.96, 59.86 15.79, 75.2 0.68 M-0.38 92.88 C21.54 66.93, 39.53 46, 78.22 -1.72 M-0.66 90.92 C20.37 66.97, 42.54 42.07, 80.19 0.57 M-0.8 99.46 C24.18 65.83, 53.27 38.8, 83.15 -0.37 M-0.11 97.37 C21.43 73.83, 40.55 51.39, 86.03 0.21 M1.25 104.85 C27.6 70.5, 56.55 40.64, 90.17 0.94 M0.34 103.43 C21.18 79.95, 41.62 55.83, 89.26 0.94 M-0.2 108.23 C33.14 71.73, 67.93 33.22, 97.02 0.48 M-0.91 110.32 C30.26 72.89, 62.31 34.95, 95.42 -0.61 M-0.6 113.58 C20.83 88.77, 43.04 66.09, 101.61 -1.56 M1.02 115.07 C30.22 80.98, 60.92 45.5, 100.77 -0.52 M1.73 121.82 C19.79 97.38, 44.55 74.49, 107.11 1.06 M-0.73 122.48 C26.32 92.99, 52.73 61.87, 106.71 0.28 M-1.92 127.65 C39.06 85.41, 77.09 40.83, 112.56 0.76 M-1.07 127.78 C40.41 82.27, 81.36 36.39, 111.5 0.03 M-0.76 135.95 C40.46 88.37, 76.54 44.39, 117.37 1 M0.1 134.82 C38.97 87.71, 80.68 40.37, 115.99 0.77 M1.44 142.18 C34.24 100.59, 71.52 58.78, 123.2 0.68 M-1 140.31 C25.04 112.97, 48.71 82.72, 122.64 0.54 M0.09 143.67 C49.65 90.95, 95.74 38.53, 127.89 -1.51 M0.95 144.9 C29 112.43, 56.8 82.87, 126.7 -0.41 M9.09 143.07 C47.48 96.87, 88.8 49.78, 133.92 1.81 M6.82 144.48 C50 93.11, 92.13 44.23, 131.79 -0.96 M10.78 145.25 C41.88 112.17, 69.1 77.92, 139.01 -1.19 M12.18 144.82 C43.36 112.52, 72.12 77.84, 137.75 0.83 M16.31 145.1 C58.61 93.91, 102.7 45.85, 141.28 -1.43 M18.86 143.27 C68.94 87.26, 118.15 31.13, 142.96 -0.34 M20.95 143.45 C50.94 114.3, 76.19 81.66, 149.87 -0.75 M23.47 144.4 C48.43 113.41, 74.16 84.66, 148.1 0.92 M29.24 143.13 C62.11 110.78, 91.88 75.53, 154.04 0.18 M27.69 144 C65.44 100.84, 102.71 59.48, 154.54 0.62 M33.61 145.22 C76.82 95.37, 117.17 47.61, 157.83 1.97 M34.11 144.99 C76.23 94.37, 119.19 46.22, 158.1 -0.64 M39.48 145.04 C68.32 110.27, 94.05 79.46, 165.15 -1.32 M38.54 143.33 C72.04 104.13, 105.82 67.41, 165.37 0.24 M43.94 144.37 C93.41 89.07, 139.6 32.67, 170.43 1.91 M43.8 144.03 C74.39 109.04, 104.08 73.89, 169.53 0.79 M48.82 143.52 C87.18 102.69, 124.56 58.84, 175.74 0.93 M50.06 142.99 C83.81 106.3, 116.59 68.81, 174.66 -1.08 M55.33 145.5 C84.18 109.67, 116.23 72.06, 181.4 -1.18 M54.63 145.04 C96.87 94.08, 140.43 44.42, 179.56 0.89 M61.22 144.08 C100.09 101.38, 140.23 54.82, 187.13 0.59 M60.29 143.81 C101.32 96.19, 142.37 48.48, 186.04 -0.82 M67.36 144.01 C112.48 90.28, 161.44 35.89, 190.65 1.28 M65.1 143.67 C100.16 104.88, 134.33 64.25, 190.78 0.48 M70.86 145.04 C116.39 91.06, 162 39.26, 196.82 -1.87 M70.7 143.71 C102.34 109.05, 132.24 74.51, 195.56 -0.4 M75.76 146.14 C123.71 90.69, 169.97 34.86, 200.27 -1.33 M76.13 143.64 C112.27 101.7, 148.73 59.84, 201.17 -0.56 M82.09 145.54 C130.98 91.83, 177.61 37.24, 204.54 3.12 M82.15 143.72 C113.98 105.75, 148.96 68.83, 205.67 1.14 M88.5 144.93 C127.92 94.5, 172.36 46.52, 203.34 9.49 M87.04 144.75 C114.79 112.81, 142.55 80.91, 204.91 9.07 M93.44 145.53 C133.55 100.51, 171.34 52.29, 205.62 13.2 M92.91 143.94 C137.65 93.29, 183.3 41.62, 204.68 14.14 M97.71 144.23 C117.94 118.55, 142.13 93.32, 206.28 20.22 M97.54 144.92 C137.52 97.9, 177.34 52.41, 204.74 20.91 M101.64 145.75 C130.76 112.29, 162.09 78.9, 206.64 27.47 M102.65 143.59 C134.7 106.64, 167.97 69.16, 204.36 25.66 M107.69 142.71 C139.69 108.91, 173.5 70.7, 205.02 30.91 M107.77 144.15 C143.48 101.79, 180.5 60.09, 204.15 32.38 M112.94 144.54 C134.45 118.48, 155.85 97.74, 205.22 38.42 M113.81 143.72 C135.86 121.08, 155.67 96.71, 205.72 39.43 M118.97 145.84 C143.21 116.24, 165.89 87.57, 206.42 46.18 M118.26 144.55 C146.9 111.68, 175.92 79.56, 204.76 43.74 M121.77 142.78 C146.98 116.48, 172.1 88.52, 205.1 51.08 M124.18 144.21 C143.79 121.46, 164.18 98.38, 204.14 51.01 M128.22 145.91 C154.84 111.64, 180.2 84.77, 203.51 55.5 M129.95 144.29 C153.59 116.6, 177.31 88.4, 205.57 56.35 M134.74 144.4 C148.6 128.95, 164.62 108.21, 204.26 63.55 M135.01 144.31 C160.57 114.18, 188.61 81.54, 205.43 62.3 M140.35 146.03 C165.12 116.73, 184.89 88.78, 202.86 69.87 M140.2 143.67 C156.46 124.84, 172.02 107.39, 204.37 69.43 M145.34 145.43 C164.46 120.7, 187.79 92.73, 205.53 76 M145.58 143.6 C168.06 116.32, 190.44 90.46, 204.47 74.56 M152.4 144.11 C167.38 124.3, 184.66 105.38, 203.2 82.84 M150.75 143.06 C161.94 130.45, 174.17 115.41, 204.29 81 M157.23 142.68 C174.68 123.14, 191.19 100.51, 203.91 87.42 M154.62 144.75 C170.29 128.54, 183.09 111.16, 204.55 87.15 M161.65 144.88 C175.21 128.69, 185.05 116.4, 203.47 95.07 M161.77 144.94 C176.04 126.13, 193.6 106.55, 205.92 92.49 M164.26 145.79 C175.56 130.64, 187.74 116.8, 205.94 100.33 M166.23 143.53 C173.66 135.72, 181.85 126.04, 204.71 100.25 M173.54 143.88 C183.51 129.78, 196.38 118.73, 205.47 107.25 M171.82 143.87 C178.76 135.91, 186.6 127.46, 205.91 105.61 M178.47 145.2 C184.59 136.16, 188.79 132.23, 204.3 113.84 M175.94 144.8 C183.96 136.9, 191.93 128.39, 204.35 111.89 M181.69 143.46 C187.5 134.11, 194.96 127.44, 205.16 116.89 M181.88 144.51 C188.74 135.93, 196.1 128.46, 204.31 117.21 M186.08 144.17 C191.16 137.23, 199.39 132.93, 205.92 124.12 M186.66 144.53 C192.78 136.87, 200.84 129.41, 205.33 124.46 M192.03 144.69 C198.4 141.33, 199.98 134.5, 204.13 130.98 M193.29 143.64 C196.71 139.82, 201.37 134.05, 203.99 129.99 M198.8 143.43 C199.25 141.55, 203.37 138.8, 205.92 136.73 M198.38 143.97 C199.12 142.01, 201.34 140.99, 204.82 135.78" stroke="#fd7e14" stroke-width="0.5" fill="none"></path><path d="M1.06 -1.48 C49.16 -0.62, 97.93 -0.87, 204.38 -1.32 M0.79 0.07 C79.75 -0.37, 158.31 -0.62, 203.36 0.38 M201.39 0 C202.48 36.93, 202.36 70.2, 202.42 142.12 M201.79 -0.27 C203 34.51, 203.55 69.77, 202.36 142.5 M201.98 143.53 C138.97 141.09, 78.22 143.62, -1.13 140.73 M202.67 142.29 C133.26 141.52, 65.76 141.46, -0.15 143.31 M0.51 141.49 C-0.12 90.75, -2.08 40.95, -0.96 1.66 M0.18 142.93 C0.24 101.67, 0.84 59.71, 0.6 0.53" stroke="#000000" stroke-width="1" fill="none"></path></g><g stroke-linecap="round"><g transform="translate(106.26837001127717 287.2628110207015) rotate(89.99999999999994 8.976451229663382 15.386824856662315)" fill-rule="evenodd"><path d="M0.02 -7.93 C0.02 -7.93, 0.02 -7.93, 0.02 -7.93 M0.02 -7.93 C0.02 -7.93, 0.02 -7.93, 0.02 -7.93 M-0.37 -1.44 C0.82 -4.81, 5.32 -7.74, 8.04 -12.92 M0.31 -0.94 C1.71 -3.69, 3.74 -5.59, 9.19 -12.03 M-0.83 2.38 C5.92 -2.65, 7.2 -7.46, 15.9 -12.01 M1.11 3.56 C3.08 1.7, 5.45 -2.56, 13.04 -12.07 M1.13 11.43 C6.28 2.2, 13.96 -4.43, 15.1 -8.68 M-0.19 9.64 C4.92 4.48, 10.67 -1.45, 16.38 -10.11 M2.02 17.62 C6.86 11.04, 11.63 3.67, 20.49 -7.06 M0.66 15.96 C8.76 8.37, 15.91 -0.01, 21 -6.64 M1.94 21.4 C4.85 16.62, 8.75 13.04, 21.1 -1.98 M-0.23 21.89 C7.83 13.59, 14.06 4.45, 19.64 -0.53 M0.95 28.66 C5.67 21.86, 15.41 10.46, 20.05 3.99 M-1.02 28.43 C8.16 20.3, 17.6 10.2, 21.55 4.11 M1.01 35.04 C7.72 24.08, 17.1 18, 19.29 11.98 M0.99 34.38 C7.77 25.73, 14.42 19.05, 20.49 11.22 M0.5 41.66 C5.64 35.05, 11.69 29.49, 19.4 15.92 M1.05 39.83 C7.41 32.86, 12.05 25.77, 19.66 17.68 M2.75 43.88 C10.49 34.08, 17.09 27.35, 21.46 22.91 M2.7 42.77 C9.96 34.78, 15.97 28.66, 20.77 23.48 M8.01 46.56 C11.87 41.65, 14.77 38.46, 20.96 29.61 M6.87 44.11 C10.2 39.83, 14.7 35.99, 21.15 29.95 M12.41 45.55 C16.18 42.38, 17.67 39.46, 20.46 35.15 M12.24 45.23 C14.37 42.01, 17.14 39.82, 21.18 34.73" stroke="#40c057" stroke-width="0.5" fill="none"></path><path d="M0.85 -7.98 C0.77 -0.68, 0.66 27.34, 0.58 34.98 C0.51 42.62, 0.32 36.94, 0.4 37.86 C0.49 38.77, 0.63 39.66, 1.11 40.48 C1.58 41.3, 1.69 42.16, 3.26 42.77 C4.83 43.39, 8.66 44.4, 10.53 44.17 C12.41 43.93, 13.05 41.89, 14.5 41.37 C15.95 40.86, 18.38 41.67, 19.23 41.09 C20.08 40.51, 19.8 39.09, 19.6 37.89 C19.39 36.69, 18.23 40.85, 18.01 33.9 C17.79 26.95, 18.29 3.1, 18.28 -3.82 C18.28 -10.74, 18.14 -6.66, 17.96 -7.61 C17.78 -8.56, 17.9 -8.74, 17.21 -9.52 C16.52 -10.31, 15.34 -11.93, 13.81 -12.34 C12.28 -12.75, 9.71 -12.15, 8.03 -11.96 C6.34 -11.78, 5.04 -11.45, 3.68 -11.23 C2.32 -11, 0.45 -11.28, -0.14 -10.61 C-0.73 -9.94, 0.17 -7.5, 0.15 -7.2 C0.13 -6.89, -0.29 -8.61, -0.26 -8.78 M-0.15 -9.08 C-0.44 -2.03, -0.08 25.32, -0.08 33.26 C-0.08 41.21, -0.4 37.23, -0.14 38.57 C0.11 39.9, 0.6 40.51, 1.44 41.27 C2.27 42.03, 3.7 42.76, 4.89 43.13 C6.07 43.51, 6.93 43.55, 8.55 43.54 C10.18 43.53, 12.95 43.5, 14.64 43.09 C16.32 42.69, 18.04 41.66, 18.66 41.1 C19.28 40.55, 18.41 41.12, 18.36 39.76 C18.31 38.41, 18.35 40.03, 18.35 32.98 C18.34 25.92, 18.1 4.24, 18.34 -2.56 C18.59 -9.36, 20 -6.56, 19.83 -7.81 C19.66 -9.05, 17.92 -9.16, 17.31 -10.04 C16.7 -10.92, 17.77 -12.69, 16.18 -13.07 C14.6 -13.45, 9.76 -12.28, 7.78 -12.33 C5.8 -12.38, 5.31 -13.7, 4.31 -13.37 C3.3 -13.04, 2.67 -11.5, 1.78 -10.35 C0.89 -9.19, -0.45 -6.69, -1.04 -6.46 C-1.63 -6.24, -2.11 -8.98, -1.77 -9" stroke="#087f5b" stroke-width="1" fill="none"></path></g></g><g stroke-linecap="round"><g transform="translate(97.26157503719617 300.4214160505535) rotate(89.99999999999994 8.669138513732833 2.250572904769797)"><path d="M-0.1 0.17 C0.27 0.39, 1 1.37, 1.25 1.87 C1.5 2.36, 0.83 2.97, 1.41 3.14 C1.99 3.3, 3.36 2.61, 4.73 2.84 C6.09 3.07, 7.8 4.57, 9.59 4.5 C11.39 4.44, 14.34 2.83, 15.49 2.44 C16.65 2.04, 15.94 2.49, 16.52 2.13 C17.1 1.76, 18.78 0.83, 18.95 0.24 M-1.61 -0.6 C-1.25 -0.81, -0.18 -0.89, 0.71 -0.03 C1.59 0.82, 3.04 3.96, 3.7 4.53 C4.36 5.1, 3.93 3.28, 4.66 3.39 C5.39 3.49, 6.59 4.97, 8.09 5.16 C9.59 5.36, 12.25 5.21, 13.66 4.55 C15.07 3.9, 15.8 1.94, 16.57 1.24 C17.34 0.54, 17.85 0.47, 18.27 0.34" stroke="#087f5b" stroke-width="1" fill="none"></path></g></g><g stroke-linecap="round"><g transform="translate(113.04630458222971 301.15653836514775) rotate(89.99999999999994 9.254102466035988 1.4106932398926801)"><path d="M0.54 0.47 C0.54 0.54, 0.54 -0.21, 0.9 0.01 C1.26 0.23, 2.15 1.28, 2.7 1.79 C3.26 2.3, 3 2.71, 4.24 3.08 C5.48 3.44, 8.56 4.24, 10.13 3.99 C11.71 3.74, 12.3 1.98, 13.69 1.6 C15.08 1.21, 17.58 2.15, 18.47 1.68 C19.37 1.2, 19.23 -0.73, 19.05 -1.24 M-0.64 -0.17 C-0.83 0.01, -0.27 0.45, 0.17 0.95 C0.61 1.44, 1.39 2.26, 2.02 2.8 C2.65 3.33, 2.77 3.82, 3.93 4.15 C5.08 4.48, 7.15 4.88, 8.93 4.8 C10.71 4.71, 13.44 4.31, 14.6 3.62 C15.76 2.94, 15.27 1.62, 15.91 0.68 C16.56 -0.25, 17.95 -1.95, 18.46 -1.99" stroke="#087f5b" stroke-width="1" fill="none"></path></g></g><g stroke-linecap="round" transform="translate(129.39627623327692 297.7762968070874) rotate(89.99999999999994 9.238936776080436 4.107432491684904)"><path d="M6.41 0.17 C8.23 -0.2, 10.68 -1.09, 12.39 -0.65 C14.11 -0.22, 15.85 1.96, 16.71 2.76 C17.58 3.56, 17.94 3.55, 17.6 4.14 C17.26 4.73, 16.04 5.57, 14.65 6.31 C13.26 7.05, 11.01 8.28, 9.26 8.58 C7.51 8.88, 5.66 8.72, 4.15 8.12 C2.64 7.51, 0.66 5.87, 0.2 4.95 C-0.25 4.04, 0.32 3.39, 1.42 2.61 C2.52 1.83, 5.85 0.82, 6.8 0.29 C7.76 -0.24, 7.1 -0.53, 7.17 -0.57 M3.95 -0.63 C5.7 -0.86, 11.24 -0.71, 13.15 -0.06 C15.06 0.59, 14.74 2.26, 15.42 3.25 C16.1 4.25, 17.33 5.22, 17.25 5.91 C17.16 6.6, 15.94 7.06, 14.92 7.39 C13.9 7.71, 13.02 8.08, 11.12 7.87 C9.22 7.66, 5.41 6.43, 3.52 6.12 C1.64 5.81, 0.48 6.75, -0.2 6 C-0.88 5.26, -1.63 2.45, -0.54 1.62 C0.54 0.8, 5.28 1.44, 6.3 1.07 C7.31 0.7, 5.41 -0.41, 5.54 -0.59" stroke="none" stroke-width="0" fill="#fff"></path><path d="M4.09 0.42 C5.75 0.18, 9.72 0.71, 11.67 0.76 C13.61 0.8, 14.51 -0.02, 15.77 0.67 C17.02 1.35, 19.03 3.92, 19.2 4.85 C19.36 5.78, 18.31 5.81, 16.74 6.24 C15.17 6.67, 11.91 7.13, 9.76 7.43 C7.61 7.72, 5.51 8.3, 3.86 8.01 C2.2 7.72, 0.39 6.54, -0.17 5.71 C-0.73 4.88, -0.53 4.1, 0.49 3.03 C1.51 1.96, 4.71 -0.28, 5.96 -0.72 C7.21 -1.16, 7.92 0.11, 8 0.38 M6.64 0 C8.35 -0.33, 9.29 0.22, 10.95 0.62 C12.61 1.03, 15.13 1.88, 16.6 2.42 C18.07 2.97, 20.14 3.04, 19.78 3.9 C19.41 4.75, 16.27 6.74, 14.42 7.55 C12.57 8.37, 10.33 8.6, 8.69 8.8 C7.05 8.99, 5.9 9.25, 4.59 8.75 C3.29 8.24, 1.32 6.97, 0.87 5.77 C0.43 4.57, 1.03 2.37, 1.94 1.55 C2.84 0.73, 5.83 1.21, 6.33 0.86 C6.82 0.5, 4.9 -0.39, 4.9 -0.6" stroke="#087f5b" stroke-width="1" fill="none"></path></g><g stroke-linecap="round" transform="translate(11.446807861328125 182.53030395507812) rotate(0 69.67401123046875 29.0079345703125)"><path d="M-1.43 1.7 C43.91 -1.5, 88.11 0.38, 140.24 -0.61 M0.71 0.82 C29.51 -0.73, 58.69 -1.24, 140.33 0.67 M139.71 1.64 C139.77 15.95, 139.59 32.57, 141.01 58.74 M139.02 -0.17 C138.9 16.93, 138.52 34.04, 138.99 58.54 M140.21 59.68 C85.9 58.92, 36.68 60.95, -0.5 56.56 M138.43 57.26 C103.09 57.96, 65.17 56.44, -0.56 57.91 M-1.97 58.41 C1.75 45.67, 0.25 30.58, 0.2 -0.55 M0.09 57.95 C0.19 44.56, 0.36 33.3, -0.94 -0.31" stroke="#000000" stroke-width="1" fill="none"></path></g><g transform="translate(31.20452880859375 189.97601318359375) rotate(0 23.5 10)"><text x="23.5" y="14" font-family="Virgil, Segoe UI Emoji" font-size="16px" fill="#000000" text-anchor="middle" style="white-space: pre;" direction="ltr">Kafka</text></g><g stroke-linecap="round"><g transform="translate(107.69708362293443 198.44234881825832) rotate(89.99999999999994 9.386396947386118 23.55903997757696)" fill-rule="evenodd"><path d="M0 0 C0 0, 0 0, 0 0 M0 0 C0 0, 0 0, 0 0 M-1.64 6.67 C3.14 4.85, 4.26 1.4, 9.06 -4.55 M-0.2 6.35 C1.7 3.36, 3.79 1.94, 8.27 -4.39 M1.49 12.23 C3.34 7.92, 8.79 5.3, 14.13 -3.14 M0.91 11.71 C4.01 8.63, 7.24 4.54, 13.5 -4.53 M-2.1 17.5 C2.71 13.42, 10.52 8.59, 17.76 0.73 M-0.01 18.62 C4.14 13.55, 8.32 7.53, 17.34 -1.61 M-0.7 22.61 C5.07 15.03, 14.23 8.9, 18.82 2.02 M0.16 24.32 C8.07 15.72, 15.86 7.16, 19.79 0.74 M1.29 29.97 C4.74 26.69, 9 21.96, 21.96 6.4 M0.64 31.17 C6.59 22.54, 13.69 15.33, 20.09 6.96 M1.49 35 C4.15 30.21, 12.53 23.34, 20.2 11.09 M-0.67 36.42 C5.04 29.77, 11.62 24.12, 20.82 13.61 M-0.33 44.25 C7.57 38.29, 12.88 30.42, 21.94 18.14 M0.76 43.51 C5.02 38.01, 7.64 32.44, 20.7 19.82 M-0.71 48.03 C5.57 41.08, 11.33 36.5, 20.98 25.22 M1.34 47.94 C9.61 39.24, 15.41 30.39, 20.43 25.32 M3.51 50.03 C7.4 43.5, 13.4 38.13, 20.66 31.76 M3.34 50.02 C10.15 43.81, 14.53 38.23, 20.67 31.7 M8.79 52.48 C12.26 48.07, 16.85 45.23, 22.05 37.09 M8.16 53.25 C10.54 48.04, 15.07 44.52, 19.97 37.82 M13.48 52.17 C15.97 51.23, 18.1 46.76, 21.97 43.09 M11.78 53.04 C14.88 49.45, 18.23 47.45, 21.13 43.41" stroke="#40c057" stroke-width="0.5" fill="none"></path><path d="M1.02 -0.4 C0.89 6.65, -0.85 33.5, -1.01 41.47 C-1.17 49.44, -0.21 46.35, 0.06 47.42 C0.33 48.49, 0.01 47.14, 0.6 47.89 C1.2 48.64, 1.91 51.18, 3.63 51.91 C5.34 52.63, 8.9 52.36, 10.9 52.24 C12.9 52.12, 14.4 51.8, 15.63 51.17 C16.86 50.55, 17.55 49.12, 18.27 48.48 C19 47.84, 19.94 48.41, 19.97 47.35 C19.99 46.29, 18.52 49.4, 18.41 42.13 C18.29 34.87, 19.06 10.73, 19.27 3.75 C19.48 -3.23, 19.91 1.19, 19.68 0.25 C19.45 -0.7, 18.47 -1.48, 17.88 -1.93 C17.28 -2.38, 17.51 -1.99, 16.12 -2.44 C14.74 -2.89, 11.45 -4.42, 9.56 -4.62 C7.67 -4.82, 6.33 -4.09, 4.8 -3.65 C3.27 -3.22, 1.33 -2.69, 0.41 -2 C-0.52 -1.32, -0.48 -0.08, -0.74 0.45 C-1.01 0.98, -1.24 1.14, -1.19 1.18 M0.1 -1.66 C0.35 5.62, 1.27 34.84, 1.14 42.67 C1.01 50.51, -0.59 44.4, -0.67 45.36 C-0.75 46.32, -0.36 47.78, 0.66 48.43 C1.68 49.08, 4.04 48.72, 5.44 49.27 C6.85 49.81, 7.28 51.55, 9.1 51.72 C10.91 51.88, 15 50.82, 16.34 50.24 C17.69 49.66, 16.76 48.87, 17.19 48.23 C17.62 47.59, 18.62 47.53, 18.92 46.39 C19.21 45.25, 18.79 48.31, 18.94 41.39 C19.1 34.47, 19.86 11.74, 19.84 4.85 C19.81 -2.04, 19.04 1.28, 18.78 0.04 C18.53 -1.2, 18.77 -2.23, 18.31 -2.59 C17.86 -2.95, 17.41 -1.66, 16.04 -2.11 C14.68 -2.55, 11.79 -5.24, 10.12 -5.27 C8.44 -5.31, 7.26 -2.96, 6.01 -2.3 C4.76 -1.65, 3.4 -1.92, 2.61 -1.36 C1.81 -0.8, 1.6 1.11, 1.25 1.07 C0.89 1.02, 0.7 -1.3, 0.46 -1.61" stroke="#087f5b" stroke-width="1" fill="none"></path></g></g><g stroke-linecap="round"><g transform="translate(98.70838289852429 219.1095491510241) rotate(89.99999999999994 9.085199758528034 2.5020914813135278)"><path d="M-0.4 -1.07 C-0.28 -0.93, -0.73 1.21, -0.15 1.88 C0.43 2.56, 2.36 2.71, 3.09 2.99 C3.83 3.27, 2.96 3.2, 4.25 3.57 C5.54 3.94, 8.94 5.16, 10.85 5.22 C12.75 5.28, 14.42 4.53, 15.68 3.92 C16.95 3.3, 17.98 2.02, 18.44 1.52 C18.9 1.03, 18.34 1.33, 18.45 0.97 M1.59 0.98 C2.18 1.86, 2.06 2.93, 2.23 3.45 C2.4 3.97, 2.32 3.97, 2.61 4.11 C2.89 4.25, 2.7 3.97, 3.94 4.3 C5.17 4.62, 8.33 6.28, 10 6.06 C11.67 5.84, 12.98 3.94, 13.95 2.95 C14.92 1.96, 15.24 0.41, 15.84 0.12 C16.43 -0.16, 17.19 1.04, 17.52 1.25" stroke="#087f5b" stroke-width="1" fill="none"></path></g></g><g stroke-linecap="round"><g transform="translate(114.49311244355783 219.91873393104834) rotate(89.99999999999994 9.167385726666794 2.1015152588565797)"><path d="M-1.07 -0.63 C-1.15 -0.23, 0 1.62, 0.54 2 C1.08 2.37, 1.51 1.18, 2.18 1.62 C2.86 2.06, 3.21 4.15, 4.59 4.63 C5.98 5.1, 8.78 4.62, 10.48 4.48 C12.18 4.35, 13.63 4.31, 14.8 3.81 C15.97 3.31, 16.73 2.01, 17.5 1.48 C18.26 0.95, 19.36 1, 19.41 0.63 M0.57 1.66 C0.25 1.73, -0.49 0.03, -0.38 0.15 C-0.27 0.27, 0.42 1.95, 1.23 2.38 C2.03 2.8, 3.09 2.81, 4.47 2.7 C5.84 2.59, 7.49 1.65, 9.46 1.73 C11.43 1.81, 14.85 3.44, 16.29 3.19 C17.73 2.94, 17.63 0.64, 18.08 0.23 C18.54 -0.18, 18.76 0.54, 19 0.71" stroke="#087f5b" stroke-width="1" fill="none"></path></g></g><g stroke-linecap="round" transform="translate(130.84308409460505 216.83772869185304) rotate(89.99999999999994 9.238936776080436 4.107432491684904)"><path d="M9.06 -0.98 C11.07 -0.93, 13.34 0.99, 14.99 1.7 C16.64 2.41, 18.52 2.57, 18.94 3.3 C19.36 4.03, 18.56 5.45, 17.5 6.07 C16.44 6.69, 14.49 6.58, 12.58 7.04 C10.67 7.5, 7.89 8.96, 6.06 8.83 C4.23 8.71, 2.59 7.32, 1.58 6.28 C0.57 5.24, -0.26 3.45, -0.02 2.62 C0.22 1.79, 1.61 1.81, 3.01 1.32 C4.41 0.83, 7.31 -0.05, 8.39 -0.31 C9.47 -0.58, 9.43 -0.49, 9.48 -0.25 M10.79 1.03 C12.75 1.11, 14.51 1.16, 15.67 1.59 C16.82 2.02, 17.51 2.63, 17.73 3.61 C17.94 4.6, 17.99 6.66, 16.95 7.49 C15.91 8.32, 13.21 8.49, 11.49 8.58 C9.76 8.67, 8.21 8.57, 6.61 8.03 C5.01 7.5, 3.14 6.26, 1.89 5.37 C0.65 4.49, -1.31 3.69, -0.86 2.72 C-0.4 1.74, 3.12 0.11, 4.62 -0.46 C6.13 -1.03, 7.55 -0.8, 8.19 -0.7 C8.83 -0.6, 8.02 -0.1, 8.47 0.15" stroke="none" stroke-width="0" fill="#fff"></path><path d="M10.68 1.1 C12.71 1.52, 15.99 1.8, 17.31 2.44 C18.62 3.08, 18.81 4.19, 18.59 4.96 C18.36 5.73, 17.14 6.39, 15.94 7.04 C14.74 7.69, 13.4 8.84, 11.39 8.85 C9.38 8.86, 5.64 7.66, 3.88 7.1 C2.11 6.54, 1.2 6.21, 0.81 5.51 C0.42 4.8, 0.78 3.66, 1.54 2.86 C2.29 2.06, 3.38 1.01, 5.34 0.71 C7.3 0.41, 11.93 1.12, 13.3 1.06 C14.67 1, 13.75 0.39, 13.58 0.34 M8.31 -1.43 C10.43 -1.55, 13.66 -0.85, 15.4 0.04 C17.13 0.92, 18.33 2.7, 18.74 3.86 C19.15 5.01, 18.57 6.12, 17.85 6.96 C17.13 7.81, 16.31 8.79, 14.44 8.93 C12.57 9.08, 8.48 8, 6.65 7.83 C4.82 7.67, 4.64 8.74, 3.47 7.93 C2.3 7.12, -0.08 4.11, -0.38 2.98 C-0.67 1.85, 0.47 1.88, 1.68 1.16 C2.88 0.44, 6.03 -1.3, 6.85 -1.33 C7.68 -1.35, 6.26 0.84, 6.61 1.01" stroke="#087f5b" stroke-width="1" fill="none"></path></g><g transform="translate(366.4216003417969 237.1783905029297) rotate(0 34.5 10)"><text x="34.5" y="14" font-family="Virgil, Segoe UI Emoji" font-size="16px" fill="#000000" text-anchor="middle" style="white-space: pre;" direction="ltr">JmsDemo</text></g><g stroke-linecap="round"><g transform="translate(162.82618653103714 220.6620970612821) rotate(0 63.982628818973865 0.06670671196980038)"><path d="M-0.45 0.87 C21.07 0.55, 106.8 -0.6, 128.41 -0.73 M1.52 0.28 C22.93 0.65, 106.21 1.09, 127.44 0.72" stroke="#000000" stroke-width="1" fill="none"></path></g><g transform="translate(162.82618653103714 220.6620970612821) rotate(0 63.982628818973865 0.06670671196980038)"><path d="M100.74 11.02 C105.74 9.97, 113.89 4.19, 129.19 0.14 M99.64 10.29 C107.17 7.01, 116.52 5.27, 127.28 1.2" stroke="#000000" stroke-width="1" fill="none"></path></g><g transform="translate(162.82618653103714 220.6620970612821) rotate(0 63.982628818973865 0.06670671196980038)"><path d="M100.65 -9.5 C105.87 -5.58, 114.04 -6.38, 129.19 0.14 M99.55 -10.23 C107.29 -7.54, 116.67 -3.31, 127.28 1.2" stroke="#000000" stroke-width="1" fill="none"></path></g></g><g stroke-linecap="round"><g transform="translate(160.29048889540138 285.6072645437134) rotate(0 63.55809951908418 -0.46964558275158197)"><path d="M0.39 0.11 C21.76 0.06, 106.76 0.58, 127.98 0.32 M-0.86 -0.88 C20.32 -1.3, 104.93 -1.37, 126.78 -1.31" stroke="#000000" stroke-width="1" fill="none"></path></g><g transform="translate(160.29048889540138 285.6072645437134) rotate(0 63.55809951908418 -0.46964558275158197)"><path d="M98.76 8.13 C108.03 4.74, 113.04 1.5, 126.52 -0.3 M98.6 8.61 C109.81 5.84, 119.39 1.5, 126.9 -1.11" stroke="#000000" stroke-width="1" fill="none"></path></g><g transform="translate(160.29048889540138 285.6072645437134) rotate(0 63.55809951908418 -0.46964558275158197)"><path d="M98.77 -12.39 C108.14 -10, 113.14 -7.46, 126.52 -0.3 M98.61 -11.91 C109.99 -6.79, 119.56 -3.23, 126.9 -1.11" stroke="#000000" stroke-width="1" fill="none"></path></g></g><g transform="translate(728.7246698132294 284.10557942012656) rotate(0 0.08768797755999458 0.08768797756010827)" stroke="none" fill="#ffffff"><path d="M 2.12,-0.66 Q 2.12,-0.66 2.15,-0.13 2.18,0.40 1.96,0.88 1.74,1.36 1.32,1.69 0.91,2.02 0.38,2.12 -0.13,2.21 -0.64,2.05 -1.14,1.90 -1.52,1.52 -1.90,1.14 -2.05,0.64 -2.21,0.13 -2.12,-0.38 -2.02,-0.91 -1.69,-1.32 -1.36,-1.74 -0.88,-1.96 -0.39,-2.18 0.13,-2.15 0.66,-2.11 1.11,-1.84 1.57,-1.56 1.84,-1.11 L 2.12,-0.66 Z"></path></g><g stroke-linecap="round"><g transform="translate(899.4745077786412 331.87547393891055) rotate(0 -167.8547428332725 -73.79347205075874)" fill-rule="evenodd"><path d="M-187.86 -94.4 C-187.86 -94.4, -187.86 -94.4, -187.86 -94.4 M-187.86 -94.4 C-187.86 -94.4, -187.86 -94.4, -187.86 -94.4 M-195.99 -78.95 C-194.42 -80.76, -192.85 -82.57, -190.75 -84.99 M-195.99 -78.95 C-194.38 -80.81, -192.76 -82.67, -190.75 -84.99 M-189.43 -86.5 C-187.14 -89.13, -184.85 -91.76, -180.25 -97.06 M-189.43 -86.5 C-187.41 -88.82, -185.39 -91.14, -180.25 -97.06 M-196.26 -72.55 C-189.05 -80.84, -181.84 -89.13, -175.92 -95.95 M-196.26 -72.55 C-189.29 -80.57, -182.32 -88.58, -175.92 -95.95 M-194.55 -68.42 C-185.5 -78.83, -176.44 -89.25, -165.03 -102.38 M-194.55 -68.42 C-188.19 -75.73, -181.84 -83.04, -165.03 -102.38 M-191.53 -65.79 C-184.03 -74.42, -176.53 -83.04, -160.04 -102.02 M-191.53 -65.79 C-184.96 -73.35, -178.39 -80.91, -160.04 -102.02 M-189.17 -62.41 C-181.57 -71.15, -173.97 -79.89, -155.71 -100.9 M-189.17 -62.41 C-178.5 -74.69, -167.83 -86.96, -155.71 -100.9 M-188.12 -57.53 C-180.75 -66, -173.38 -74.48, -152.03 -99.04 M-188.12 -57.53 C-175.07 -72.53, -162.02 -87.54, -152.03 -99.04 M-187.07 -52.64 C-177.2 -63.99, -167.33 -75.34, -149.01 -96.41 M-187.07 -52.64 C-173.16 -68.63, -159.26 -84.63, -149.01 -96.41 M-184.7 -49.26 C-171.73 -64.19, -158.75 -79.12, -147.31 -92.28 M-184.7 -49.26 C-171.02 -65, -157.34 -80.73, -147.31 -92.28 M-181.68 -46.63 C-167.5 -62.95, -153.31 -79.28, -145.6 -88.14 M-181.68 -46.63 C-167.29 -63.19, -152.9 -79.75, -145.6 -88.14 M-177.35 -45.52 C-170.88 -52.96, -164.41 -60.41, -145.21 -82.5 M-177.35 -45.52 C-167.87 -56.43, -158.38 -67.35, -145.21 -82.5 M-173.02 -44.4 C-161.97 -57.12, -150.91 -69.84, -142.19 -79.88 M-173.02 -44.4 C-164.61 -54.08, -156.19 -63.76, -142.19 -79.88 M-166.07 -46.31 C-157.08 -56.64, -148.1 -66.98, -139.82 -76.5 M-166.07 -46.31 C-157.34 -56.35, -148.61 -66.39, -139.82 -76.5 M-157.14 -50.48 C-152.99 -55.26, -148.83 -60.04, -138.77 -71.61 M-157.14 -50.48 C-152.55 -55.76, -147.95 -61.05, -138.77 -71.61 M-152.81 -49.36 C-150.02 -52.57, -147.24 -55.78, -145.6 -57.66 M-152.81 -49.36 C-150.14 -52.44, -147.46 -55.52, -145.6 -57.66 M-183.25 -48.31 C-183.25 -48.31, -183.25 -48.31, -183.25 -48.31 M-183.25 -48.31 C-183.25 -48.31, -183.25 -48.31, -183.25 -48.31 M-173.08 -44.77 C-179.27 -50.15, -185.45 -55.52, -188.93 -58.55 M-173.08 -44.77 C-176.44 -47.69, -179.8 -50.61, -188.93 -58.55 M-168.19 -45.82 C-173.39 -50.34, -178.58 -54.85, -188.57 -63.54 M-168.19 -45.82 C-172.53 -49.6, -176.88 -53.37, -188.57 -63.54 M-190.08 -64.85 C-191.41 -66, -192.73 -67.15, -195.36 -69.44 M-190.08 -64.85 C-192.02 -66.53, -193.96 -68.22, -195.36 -69.44 M-164.06 -47.53 C-172.51 -54.87, -180.96 -62.22, -196.51 -75.74 M-164.06 -47.53 C-176.1 -58, -188.14 -68.47, -196.51 -75.74 M-161.44 -50.55 C-171.84 -59.59, -182.24 -68.63, -195.4 -80.07 M-161.44 -50.55 C-170.14 -58.11, -178.83 -65.67, -195.4 -80.07 M-154.28 -49.63 C-164.39 -58.41, -174.49 -67.19, -193.53 -83.75 M-154.28 -49.63 C-169.1 -62.51, -183.92 -75.39, -193.53 -83.75 M-150.15 -51.34 C-163.56 -62.99, -176.97 -74.65, -190.15 -86.11 M-150.15 -51.34 C-158.56 -58.65, -166.97 -65.96, -190.15 -86.11 M-146.77 -53.7 C-156.23 -61.93, -165.7 -70.15, -189.79 -91.1 M-146.77 -53.7 C-161.49 -66.5, -176.21 -79.29, -189.79 -91.1 M-145.66 -58.03 C-160.74 -71.14, -175.82 -84.25, -187.92 -94.77 M-145.66 -58.03 C-157 -67.89, -168.34 -77.75, -187.92 -94.77 M-144.54 -62.36 C-155.04 -71.49, -165.54 -80.62, -184.54 -97.13 M-144.54 -62.36 C-159.9 -75.72, -175.27 -89.07, -184.54 -97.13 M-141.92 -65.38 C-150.46 -72.81, -159 -80.23, -178.9 -97.53 M-141.92 -65.38 C-155.94 -77.57, -169.97 -89.76, -178.9 -97.53 M-139.29 -68.4 C-147.63 -75.65, -155.97 -82.89, -174.01 -98.58 M-139.29 -68.4 C-147.34 -75.39, -155.38 -82.38, -174.01 -98.58 M-138.93 -73.39 C-147.11 -80.49, -155.28 -87.6, -170.63 -100.94 M-138.93 -73.39 C-145.31 -78.93, -151.68 -84.47, -170.63 -100.94 M-146.12 -84.93 C-153.22 -91.11, -160.33 -97.28, -166.5 -102.65 M-146.12 -84.93 C-150.66 -88.88, -155.2 -92.83, -166.5 -102.65 M-145.76 -89.92 C-151.48 -94.89, -157.2 -99.86, -160.85 -103.04 M-145.76 -89.92 C-150.31 -93.88, -154.86 -97.83, -160.85 -103.04" stroke="#FFF" stroke-width="0.5" fill="none"></path><path d="M-138.83 -72.42 C-138.83 -72.42, -138.83 -72.42, -138.83 -72.42 M-138.83 -72.42 C-138.83 -72.42, -138.83 -72.42, -138.83 -72.42 M-138.83 -72.42 C-138.84 -72.62, -138.85 -72.82, -138.87 -73.33 M-138.83 -72.42 C-138.85 -72.76, -138.86 -73.1, -138.87 -73.33 M-138.87 -73.33 C-138.9 -73.58, -138.93 -73.83, -138.97 -74.21 M-138.87 -73.33 C-138.9 -73.62, -138.94 -73.91, -138.97 -74.21 M-138.97 -74.21 C-139.02 -74.47, -139.07 -74.73, -139.14 -75.08 M-138.97 -74.21 C-139.03 -74.5, -139.08 -74.78, -139.14 -75.08 M-139.14 -75.08 C-139.21 -75.34, -139.28 -75.59, -139.38 -75.93 M-139.14 -75.08 C-139.2 -75.27, -139.25 -75.46, -139.38 -75.93 M-139.38 -75.93 C-139.46 -76.16, -139.55 -76.4, -139.67 -76.74 M-139.38 -75.93 C-139.47 -76.17, -139.56 -76.42, -139.67 -76.74 M-139.67 -76.74 C-139.78 -76.98, -139.89 -77.22, -140.03 -77.53 M-139.67 -76.74 C-139.77 -76.95, -139.87 -77.16, -140.03 -77.53 M-140.03 -77.53 C-140.18 -77.8, -140.32 -78.06, -140.44 -78.29 M-140.03 -77.53 C-140.13 -77.71, -140.23 -77.89, -140.44 -78.29 M-140.44 -78.29 C-140.58 -78.5, -140.72 -78.71, -140.91 -79.01 M-140.44 -78.29 C-140.6 -78.52, -140.76 -78.76, -140.91 -79.01 M-140.91 -79.01 C-141.11 -79.26, -141.3 -79.52, -141.43 -79.69 M-140.91 -79.01 C-141.06 -79.19, -141.2 -79.38, -141.43 -79.69 M-141.43 -79.69 C-141.61 -79.88, -141.78 -80.08, -142.01 -80.33 M-141.43 -79.69 C-141.66 -79.94, -141.88 -80.19, -142.01 -80.33 M-142.01 -80.33 C-142.25 -80.56, -142.49 -80.79, -142.63 -80.93 M-142.01 -80.33 C-142.24 -80.55, -142.47 -80.78, -142.63 -80.93 M-142.63 -80.93 C-142.77 -81.04, -142.91 -81.16, -143.29 -81.48 M-142.63 -80.93 C-142.84 -81.11, -143.05 -81.28, -143.29 -81.48 M-143.29 -81.48 C-143.55 -81.66, -143.8 -81.84, -144 -81.98 M-143.29 -81.48 C-143.5 -81.63, -143.7 -81.77, -144 -81.98 M-144 -81.98 C-144.25 -82.13, -144.49 -82.28, -144.75 -82.44 M-144 -81.98 C-144.24 -82.13, -144.48 -82.27, -144.75 -82.44 M-144.75 -82.44 C-144.91 -82.52, -145.07 -82.6, -145.54 -82.83 M-144.75 -82.44 C-144.91 -82.52, -145.07 -82.6, -145.54 -82.83 M-145.54 -82.83 C-145.71 -82.91, -145.89 -82.98, -146.37 -83.17 M-145.54 -82.83 C-145.78 -82.93, -146.02 -83.03, -146.37 -83.17 M-146.37 -83.17 C-146.29 -83.75, -146.21 -84.33, -146.15 -84.73 M-146.37 -83.17 C-146.31 -83.62, -146.24 -84.07, -146.15 -84.73 M-146.15 -84.73 C-146.14 -85.13, -146.12 -85.54, -146.08 -86.3 M-146.15 -84.73 C-146.14 -85.11, -146.12 -85.48, -146.08 -86.3 M-146.08 -86.3 C-146.1 -86.73, -146.13 -87.16, -146.17 -87.98 M-146.08 -86.3 C-146.11 -86.86, -146.14 -87.43, -146.17 -87.98 M-146.17 -87.98 C-146.24 -88.48, -146.32 -88.97, -146.42 -89.6 M-146.17 -87.98 C-146.24 -88.45, -146.31 -88.93, -146.42 -89.6 M-146.42 -89.6 C-146.57 -90.22, -146.73 -90.83, -146.82 -91.18 M-146.42 -89.6 C-146.56 -90.16, -146.7 -90.71, -146.82 -91.18 M-146.82 -91.18 C-146.95 -91.53, -147.08 -91.89, -147.37 -92.68 M-146.82 -91.18 C-146.97 -91.59, -147.12 -92.01, -147.37 -92.68 M-147.37 -92.68 C-147.54 -93.03, -147.71 -93.38, -148.06 -94.11 M-147.37 -92.68 C-147.61 -93.17, -147.84 -93.66, -148.06 -94.11 M-148.06 -94.11 C-148.37 -94.61, -148.67 -95.11, -148.88 -95.47 M-148.06 -94.11 C-148.33 -94.56, -148.61 -95.01, -148.88 -95.47 M-148.88 -95.47 C-149.11 -95.77, -149.34 -96.07, -149.83 -96.73 M-148.88 -95.47 C-149.19 -95.88, -149.5 -96.29, -149.83 -96.73 M-149.83 -96.73 C-150.1 -97.03, -150.38 -97.34, -150.89 -97.89 M-149.83 -96.73 C-150.15 -97.09, -150.48 -97.44, -150.89 -97.89 M-150.89 -97.89 C-151.27 -98.24, -151.65 -98.58, -152.05 -98.95 M-150.89 -97.89 C-151.28 -98.25, -151.67 -98.6, -152.05 -98.95 M-152.05 -98.95 C-152.45 -99.25, -152.84 -99.54, -153.31 -99.9 M-152.05 -98.95 C-152.51 -99.29, -152.96 -99.63, -153.31 -99.9 M-153.31 -99.9 C-153.59 -100.06, -153.86 -100.23, -154.66 -100.72 M-153.31 -99.9 C-153.59 -100.06, -153.86 -100.23, -154.66 -100.72 M-154.66 -100.72 C-155.19 -100.97, -155.72 -101.23, -156.1 -101.41 M-154.66 -100.72 C-155.18 -100.96, -155.69 -101.21, -156.1 -101.41 M-156.1 -101.41 C-156.55 -101.57, -157.01 -101.74, -157.6 -101.96 M-156.1 -101.41 C-156.67 -101.62, -157.24 -101.83, -157.6 -101.96 M-157.6 -101.96 C-158.08 -102.08, -158.57 -102.21, -159.17 -102.36 M-157.6 -101.96 C-158.04 -102.07, -158.49 -102.19, -159.17 -102.36 M-159.17 -102.36 C-159.51 -102.41, -159.84 -102.46, -160.8 -102.61 M-159.17 -102.36 C-159.7 -102.44, -160.22 -102.52, -160.8 -102.61 M-160.8 -102.61 C-161.22 -102.63, -161.64 -102.65, -162.48 -102.7 M-160.8 -102.61 C-161.16 -102.63, -161.51 -102.65, -162.48 -102.7 M-162.48 -102.7 C-162.7 -102.69, -162.92 -102.68, -163.46 -102.67 M-162.48 -102.7 C-162.77 -102.69, -163.05 -102.68, -163.46 -102.67 M-163.46 -102.67 C-163.81 -102.64, -164.16 -102.6, -164.43 -102.58 M-163.46 -102.67 C-163.8 -102.64, -164.13 -102.61, -164.43 -102.58 M-164.43 -102.58 C-164.65 -102.55, -164.87 -102.51, -165.39 -102.44 M-164.43 -102.58 C-164.79 -102.53, -165.14 -102.47, -165.39 -102.44 M-165.39 -102.44 C-165.62 -102.39, -165.86 -102.34, -166.34 -102.24 M-165.39 -102.44 C-165.76 -102.36, -166.13 -102.28, -166.34 -102.24 M-166.34 -102.24 C-166.53 -102.18, -166.72 -102.13, -167.26 -101.98 M-166.34 -102.24 C-166.56 -102.18, -166.78 -102.11, -167.26 -101.98 M-167.26 -101.98 C-167.58 -101.87, -167.9 -101.77, -168.17 -101.67 M-167.26 -101.98 C-167.59 -101.87, -167.92 -101.76, -168.17 -101.67 M-168.17 -101.67 C-168.44 -101.57, -168.7 -101.46, -169.06 -101.31 M-168.17 -101.67 C-168.52 -101.53, -168.87 -101.39, -169.06 -101.31 M-169.06 -101.31 C-169.37 -101.17, -169.67 -101.02, -169.93 -100.9 M-169.06 -101.31 C-169.39 -101.16, -169.71 -101, -169.93 -100.9 M-169.93 -100.9 C-170.25 -100.72, -170.58 -100.54, -170.77 -100.44 M-169.93 -100.9 C-170.21 -100.75, -170.49 -100.59, -170.77 -100.44 M-170.77 -100.44 C-171.08 -100.24, -171.39 -100.05, -171.58 -99.93 M-170.77 -100.44 C-170.99 -100.3, -171.21 -100.16, -171.58 -99.93 M-171.58 -99.93 C-171.81 -99.76, -172.04 -99.6, -172.36 -99.37 M-171.58 -99.93 C-171.87 -99.72, -172.17 -99.5, -172.36 -99.37 M-172.36 -99.37 C-172.51 -99.24, -172.67 -99.12, -173.11 -98.76 M-172.36 -99.37 C-172.66 -99.13, -172.95 -98.89, -173.11 -98.76 M-173.11 -98.76 C-173.38 -98.51, -173.66 -98.26, -173.83 -98.1 M-173.11 -98.76 C-173.28 -98.6, -173.46 -98.44, -173.83 -98.1 M-173.83 -98.1 C-173.98 -97.95, -174.13 -97.79, -174.51 -97.4 M-173.83 -98.1 C-174.09 -97.83, -174.36 -97.56, -174.51 -97.4 M-174.51 -97.4 C-174.73 -97.15, -174.95 -96.89, -175.15 -96.66 M-174.51 -97.4 C-174.67 -97.21, -174.84 -97.02, -175.15 -96.66 M-175.15 -96.66 C-175.32 -96.43, -175.5 -96.2, -175.74 -95.87 M-175.15 -96.66 C-175.28 -96.49, -175.41 -96.31, -175.74 -95.87 M-175.74 -95.87 C-175.88 -95.97, -176.02 -96.07, -176.33 -96.29 M-175.74 -95.87 C-175.96 -96.03, -176.18 -96.19, -176.33 -96.29 M-176.33 -96.29 C-176.51 -96.4, -176.69 -96.51, -176.94 -96.65 M-176.33 -96.29 C-176.55 -96.42, -176.77 -96.55, -176.94 -96.65 M-176.94 -96.65 C-177.09 -96.73, -177.24 -96.8, -177.58 -96.96 M-176.94 -96.65 C-177.16 -96.76, -177.37 -96.86, -177.58 -96.96 M-177.58 -96.96 C-177.82 -97.06, -178.06 -97.15, -178.24 -97.22 M-177.58 -96.96 C-177.83 -97.06, -178.09 -97.16, -178.24 -97.22 M-178.24 -97.22 C-178.41 -97.27, -178.59 -97.32, -178.92 -97.42 M-178.24 -97.22 C-178.45 -97.28, -178.65 -97.34, -178.92 -97.42 M-178.92 -97.42 C-179.1 -97.45, -179.28 -97.49, -179.62 -97.56 M-178.92 -97.42 C-179.19 -97.47, -179.47 -97.53, -179.62 -97.56 M-179.62 -97.56 C-179.89 -97.59, -180.16 -97.62, -180.33 -97.64 M-179.62 -97.56 C-179.79 -97.58, -179.97 -97.6, -180.33 -97.64 M-180.33 -97.64 C-180.47 -97.65, -180.62 -97.66, -181.05 -97.67 M-180.33 -97.64 C-180.6 -97.66, -180.87 -97.67, -181.05 -97.67 M-181.05 -97.67 C-181.23 -97.66, -181.41 -97.66, -181.94 -97.63 M-181.05 -97.67 C-181.36 -97.66, -181.66 -97.64, -181.94 -97.63 M-181.94 -97.63 C-182.14 -97.6, -182.34 -97.57, -182.8 -97.5 M-181.94 -97.63 C-182.14 -97.6, -182.34 -97.57, -182.8 -97.5 M-182.8 -97.5 C-183.02 -97.44, -183.24 -97.38, -183.63 -97.28 M-182.8 -97.5 C-183.12 -97.42, -183.44 -97.33, -183.63 -97.28 M-183.63 -97.28 C-183.84 -97.21, -184.04 -97.14, -184.43 -96.99 M-183.63 -97.28 C-183.95 -97.17, -184.27 -97.05, -184.43 -96.99 M-184.43 -96.99 C-184.63 -96.89, -184.84 -96.8, -185.19 -96.63 M-184.43 -96.99 C-184.7 -96.86, -184.98 -96.73, -185.19 -96.63 M-185.19 -96.63 C-185.47 -96.46, -185.75 -96.29, -185.91 -96.19 M-185.19 -96.63 C-185.47 -96.45, -185.76 -96.28, -185.91 -96.19 M-185.91 -96.19 C-186.06 -96.08, -186.21 -95.97, -186.58 -95.69 M-185.91 -96.19 C-186.1 -96.05, -186.29 -95.91, -186.58 -95.69 M-186.58 -95.69 C-186.71 -95.57, -186.84 -95.46, -187.2 -95.13 M-186.58 -95.69 C-186.74 -95.55, -186.89 -95.41, -187.2 -95.13 M-187.2 -95.13 C-187.38 -94.94, -187.55 -94.75, -187.77 -94.51 M-187.2 -95.13 C-187.41 -94.9, -187.61 -94.68, -187.77 -94.51 M-187.77 -94.51 C-187.93 -94.29, -188.1 -94.07, -188.27 -93.84 M-187.77 -94.51 C-187.93 -94.3, -188.08 -94.09, -188.27 -93.84 M-188.27 -93.84 C-188.37 -93.67, -188.47 -93.51, -188.71 -93.12 M-188.27 -93.84 C-188.37 -93.67, -188.47 -93.51, -188.71 -93.12 M-188.71 -93.12 C-188.79 -92.96, -188.86 -92.81, -189.08 -92.36 M-188.71 -93.12 C-188.8 -92.93, -188.89 -92.75, -189.08 -92.36 M-189.08 -92.36 C-189.15 -92.17, -189.22 -91.99, -189.37 -91.55 M-189.08 -92.36 C-189.17 -92.1, -189.27 -91.85, -189.37 -91.55 M-189.37 -91.55 C-189.45 -91.28, -189.52 -91, -189.59 -90.72 M-189.37 -91.55 C-189.42 -91.38, -189.46 -91.21, -189.59 -90.72 M-189.59 -90.72 C-189.63 -90.45, -189.67 -90.19, -189.72 -89.85 M-189.59 -90.72 C-189.63 -90.48, -189.66 -90.25, -189.72 -89.85 M-189.72 -89.85 C-189.73 -89.64, -189.74 -89.42, -189.77 -88.96 M-189.72 -89.85 C-189.74 -89.61, -189.75 -89.37, -189.77 -88.96 M-189.77 -88.96 C-189.76 -88.65, -189.74 -88.35, -189.73 -88.18 M-189.77 -88.96 C-189.76 -88.69, -189.74 -88.42, -189.73 -88.18 M-189.73 -88.18 C-189.7 -87.94, -189.67 -87.7, -189.63 -87.4 M-189.73 -88.18 C-189.71 -88.01, -189.69 -87.84, -189.63 -87.4 M-189.63 -87.4 C-189.58 -87.15, -189.52 -86.89, -189.47 -86.65 M-189.63 -87.4 C-189.57 -87.1, -189.5 -86.8, -189.47 -86.65 M-189.47 -86.65 C-189.39 -86.4, -189.32 -86.15, -189.25 -85.92 M-189.47 -86.65 C-189.39 -86.4, -189.31 -86.14, -189.25 -85.92 M-189.25 -85.92 C-189.57 -85.8, -189.88 -85.68, -190.08 -85.6 M-189.25 -85.92 C-189.5 -85.82, -189.76 -85.72, -190.08 -85.6 M-190.08 -85.6 C-190.26 -85.51, -190.43 -85.43, -190.88 -85.21 M-190.08 -85.6 C-190.29 -85.5, -190.5 -85.4, -190.88 -85.21 M-190.88 -85.21 C-191.08 -85.1, -191.27 -84.98, -191.64 -84.76 M-190.88 -85.21 C-191.15 -85.05, -191.41 -84.9, -191.64 -84.76 M-191.64 -84.76 C-191.8 -84.65, -191.96 -84.54, -192.36 -84.26 M-191.64 -84.76 C-191.83 -84.63, -192.02 -84.5, -192.36 -84.26 M-192.36 -84.26 C-192.54 -84.12, -192.72 -83.97, -193.03 -83.71 M-192.36 -84.26 C-192.51 -84.14, -192.65 -84.02, -193.03 -83.71 M-193.03 -83.71 C-193.21 -83.53, -193.4 -83.36, -193.66 -83.11 M-193.03 -83.71 C-193.27 -83.48, -193.5 -83.26, -193.66 -83.11 M-193.66 -83.11 C-193.8 -82.95, -193.93 -82.8, -194.24 -82.46 M-193.66 -83.11 C-193.78 -82.97, -193.91 -82.83, -194.24 -82.46 M-194.24 -82.46 C-194.35 -82.32, -194.45 -82.18, -194.77 -81.77 M-194.24 -82.46 C-194.42 -82.23, -194.59 -82, -194.77 -81.77 M-194.77 -81.77 C-194.93 -81.52, -195.1 -81.27, -195.24 -81.04 M-194.77 -81.77 C-194.88 -81.59, -195 -81.41, -195.24 -81.04 M-195.24 -81.04 C-195.4 -80.75, -195.56 -80.46, -195.66 -80.28 M-195.24 -81.04 C-195.4 -80.76, -195.55 -80.48, -195.66 -80.28 M-195.66 -80.28 C-195.77 -80.04, -195.88 -79.8, -196.02 -79.49 M-195.66 -80.28 C-195.75 -80.1, -195.83 -79.91, -196.02 -79.49 M-196.02 -79.49 C-196.11 -79.25, -196.19 -79.02, -196.32 -78.67 M-196.02 -79.49 C-196.1 -79.29, -196.17 -79.09, -196.32 -78.67 M-196.32 -78.67 C-196.41 -78.35, -196.5 -78.04, -196.56 -77.82 M-196.32 -78.67 C-196.4 -78.41, -196.47 -78.15, -196.56 -77.82 M-196.56 -77.82 C-196.6 -77.64, -196.64 -77.45, -196.73 -76.95 M-196.56 -77.82 C-196.6 -77.64, -196.63 -77.47, -196.73 -76.95 M-196.73 -76.95 C-196.77 -76.65, -196.81 -76.35, -196.84 -76.07 M-196.73 -76.95 C-196.78 -76.6, -196.82 -76.25, -196.84 -76.07 M-196.84 -76.07 C-196.85 -75.79, -196.86 -75.52, -196.88 -75.17 M-196.84 -76.07 C-196.85 -75.87, -196.86 -75.67, -196.88 -75.17 M-196.88 -75.17 C-196.86 -74.85, -196.85 -74.53, -196.84 -74.26 M-196.88 -75.17 C-196.87 -74.93, -196.86 -74.7, -196.84 -74.26 M-196.84 -74.26 C-196.8 -73.95, -196.77 -73.64, -196.74 -73.37 M-196.84 -74.26 C-196.8 -73.93, -196.76 -73.6, -196.74 -73.37 M-196.74 -73.37 C-196.69 -73.13, -196.64 -72.89, -196.57 -72.5 M-196.74 -73.37 C-196.69 -73.16, -196.65 -72.94, -196.57 -72.5 M-196.57 -72.5 C-196.48 -72.2, -196.4 -71.9, -196.33 -71.65 M-196.57 -72.5 C-196.51 -72.3, -196.45 -72.1, -196.33 -71.65 M-196.33 -71.65 C-196.23 -71.38, -196.13 -71.1, -196.03 -70.83 M-196.33 -71.65 C-196.23 -71.39, -196.14 -71.12, -196.03 -70.83 M-196.03 -70.83 C-195.96 -70.67, -195.89 -70.52, -195.68 -70.04 M-196.03 -70.83 C-195.92 -70.58, -195.8 -70.32, -195.68 -70.04 M-195.68 -70.04 C-195.56 -69.82, -195.44 -69.61, -195.26 -69.28 M-195.68 -70.04 C-195.56 -69.84, -195.45 -69.63, -195.26 -69.28 M-195.26 -69.28 C-195.08 -69.01, -194.9 -68.73, -194.79 -68.56 M-195.26 -69.28 C-195.15 -69.12, -195.05 -68.95, -194.79 -68.56 M-194.79 -68.56 C-194.67 -68.4, -194.55 -68.24, -194.27 -67.87 M-194.79 -68.56 C-194.65 -68.37, -194.51 -68.19, -194.27 -67.87 M-194.27 -67.87 C-194.13 -67.72, -193.99 -67.56, -193.69 -67.22 M-194.27 -67.87 C-194.11 -67.7, -193.96 -67.52, -193.69 -67.22 M-193.69 -67.22 C-193.57 -67.1, -193.44 -66.98, -193.07 -66.62 M-193.69 -67.22 C-193.5 -67.04, -193.3 -66.85, -193.07 -66.62 M-193.07 -66.62 C-192.82 -66.42, -192.58 -66.21, -192.4 -66.07 M-193.07 -66.62 C-192.89 -66.47, -192.71 -66.32, -192.4 -66.07 M-192.4 -66.07 C-192.12 -65.87, -191.85 -65.68, -191.68 -65.56 M-192.4 -66.07 C-192.25 -65.96, -192.11 -65.86, -191.68 -65.56 M-191.68 -65.56 C-191.39 -65.39, -191.1 -65.21, -190.93 -65.1 M-191.68 -65.56 C-191.41 -65.4, -191.14 -65.23, -190.93 -65.1 M-190.93 -65.1 C-190.69 -64.99, -190.45 -64.87, -190.13 -64.71 M-190.93 -65.1 C-190.64 -64.96, -190.36 -64.82, -190.13 -64.71 M-190.13 -64.71 C-189.83 -64.58, -189.53 -64.46, -189.3 -64.36 M-190.13 -64.71 C-189.81 -64.57, -189.49 -64.44, -189.3 -64.36 M-189.3 -64.36 C-189.34 -64.05, -189.38 -63.74, -189.51 -62.84 M-189.3 -64.36 C-189.38 -63.76, -189.46 -63.16, -189.51 -62.84 M-189.51 -62.84 C-189.54 -62.21, -189.56 -61.58, -189.58 -61.24 M-189.51 -62.84 C-189.53 -62.36, -189.55 -61.89, -189.58 -61.24 M-189.58 -61.24 C-189.55 -60.73, -189.53 -60.22, -189.49 -59.57 M-189.58 -61.24 C-189.55 -60.66, -189.52 -60.08, -189.49 -59.57 M-189.49 -59.57 C-189.43 -59.18, -189.37 -58.79, -189.25 -57.95 M-189.49 -59.57 C-189.41 -59, -189.32 -58.42, -189.25 -57.95 M-189.25 -57.95 C-189.11 -57.41, -188.97 -56.88, -188.84 -56.39 M-189.25 -57.95 C-189.14 -57.55, -189.04 -57.14, -188.84 -56.39 M-188.84 -56.39 C-188.68 -55.95, -188.53 -55.52, -188.29 -54.89 M-188.84 -56.39 C-188.66 -55.89, -188.48 -55.39, -188.29 -54.89 M-188.29 -54.89 C-188.15 -54.6, -188.01 -54.31, -187.6 -53.46 M-188.29 -54.89 C-188.03 -54.35, -187.77 -53.81, -187.6 -53.46 M-187.6 -53.46 C-187.3 -52.97, -187.01 -52.48, -186.78 -52.11 M-187.6 -53.46 C-187.35 -53.04, -187.1 -52.63, -186.78 -52.11 M-186.78 -52.11 C-186.49 -51.73, -186.21 -51.34, -185.84 -50.85 M-186.78 -52.11 C-186.44 -51.66, -186.1 -51.21, -185.84 -50.85 M-185.84 -50.85 C-185.49 -50.46, -185.14 -50.08, -184.78 -49.69 M-185.84 -50.85 C-185.55 -50.54, -185.27 -50.22, -184.78 -49.69 M-184.78 -49.69 C-184.53 -49.46, -184.28 -49.23, -183.62 -48.63 M-184.78 -49.69 C-184.46 -49.39, -184.13 -49.1, -183.62 -48.63 M-183.62 -48.63 C-183.23 -48.34, -182.84 -48.05, -182.36 -47.69 M-183.62 -48.63 C-183.22 -48.33, -182.82 -48.03, -182.36 -47.69 M-182.36 -47.69 C-182.03 -47.49, -181.71 -47.29, -181.01 -46.87 M-182.36 -47.69 C-182.07 -47.51, -181.79 -47.34, -181.01 -46.87 M-181.01 -46.87 C-180.67 -46.7, -180.32 -46.53, -179.58 -46.18 M-181.01 -46.87 C-180.64 -46.69, -180.26 -46.51, -179.58 -46.18 M-179.58 -46.18 C-179.24 -46.05, -178.9 -45.93, -178.08 -45.63 M-179.58 -46.18 C-179.21 -46.04, -178.84 -45.9, -178.08 -45.63 M-178.08 -45.63 C-177.58 -45.5, -177.07 -45.37, -176.52 -45.22 M-178.08 -45.63 C-177.74 -45.54, -177.4 -45.45, -176.52 -45.22 M-176.52 -45.22 C-175.94 -45.13, -175.35 -45.04, -174.9 -44.98 M-176.52 -45.22 C-176.06 -45.15, -175.6 -45.08, -174.9 -44.98 M-174.9 -44.98 C-174.26 -44.94, -173.62 -44.91, -173.23 -44.89 M-174.9 -44.98 C-174.54 -44.96, -174.19 -44.94, -173.23 -44.89 M-173.23 -44.89 C-172.87 -44.9, -172.51 -44.91, -172.24 -44.92 M-173.23 -44.89 C-173.01 -44.9, -172.78 -44.9, -172.24 -44.92 M-172.24 -44.92 C-171.95 -44.95, -171.66 -44.97, -171.27 -45.01 M-172.24 -44.92 C-171.87 -44.95, -171.49 -44.99, -171.27 -45.01 M-171.27 -45.01 C-170.97 -45.05, -170.67 -45.1, -170.3 -45.16 M-171.27 -45.01 C-170.89 -45.07, -170.51 -45.12, -170.3 -45.16 M-170.3 -45.16 C-169.95 -45.23, -169.59 -45.31, -169.35 -45.36 M-170.3 -45.16 C-169.95 -45.23, -169.59 -45.31, -169.35 -45.36 M-169.35 -45.36 C-169.16 -45.41, -168.97 -45.46, -168.42 -45.61 M-169.35 -45.36 C-169.07 -45.43, -168.8 -45.51, -168.42 -45.61 M-168.42 -45.61 C-168.09 -45.73, -167.75 -45.85, -167.51 -45.93 M-168.42 -45.61 C-168.11 -45.72, -167.8 -45.83, -167.51 -45.93 M-167.51 -45.93 C-167.16 -46.07, -166.81 -46.22, -166.63 -46.29 M-167.51 -45.93 C-167.25 -46.03, -166.99 -46.14, -166.63 -46.29 M-166.63 -46.29 C-166.39 -46.4, -166.14 -46.52, -165.76 -46.7 M-166.63 -46.29 C-166.33 -46.43, -166.02 -46.58, -165.76 -46.7 M-165.76 -46.7 C-165.45 -46.88, -165.13 -47.06, -164.93 -47.17 M-165.76 -46.7 C-165.5 -46.85, -165.24 -46.99, -164.93 -47.17 M-164.93 -47.17 C-164.65 -47.34, -164.38 -47.51, -164.12 -47.68 M-164.93 -47.17 C-164.63 -47.36, -164.33 -47.55, -164.12 -47.68 M-164.12 -47.68 C-163.82 -47.89, -163.53 -48.1, -163.34 -48.24 M-164.12 -47.68 C-163.88 -47.85, -163.63 -48.03, -163.34 -48.24 M-163.34 -48.24 C-163.18 -48.37, -163.02 -48.5, -162.59 -48.85 M-163.34 -48.24 C-163.12 -48.42, -162.9 -48.59, -162.59 -48.85 M-162.59 -48.85 C-162.33 -49.09, -162.07 -49.32, -161.88 -49.5 M-162.59 -48.85 C-162.41 -49.01, -162.23 -49.18, -161.88 -49.5 M-161.88 -49.5 C-161.72 -49.66, -161.56 -49.82, -161.2 -50.2 M-161.88 -49.5 C-161.68 -49.71, -161.47 -49.92, -161.2 -50.2 M-161.2 -50.2 C-161.04 -50.38, -160.89 -50.56, -160.56 -50.93 M-161.2 -50.2 C-161.01 -50.42, -160.81 -50.65, -160.56 -50.93 M-160.56 -50.93 C-160.36 -51.2, -160.15 -51.47, -159.97 -51.71 M-160.56 -50.93 C-160.38 -51.17, -160.21 -51.4, -159.97 -51.71 M-159.97 -51.71 C-159.8 -51.59, -159.63 -51.47, -159.38 -51.29 M-159.97 -51.71 C-159.81 -51.61, -159.66 -51.5, -159.38 -51.29 M-159.38 -51.29 C-159.16 -51.16, -158.94 -51.03, -158.76 -50.93 M-159.38 -51.29 C-159.19 -51.18, -159.01 -51.07, -158.76 -50.93 M-158.76 -50.93 C-158.59 -50.84, -158.42 -50.76, -158.12 -50.61 M-158.76 -50.93 C-158.57 -50.83, -158.38 -50.74, -158.12 -50.61 M-158.12 -50.61 C-157.92 -50.53, -157.73 -50.46, -157.45 -50.35 M-158.12 -50.61 C-157.96 -50.55, -157.81 -50.49, -157.45 -50.35 M-157.45 -50.35 C-157.22 -50.28, -157 -50.21, -156.76 -50.14 M-157.45 -50.35 C-157.3 -50.3, -157.14 -50.25, -156.76 -50.14 M-156.76 -50.14 C-156.59 -50.1, -156.43 -50.07, -156.05 -49.99 M-156.76 -50.14 C-156.54 -50.09, -156.32 -50.04, -156.05 -49.99 M-156.05 -49.99 C-155.81 -49.96, -155.57 -49.93, -155.34 -49.9 M-156.05 -49.99 C-155.88 -49.97, -155.7 -49.94, -155.34 -49.9 M-155.34 -49.9 C-155.11 -49.89, -154.89 -49.88, -154.61 -49.87 M-155.34 -49.9 C-155.13 -49.89, -154.92 -49.88, -154.61 -49.87 M-154.61 -49.87 C-154.33 -49.88, -154.06 -49.89, -153.73 -49.91 M-154.61 -49.87 C-154.27 -49.88, -153.93 -49.9, -153.73 -49.91 M-153.73 -49.91 C-153.49 -49.95, -153.25 -49.98, -152.86 -50.04 M-153.73 -49.91 C-153.55 -49.94, -153.38 -49.96, -152.86 -50.04 M-152.86 -50.04 C-152.69 -50.09, -152.51 -50.13, -152.03 -50.26 M-152.86 -50.04 C-152.64 -50.1, -152.41 -50.16, -152.03 -50.26 M-152.03 -50.26 C-151.77 -50.35, -151.51 -50.45, -151.23 -50.55 M-152.03 -50.26 C-151.86 -50.32, -151.68 -50.38, -151.23 -50.55 M-151.23 -50.55 C-150.98 -50.67, -150.74 -50.79, -150.47 -50.91 M-151.23 -50.55 C-150.97 -50.67, -150.72 -50.8, -150.47 -50.91 M-150.47 -50.91 C-150.25 -51.05, -150.02 -51.18, -149.75 -51.35 M-150.47 -50.91 C-150.18 -51.09, -149.89 -51.26, -149.75 -51.35 M-149.75 -51.35 C-149.55 -51.5, -149.36 -51.64, -149.08 -51.85 M-149.75 -51.35 C-149.59 -51.47, -149.44 -51.58, -149.08 -51.85 M-149.08 -51.85 C-148.89 -52.02, -148.7 -52.19, -148.46 -52.41 M-149.08 -51.85 C-148.88 -52.03, -148.67 -52.22, -148.46 -52.41 M-148.46 -52.41 C-148.29 -52.59, -148.13 -52.77, -147.89 -53.03 M-148.46 -52.41 C-148.34 -52.55, -148.21 -52.68, -147.89 -53.03 M-147.89 -53.03 C-147.78 -53.19, -147.66 -53.34, -147.39 -53.7 M-147.89 -53.03 C-147.75 -53.22, -147.61 -53.41, -147.39 -53.7 M-147.39 -53.7 C-147.29 -53.87, -147.18 -54.04, -146.95 -54.42 M-147.39 -53.7 C-147.24 -53.96, -147.08 -54.21, -146.95 -54.42 M-146.95 -54.42 C-146.86 -54.61, -146.76 -54.81, -146.58 -55.18 M-146.95 -54.42 C-146.85 -54.63, -146.75 -54.83, -146.58 -55.18 M-146.58 -55.18 C-146.47 -55.49, -146.35 -55.8, -146.29 -55.98 M-146.58 -55.18 C-146.49 -55.44, -146.4 -55.69, -146.29 -55.98 M-146.29 -55.98 C-146.21 -56.3, -146.12 -56.62, -146.07 -56.82 M-146.29 -55.98 C-146.2 -56.31, -146.12 -56.63, -146.07 -56.82 M-146.07 -56.82 C-146.03 -57.12, -145.98 -57.42, -145.94 -57.69 M-146.07 -56.82 C-146.02 -57.16, -145.97 -57.5, -145.94 -57.69 M-145.94 -57.69 C-145.93 -57.91, -145.92 -58.14, -145.89 -58.58 M-145.94 -57.69 C-145.93 -57.91, -145.92 -58.14, -145.89 -58.58 M-145.89 -58.58 C-145.9 -58.77, -145.91 -58.96, -145.93 -59.36 M-145.89 -58.58 C-145.9 -58.8, -145.91 -59.01, -145.93 -59.36 M-145.93 -59.36 C-145.96 -59.63, -146 -59.9, -146.03 -60.14 M-145.93 -59.36 C-145.97 -59.66, -146.01 -59.95, -146.03 -60.14 M-146.03 -60.14 C-146.09 -60.41, -146.15 -60.69, -146.19 -60.89 M-146.03 -60.14 C-146.07 -60.34, -146.12 -60.54, -146.19 -60.89 M-146.19 -60.89 C-146.24 -61.04, -146.28 -61.18, -146.41 -61.62 M-146.19 -60.89 C-146.24 -61.05, -146.29 -61.2, -146.41 -61.62 M-146.41 -61.62 C-146.14 -61.73, -145.86 -61.84, -145.6 -61.95 M-146.41 -61.62 C-146.18 -61.71, -145.95 -61.8, -145.6 -61.95 M-145.6 -61.95 C-145.3 -62.1, -145 -62.25, -144.81 -62.34 M-145.6 -61.95 C-145.36 -62.07, -145.13 -62.18, -144.81 -62.34 M-144.81 -62.34 C-144.57 -62.49, -144.34 -62.63, -144.06 -62.8 M-144.81 -62.34 C-144.63 -62.45, -144.45 -62.56, -144.06 -62.8 M-144.06 -62.8 C-143.86 -62.94, -143.67 -63.08, -143.35 -63.3 M-144.06 -62.8 C-143.87 -62.94, -143.68 -63.07, -143.35 -63.3 M-143.35 -63.3 C-143.22 -63.42, -143.08 -63.53, -142.68 -63.86 M-143.35 -63.3 C-143.16 -63.46, -142.98 -63.62, -142.68 -63.86 M-142.68 -63.86 C-142.46 -64.08, -142.24 -64.29, -142.06 -64.47 M-142.68 -63.86 C-142.49 -64.05, -142.3 -64.23, -142.06 -64.47 M-142.06 -64.47 C-141.92 -64.62, -141.78 -64.78, -141.48 -65.12 M-142.06 -64.47 C-141.87 -64.69, -141.67 -64.9, -141.48 -65.12 M-141.48 -65.12 C-141.33 -65.32, -141.17 -65.53, -140.95 -65.81 M-141.48 -65.12 C-141.34 -65.31, -141.19 -65.49, -140.95 -65.81 M-140.95 -65.81 C-140.85 -65.96, -140.75 -66.12, -140.48 -66.54 M-140.95 -65.81 C-140.78 -66.07, -140.61 -66.33, -140.48 -66.54 M-140.48 -66.54 C-140.38 -66.71, -140.29 -66.89, -140.06 -67.3 M-140.48 -66.54 C-140.33 -66.8, -140.19 -67.07, -140.06 -67.3 M-140.06 -67.3 C-139.97 -67.49, -139.88 -67.69, -139.69 -68.1 M-140.06 -67.3 C-139.95 -67.55, -139.84 -67.79, -139.69 -68.1 M-139.69 -68.1 C-139.6 -68.36, -139.5 -68.62, -139.39 -68.92 M-139.69 -68.1 C-139.63 -68.28, -139.56 -68.45, -139.39 -68.92 M-139.39 -68.92 C-139.3 -69.25, -139.2 -69.59, -139.15 -69.77 M-139.39 -68.92 C-139.31 -69.22, -139.22 -69.52, -139.15 -69.77 M-139.15 -69.77 C-139.08 -70.1, -139.02 -70.43, -138.98 -70.63 M-139.15 -69.77 C-139.1 -70.02, -139.05 -70.26, -138.98 -70.63 M-138.98 -70.63 C-138.95 -70.88, -138.92 -71.12, -138.87 -71.52 M-138.98 -70.63 C-138.95 -70.88, -138.92 -71.12, -138.87 -71.52 M-138.87 -71.52 C-138.86 -71.76, -138.85 -72, -138.83 -72.42 M-138.87 -71.52 C-138.86 -71.76, -138.85 -71.99, -138.83 -72.42 M-138.83 -72.42 C-138.83 -72.42, -138.83 -72.42, -138.83 -72.42 M-138.83 -72.42 C-138.83 -72.42, -138.83 -72.42, -138.83 -72.42 M-138.83 -72.42 C-138.83 -72.42, -138.83 -72.42, -138.83 -72.42 M-138.83 -72.42 C-138.83 -72.42, -138.83 -72.42, -138.83 -72.42" stroke="#00000000" stroke-width="1" fill="none"></path></g></g><g stroke-linecap="round"><g transform="translate(731.3007635385624 309.08647622685294) rotate(0 5.886162343802226 -63.63158164098786)" fill-rule="evenodd"><path d="M-5.1 -73.34 C-5.1 -73.34, -5.1 -73.34, -5.1 -73.34 M-5.1 -73.34 C-5.1 -73.34, -5.1 -73.34, -5.1 -73.34 M-3.4 -69.2 C-1.15 -71.79, 1.1 -74.37, 3.82 -77.5 M-3.4 -69.2 C-1.08 -71.87, 1.24 -74.54, 3.82 -77.5 M-6.94 -59.03 C-2.71 -63.9, 1.52 -68.76, 8.81 -77.14 M-6.94 -59.03 C-0.66 -66.25, 5.62 -73.47, 8.81 -77.14 M-5.23 -54.9 C1.6 -62.75, 8.42 -70.6, 13.14 -76.03 M-5.23 -54.9 C-0.41 -60.45, 4.42 -65.99, 13.14 -76.03 M-1.56 -53.03 C3.65 -59.01, 8.85 -65, 16.16 -73.4 M-1.56 -53.03 C4.11 -59.55, 9.78 -66.07, 16.16 -73.4 M2.12 -51.16 C8.22 -58.17, 14.31 -65.19, 18.52 -70.03 M2.12 -51.16 C8.56 -58.57, 15 -65.98, 18.52 -70.03 M5.79 -49.29 C11.55 -55.91, 17.3 -62.53, 20.23 -65.89 M5.79 -49.29 C9.03 -53.01, 12.26 -56.72, 20.23 -65.89 M-6.26 -55.3 C-6.26 -55.3, -6.26 -55.3, -6.26 -55.3 M-6.26 -55.3 C-6.26 -55.3, -6.26 -55.3, -6.26 -55.3 M-3.63 -58.32 C-4.84 -59.36, -6.04 -60.41, -7.41 -61.6 M-3.63 -58.32 C-5.06 -59.56, -6.48 -60.79, -7.41 -61.6 M9.56 -52.15 C5.95 -55.29, 2.34 -58.42, -6.29 -65.93 M9.56 -52.15 C4.02 -56.97, -1.53 -61.78, -6.29 -65.93 M12.94 -54.51 C7.25 -59.46, 1.56 -64.4, -5.93 -70.91 M12.94 -54.51 C5.57 -60.91, -1.79 -67.31, -5.93 -70.91 M15.56 -57.53 C9.19 -63.07, 2.82 -68.61, -4.06 -74.59 M15.56 -57.53 C10.79 -61.68, 6.02 -65.82, -4.06 -74.59 M18.94 -59.89 C13.05 -65.02, 7.15 -70.14, -0.68 -76.95 M18.94 -59.89 C14.82 -63.48, 10.7 -67.06, -0.68 -76.95 M20.81 -63.57 C16.75 -67.1, 12.69 -70.63, 4.21 -78 M20.81 -63.57 C16.52 -67.3, 12.23 -71.02, 4.21 -78 M18.91 -70.52 C16.04 -73.02, 13.17 -75.51, 11.36 -77.08 M18.91 -70.52 C16.44 -72.67, 13.98 -74.81, 11.36 -77.08" stroke="#F4BD19" stroke-width="0.5" fill="none"></path><path d="M-6.01 -55.08 C-3.03 -53.71, -0.05 -52.35, 6.93 -49.16 M-6.01 -55.08 C-3.27 -53.83, -0.53 -52.57, 6.93 -49.16 M6.93 -49.16 C12.13 -53.72, 17.33 -58.28, 20.01 -60.62 M6.93 -49.16 C11.16 -52.87, 15.4 -56.58, 20.01 -60.62 M20.01 -60.62 C20.01 -60.62, 20.01 -60.62, 20.01 -60.62 M20.01 -60.62 C20.01 -60.62, 20.01 -60.62, 20.01 -60.62 M20.01 -60.62 C20.08 -61.1, 20.15 -61.57, 20.22 -62.06 M20.01 -60.62 C20.09 -61.18, 20.17 -61.74, 20.22 -62.06 M20.22 -62.06 C20.25 -62.61, 20.27 -63.16, 20.29 -63.51 M20.22 -62.06 C20.24 -62.54, 20.27 -63.02, 20.29 -63.51 M20.29 -63.51 C20.26 -64.02, 20.24 -64.53, 20.21 -65 M20.29 -63.51 C20.27 -63.96, 20.25 -64.4, 20.21 -65 M20.21 -65 C20.13 -65.53, 20.05 -66.05, 19.99 -66.45 M20.21 -65 C20.13 -65.57, 20.04 -66.13, 19.99 -66.45 M19.99 -66.45 C19.89 -66.84, 19.79 -67.23, 19.63 -67.85 M19.99 -66.45 C19.86 -66.97, 19.73 -67.49, 19.63 -67.85 M19.63 -67.85 C19.51 -68.17, 19.4 -68.5, 19.14 -69.19 M19.63 -67.85 C19.45 -68.36, 19.26 -68.88, 19.14 -69.19 M19.14 -69.19 C18.97 -69.56, 18.79 -69.93, 18.53 -70.47 M19.14 -69.19 C18.98 -69.52, 18.83 -69.85, 18.53 -70.47 M18.53 -70.47 C18.27 -70.88, 18.02 -71.3, 17.8 -71.67 M18.53 -70.47 C18.37 -70.72, 18.22 -70.97, 17.8 -71.67 M17.8 -71.67 C17.61 -71.92, 17.42 -72.18, 16.96 -72.79 M17.8 -71.67 C17.5 -72.07, 17.2 -72.47, 16.96 -72.79 M16.96 -72.79 C16.76 -73.01, 16.55 -73.24, 16.01 -73.83 M16.96 -72.79 C16.75 -73.02, 16.55 -73.24, 16.01 -73.83 M16.01 -73.83 C15.74 -74.08, 15.47 -74.32, 14.98 -74.77 M16.01 -73.83 C15.8 -74.02, 15.59 -74.22, 14.98 -74.77 M14.98 -74.77 C14.54 -75.1, 14.1 -75.43, 13.85 -75.61 M14.98 -74.77 C14.56 -75.09, 14.14 -75.4, 13.85 -75.61 M13.85 -75.61 C13.53 -75.81, 13.2 -76.01, 12.65 -76.34 M13.85 -75.61 C13.52 -75.82, 13.18 -76.02, 12.65 -76.34 M12.65 -76.34 C12.35 -76.49, 12.06 -76.63, 11.38 -76.96 M12.65 -76.34 C12.25 -76.54, 11.85 -76.73, 11.38 -76.96 M11.38 -76.96 C11.05 -77.08, 10.73 -77.2, 10.03 -77.45 M11.38 -76.96 C10.84 -77.15, 10.31 -77.35, 10.03 -77.45 M10.03 -77.45 C9.61 -77.56, 9.18 -77.67, 8.64 -77.81 M10.03 -77.45 C9.62 -77.56, 9.21 -77.66, 8.64 -77.81 M8.64 -77.81 C8.25 -77.87, 7.86 -77.93, 7.19 -78.03 M8.64 -77.81 C8.18 -77.88, 7.72 -77.95, 7.19 -78.03 M7.19 -78.03 C6.61 -78.06, 6.03 -78.09, 5.7 -78.11 M7.19 -78.03 C6.86 -78.05, 6.53 -78.06, 5.7 -78.11 M5.7 -78.11 C5.38 -78.1, 5.06 -78.09, 4.79 -78.08 M5.7 -78.11 C5.4 -78.1, 5.09 -78.09, 4.79 -78.08 M4.79 -78.08 C4.56 -78.06, 4.33 -78.04, 3.9 -78 M4.79 -78.08 C4.58 -78.06, 4.37 -78.04, 3.9 -78 M3.9 -78 C3.71 -77.97, 3.52 -77.94, 3.02 -77.86 M3.9 -78 C3.65 -77.96, 3.39 -77.92, 3.02 -77.86 M3.02 -77.86 C2.74 -77.8, 2.46 -77.74, 2.16 -77.67 M3.02 -77.86 C2.74 -77.8, 2.45 -77.74, 2.16 -77.67 M2.16 -77.67 C1.92 -77.61, 1.68 -77.54, 1.31 -77.44 M2.16 -77.67 C1.84 -77.59, 1.53 -77.5, 1.31 -77.44 M1.31 -77.44 C1 -77.33, 0.69 -77.22, 0.48 -77.15 M1.31 -77.44 C1.04 -77.34, 0.77 -77.25, 0.48 -77.15 M0.48 -77.15 C0.26 -77.05, 0.03 -76.96, -0.33 -76.81 M0.48 -77.15 C0.24 -77.05, 0.01 -76.95, -0.33 -76.81 M-0.33 -76.81 C-0.51 -76.72, -0.69 -76.64, -1.12 -76.42 M-0.33 -76.81 C-0.55 -76.7, -0.77 -76.59, -1.12 -76.42 M-1.12 -76.42 C-1.31 -76.32, -1.49 -76.22, -1.88 -75.99 M-1.12 -76.42 C-1.36 -76.29, -1.59 -76.16, -1.88 -75.99 M-1.88 -75.99 C-2.1 -75.85, -2.33 -75.7, -2.62 -75.52 M-1.88 -75.99 C-2.11 -75.84, -2.34 -75.7, -2.62 -75.52 M-2.62 -75.52 C-2.86 -75.34, -3.1 -75.16, -3.32 -74.99 M-2.62 -75.52 C-2.78 -75.39, -2.95 -75.27, -3.32 -74.99 M-3.32 -74.99 C-3.48 -74.86, -3.64 -74.73, -4 -74.43 M-3.32 -74.99 C-3.57 -74.79, -3.81 -74.58, -4 -74.43 M-4 -74.43 C-4.14 -74.29, -4.28 -74.16, -4.64 -73.82 M-4 -74.43 C-4.13 -74.3, -4.26 -74.18, -4.64 -73.82 M-4.64 -73.82 C-4.8 -73.65, -4.96 -73.48, -5.24 -73.17 M-4.64 -73.82 C-4.77 -73.68, -4.91 -73.53, -5.24 -73.17 M-5.24 -73.17 C-5.39 -72.99, -5.55 -72.81, -5.81 -72.48 M-5.24 -73.17 C-5.42 -72.96, -5.59 -72.75, -5.81 -72.48 M-5.81 -72.48 C-5.94 -72.31, -6.07 -72.13, -6.34 -71.76 M-5.81 -72.48 C-5.98 -72.25, -6.15 -72.02, -6.34 -71.76 M-6.34 -71.76 C-7.1 -67.83, -7.86 -63.9, -8.52 -60.48 M-6.34 -71.76 C-7.13 -67.67, -7.92 -63.58, -8.52 -60.48 M-8.52 -60.48 C-7.94 -59.23, -7.35 -57.98, -6.01 -55.08 M-8.52 -60.48 C-7.72 -58.75, -6.91 -57.03, -6.01 -55.08 M-6.01 -55.08 C-6.01 -55.08, -6.01 -55.08, -6.01 -55.08 M-6.01 -55.08 C-6.01 -55.08, -6.01 -55.08, -6.01 -55.08 M-6.01 -55.08 C-6.01 -55.08, -6.01 -55.08, -6.01 -55.08 M-6.01 -55.08 C-6.01 -55.08, -6.01 -55.08, -6.01 -55.08" stroke="#f4bd19" stroke-width="1" fill="none"></path></g></g><g stroke-linecap="round"><g transform="translate(712.5648334942243 295.2403908379338) rotate(0 13.48754257750766 -24.50758523822151)" fill-rule="evenodd"><path d="M-0.9 -27.28 C-0.9 -27.28, -0.9 -27.28, -0.9 -27.28 M-0.9 -27.28 C-0.9 -27.28, -0.9 -27.28, -0.9 -27.28 M-0.51 -21.64 C4.79 -27.73, 10.09 -33.83, 13.27 -37.49 M-0.51 -21.64 C4.17 -27.03, 8.85 -32.41, 13.27 -37.49 M1.2 -17.51 C7.05 -24.24, 12.9 -30.96, 17.6 -36.38 M1.2 -17.51 C5.95 -22.97, 10.7 -28.44, 17.6 -36.38 M3.56 -14.13 C8.78 -20.13, 14 -26.14, 21.28 -34.51 M3.56 -14.13 C8.37 -19.66, 13.18 -25.2, 21.28 -34.51 M6.58 -11.5 C11.15 -16.76, 15.71 -22.01, 24.95 -32.64 M6.58 -11.5 C10.26 -15.74, 13.94 -19.97, 24.95 -32.64 M10.91 -10.39 C15.66 -15.85, 20.4 -21.31, 27.31 -29.26 M10.91 -10.39 C16.52 -16.84, 22.12 -23.29, 27.31 -29.26 M15.9 -10.03 C18.88 -13.45, 21.85 -16.88, 29.68 -25.88 M15.9 -10.03 C20.12 -14.88, 24.33 -19.73, 29.68 -25.88 M4.7 -13.03 C4.7 -13.03, 4.7 -13.03, 4.7 -13.03 M4.7 -13.03 C4.7 -13.03, 4.7 -13.03, 4.7 -13.03 M14.12 -10.15 C8.12 -15.36, 2.13 -20.57, -0.97 -23.27 M14.12 -10.15 C10.68 -13.13, 7.25 -16.12, -0.97 -23.27 M19.01 -11.2 C14.23 -15.35, 9.46 -19.5, -0.61 -28.25 M19.01 -11.2 C13.7 -15.81, 8.39 -20.43, -0.61 -28.25 M23.14 -12.9 C15.59 -19.47, 8.03 -26.04, 2.76 -30.62 M23.14 -12.9 C17.13 -18.13, 11.11 -23.36, 2.76 -30.62 M25.77 -15.92 C21.49 -19.64, 17.22 -23.35, 5.39 -33.64 M25.77 -15.92 C18.85 -21.93, 11.94 -27.94, 5.39 -33.64 M28.39 -18.94 C21.41 -25, 14.44 -31.07, 8.77 -36 M28.39 -18.94 C21.56 -24.87, 14.74 -30.81, 8.77 -36 M28.75 -23.93 C23.98 -28.07, 19.21 -32.22, 11.39 -39.02 M28.75 -23.93 C22.39 -29.46, 16.03 -34.98, 11.39 -39.02 M29.11 -28.91 C25.92 -31.69, 22.73 -34.47, 14.02 -42.04 M29.11 -28.91 C24.06 -33.31, 19.01 -37.7, 14.02 -42.04" stroke="#3CBEB1" stroke-width="0.5" fill="none"></path><path d="M-0.68 -27.54 C-0.68 -27.54, -0.68 -27.54, -0.68 -27.54 M-0.68 -27.54 C-0.68 -27.54, -0.68 -27.54, -0.68 -27.54 M-0.68 -27.54 C-0.74 -27.1, -0.81 -26.66, -0.89 -26.09 M-0.68 -27.54 C-0.74 -27.11, -0.81 -26.68, -0.89 -26.09 M-0.89 -26.09 C-0.91 -25.63, -0.94 -25.18, -0.96 -24.6 M-0.89 -26.09 C-0.91 -25.66, -0.93 -25.23, -0.96 -24.6 M-0.96 -24.6 C-0.94 -24.12, -0.91 -23.64, -0.89 -23.11 M-0.96 -24.6 C-0.94 -24.04, -0.91 -23.48, -0.89 -23.11 M-0.89 -23.11 C-0.84 -22.8, -0.79 -22.48, -0.67 -21.66 M-0.89 -23.11 C-0.82 -22.65, -0.75 -22.19, -0.67 -21.66 M-0.67 -21.66 C-0.55 -21.23, -0.44 -20.8, -0.3 -20.26 M-0.67 -21.66 C-0.56 -21.26, -0.46 -20.87, -0.3 -20.26 M-0.3 -20.26 C-0.16 -19.87, -0.02 -19.48, 0.19 -18.92 M-0.3 -20.26 C-0.19 -19.94, -0.07 -19.63, 0.19 -18.92 M0.19 -18.92 C0.4 -18.49, 0.61 -18.05, 0.81 -17.64 M0.19 -18.92 C0.4 -18.48, 0.61 -18.05, 0.81 -17.64 M0.81 -17.64 C0.96 -17.39, 1.11 -17.14, 1.54 -16.43 M0.81 -17.64 C1.06 -17.22, 1.32 -16.8, 1.54 -16.43 M1.54 -16.43 C1.83 -16.04, 2.12 -15.66, 2.39 -15.3 M1.54 -16.43 C1.87 -16, 2.19 -15.57, 2.39 -15.3 M2.39 -15.3 C2.76 -14.9, 3.12 -14.5, 3.34 -14.26 M2.39 -15.3 C2.73 -14.93, 3.07 -14.56, 3.34 -14.26 M3.34 -14.26 C3.63 -13.99, 3.93 -13.72, 4.38 -13.31 M3.34 -14.26 C3.7 -13.93, 4.06 -13.6, 4.38 -13.31 M4.38 -13.31 C4.82 -12.98, 5.26 -12.65, 5.5 -12.47 M4.38 -13.31 C4.82 -12.98, 5.27 -12.64, 5.5 -12.47 M5.5 -12.47 C5.96 -12.19, 6.41 -11.92, 6.71 -11.73 M5.5 -12.47 C5.86 -12.25, 6.22 -12.03, 6.71 -11.73 M6.71 -11.73 C7.13 -11.53, 7.55 -11.33, 7.99 -11.12 M6.71 -11.73 C7.22 -11.49, 7.72 -11.25, 7.99 -11.12 M7.99 -11.12 C8.34 -10.99, 8.69 -10.86, 9.33 -10.62 M7.99 -11.12 C8.51 -10.93, 9.02 -10.74, 9.33 -10.62 M9.33 -10.62 C9.66 -10.54, 9.98 -10.46, 10.74 -10.26 M9.33 -10.62 C9.74 -10.52, 10.15 -10.41, 10.74 -10.26 M10.74 -10.26 C11.06 -10.21, 11.39 -10.16, 12.19 -10.04 M10.74 -10.26 C11.14 -10.2, 11.55 -10.14, 12.19 -10.04 M12.19 -10.04 C12.61 -10.02, 13.04 -9.99, 13.68 -9.96 M12.19 -10.04 C12.54 -10.02, 12.89 -10, 13.68 -9.96 M13.68 -9.96 C13.86 -9.97, 14.04 -9.97, 14.59 -9.99 M13.68 -9.96 C14.01 -9.97, 14.34 -9.98, 14.59 -9.99 M14.59 -9.99 C14.79 -10.01, 14.98 -10.03, 15.49 -10.07 M14.59 -9.99 C14.94 -10.02, 15.29 -10.05, 15.49 -10.07 M15.49 -10.07 C15.8 -10.12, 16.12 -10.17, 16.37 -10.21 M15.49 -10.07 C15.78 -10.12, 16.08 -10.16, 16.37 -10.21 M16.37 -10.21 C16.63 -10.27, 16.89 -10.32, 17.24 -10.4 M16.37 -10.21 C16.65 -10.27, 16.94 -10.33, 17.24 -10.4 M17.24 -10.4 C17.5 -10.47, 17.76 -10.55, 18.1 -10.64 M17.24 -10.4 C17.57 -10.49, 17.89 -10.58, 18.1 -10.64 M18.1 -10.64 C18.37 -10.74, 18.63 -10.83, 18.94 -10.94 M18.1 -10.64 C18.28 -10.71, 18.45 -10.77, 18.94 -10.94 M18.94 -10.94 C19.17 -11.03, 19.4 -11.13, 19.75 -11.28 M18.94 -10.94 C19.11 -11.01, 19.28 -11.08, 19.75 -11.28 M19.75 -11.28 C19.94 -11.37, 20.12 -11.46, 20.54 -11.67 M19.75 -11.28 C19.94 -11.37, 20.14 -11.47, 20.54 -11.67 M20.54 -11.67 C20.7 -11.75, 20.85 -11.84, 21.31 -12.1 M20.54 -11.67 C20.73 -11.78, 20.92 -11.88, 21.31 -12.1 M21.31 -12.1 C21.55 -12.26, 21.79 -12.42, 22.05 -12.59 M21.31 -12.1 C21.47 -12.21, 21.63 -12.31, 22.05 -12.59 M22.05 -12.59 C22.32 -12.78, 22.58 -12.98, 22.76 -13.11 M22.05 -12.59 C22.2 -12.7, 22.35 -12.81, 22.76 -13.11 M22.76 -13.11 C22.91 -13.24, 23.07 -13.37, 23.44 -13.68 M22.76 -13.11 C22.99 -13.31, 23.22 -13.5, 23.44 -13.68 M23.44 -13.68 C23.69 -13.92, 23.94 -14.15, 24.09 -14.29 M23.44 -13.68 C23.66 -13.89, 23.89 -14.11, 24.09 -14.29 M24.09 -14.29 C24.27 -14.49, 24.45 -14.68, 24.7 -14.94 M24.09 -14.29 C24.22 -14.44, 24.36 -14.59, 24.7 -14.94 M24.7 -14.94 C24.84 -15.11, 24.98 -15.28, 25.27 -15.63 M24.7 -14.94 C24.93 -15.22, 25.15 -15.49, 25.27 -15.63 M25.27 -15.63 C25.41 -15.82, 25.55 -16, 25.81 -16.36 M25.27 -15.63 C25.43 -15.85, 25.6 -16.07, 25.81 -16.36 M25.81 -16.36 C26.25 -18.72, 26.7 -21.08, 27.94 -27.63 M25.81 -16.36 C26.26 -18.78, 26.72 -21.19, 27.94 -27.63 M27.94 -27.63 C26.95 -29.52, 25.95 -31.41, 25.05 -33.13 M27.94 -27.63 C27.35 -28.76, 26.75 -29.89, 25.05 -33.13 M25.05 -33.13 C20.31 -35.29, 15.57 -37.46, 12.07 -39.05 M25.05 -33.13 C20.33 -35.28, 15.62 -37.43, 12.07 -39.05 M12.07 -39.05 C7.61 -35.02, 3.15 -31, -0.68 -27.54 M12.07 -39.05 C7.3 -34.75, 2.53 -30.44, -0.68 -27.54 M-0.68 -27.54 C-0.68 -27.54, -0.68 -27.54, -0.68 -27.54 M-0.68 -27.54 C-0.68 -27.54, -0.68 -27.54, -0.68 -27.54 M-0.68 -27.54 C-0.68 -27.54, -0.68 -27.54, -0.68 -27.54 M-0.68 -27.54 C-0.68 -27.54, -0.68 -27.54, -0.68 -27.54" stroke="#3cbeb1" stroke-width="1" fill="none"></path></g></g><g stroke-linecap="round"><g transform="translate(712.8109034815178 267.8420286017399) rotate(0 4.191562127502479 -26.225109285902818)" fill-rule="evenodd"><path d="M-0.05 -29.19 C-0.05 -29.19, -0.05 -29.19, -0.05 -29.19 M-0.05 -29.19 C-0.05 -29.19, -0.05 -29.19, -0.05 -29.19 M-0.96 -22.04 C1.29 -24.63, 3.54 -27.22, 7.56 -31.85 M-0.96 -22.04 C1.36 -24.71, 3.69 -27.39, 7.56 -31.85 M3.37 -20.92 C5.23 -23.06, 7.09 -25.2, 11.24 -29.98 M3.37 -20.92 C5.03 -22.83, 6.68 -24.74, 11.24 -29.98 M-1.35 -22.84 C-1.35 -22.84, -1.35 -22.84, -1.35 -22.84 M-1.35 -22.84 C-1.35 -22.84, -1.35 -22.84, -1.35 -22.84 M1.28 -25.86 C0.58 -26.46, -0.12 -27.07, -0.99 -27.82 M1.28 -25.86 C0.78 -26.29, 0.29 -26.72, -0.99 -27.82 M9.94 -23.63 C7.3 -25.92, 4.65 -28.22, 1.64 -30.84 M9.94 -23.63 C7.16 -26.04, 4.38 -28.46, 1.64 -30.84 M11.05 -27.96 C9.84 -29.02, 8.62 -30.07, 6.52 -31.89 M11.05 -27.96 C9.83 -29.02, 8.6 -30.09, 6.52 -31.89" stroke="#E9478C" stroke-width="0.5" fill="none"></path><path d="M-1.02 -22.55 C0.76 -22.13, 2.54 -21.72, 7.84 -20.47 M-1.02 -22.55 C2.25 -21.78, 5.53 -21.01, 7.84 -20.47 M7.84 -20.47 C8.46 -23.59, 9.07 -26.72, 9.83 -30.56 M7.84 -20.47 C8.27 -22.64, 8.7 -24.81, 9.83 -30.56 M9.83 -30.56 C9.83 -30.56, 9.83 -30.56, 9.83 -30.56 M9.83 -30.56 C9.83 -30.56, 9.83 -30.56, 9.83 -30.56 M9.83 -30.56 C9.65 -30.69, 9.47 -30.82, 9.36 -30.89 M9.83 -30.56 C9.65 -30.69, 9.48 -30.81, 9.36 -30.89 M9.36 -30.89 C9.25 -30.96, 9.14 -31.02, 8.86 -31.18 M9.36 -30.89 C9.23 -30.97, 9.1 -31.04, 8.86 -31.18 M8.86 -31.18 C8.69 -31.26, 8.52 -31.35, 8.35 -31.43 M8.86 -31.18 C8.71 -31.25, 8.56 -31.33, 8.35 -31.43 M8.35 -31.43 C8.24 -31.47, 8.12 -31.51, 7.82 -31.63 M8.35 -31.43 C8.16 -31.5, 7.97 -31.57, 7.82 -31.63 M7.82 -31.63 C7.69 -31.66, 7.56 -31.7, 7.28 -31.78 M7.82 -31.63 C7.64 -31.68, 7.46 -31.73, 7.28 -31.78 M7.28 -31.78 C7.13 -31.81, 6.98 -31.84, 6.72 -31.89 M7.28 -31.78 C7.07 -31.82, 6.86 -31.87, 6.72 -31.89 M6.72 -31.89 C6.6 -31.91, 6.49 -31.92, 6.15 -31.96 M6.72 -31.89 C6.57 -31.91, 6.41 -31.93, 6.15 -31.96 M6.15 -31.96 C6 -31.97, 5.85 -31.97, 5.57 -31.98 M6.15 -31.96 C5.98 -31.97, 5.81 -31.97, 5.57 -31.98 M5.57 -31.98 C5.35 -31.97, 5.14 -31.96, 4.85 -31.95 M5.57 -31.98 C5.32 -31.97, 5.08 -31.96, 4.85 -31.95 M4.85 -31.95 C4.69 -31.92, 4.52 -31.9, 4.16 -31.84 M4.85 -31.95 C4.69 -31.92, 4.53 -31.9, 4.16 -31.84 M4.16 -31.84 C4 -31.8, 3.83 -31.75, 3.49 -31.67 M4.16 -31.84 C4.01 -31.8, 3.86 -31.76, 3.49 -31.67 M3.49 -31.67 C3.28 -31.59, 3.06 -31.51, 2.85 -31.43 M3.49 -31.67 C3.31 -31.6, 3.13 -31.54, 2.85 -31.43 M2.85 -31.43 C2.63 -31.33, 2.41 -31.22, 2.24 -31.14 M2.85 -31.43 C2.71 -31.37, 2.57 -31.3, 2.24 -31.14 M2.24 -31.14 C2.12 -31.07, 2 -31, 1.66 -30.79 M2.24 -31.14 C2.11 -31.06, 1.97 -30.98, 1.66 -30.79 M1.66 -30.79 C1.46 -30.64, 1.26 -30.49, 1.12 -30.38 M1.66 -30.79 C1.5 -30.67, 1.33 -30.54, 1.12 -30.38 M1.12 -30.38 C0.93 -30.21, 0.73 -30.03, 0.62 -29.93 M1.12 -30.38 C1 -30.28, 0.89 -30.18, 0.62 -29.93 M0.62 -29.93 C0.44 -29.73, 0.26 -29.53, 0.17 -29.44 M0.62 -29.93 C0.51 -29.81, 0.39 -29.68, 0.17 -29.44 M0.17 -29.44 C0.02 -29.24, -0.12 -29.05, -0.24 -28.9 M0.17 -29.44 C0.01 -29.23, -0.14 -29.03, -0.24 -28.9 M-0.24 -28.9 C-0.31 -28.78, -0.38 -28.66, -0.59 -28.32 M-0.24 -28.9 C-0.35 -28.72, -0.45 -28.55, -0.59 -28.32 M-0.59 -28.32 C-0.68 -28.15, -0.76 -27.97, -0.89 -27.7 M-0.59 -28.32 C-0.68 -28.14, -0.77 -27.95, -0.89 -27.7 M-0.89 -27.7 C-0.97 -27.49, -1.05 -27.28, -1.13 -27.06 M-0.89 -27.7 C-0.97 -27.49, -1.05 -27.28, -1.13 -27.06 M-1.13 -27.06 C-1.17 -26.89, -1.21 -26.73, -1.3 -26.39 M-1.13 -27.06 C-1.19 -26.82, -1.25 -26.57, -1.3 -26.39 M-1.3 -26.39 C-1.34 -26.15, -1.38 -25.92, -1.41 -25.69 M-1.3 -26.39 C-1.33 -26.21, -1.36 -26.03, -1.41 -25.69 M-1.41 -25.69 C-1.42 -25.51, -1.43 -25.33, -1.45 -24.97 M-1.41 -25.69 C-1.42 -25.49, -1.43 -25.28, -1.45 -24.97 M-1.45 -24.97 C-1.44 -24.84, -1.44 -24.72, -1.42 -24.36 M-1.45 -24.97 C-1.44 -24.83, -1.43 -24.69, -1.42 -24.36 M-1.42 -24.36 C-1.39 -24.12, -1.36 -23.89, -1.34 -23.74 M-1.42 -24.36 C-1.4 -24.17, -1.37 -23.98, -1.34 -23.74 M-1.34 -23.74 C-1.3 -23.55, -1.26 -23.36, -1.21 -23.14 M-1.34 -23.74 C-1.31 -23.59, -1.27 -23.43, -1.21 -23.14 M-1.21 -23.14 C-1.16 -22.98, -1.11 -22.83, -1.02 -22.55 M-1.21 -23.14 C-1.16 -23, -1.12 -22.86, -1.02 -22.55 M-1.02 -22.55 C-1.02 -22.55, -1.02 -22.55, -1.02 -22.55 M-1.02 -22.55 C-1.02 -22.55, -1.02 -22.55, -1.02 -22.55 M-1.02 -22.55 C-1.02 -22.55, -1.02 -22.55, -1.02 -22.55 M-1.02 -22.55 C-1.02 -22.55, -1.02 -22.55, -1.02 -22.55" stroke="#e9478c" stroke-width="1" fill="none"></path></g></g><g stroke-linecap="round"><g transform="translate(727.1254496043507 247.42093518888487) rotate(0 -13.439629503113999 9.215788220003105)" fill-rule="evenodd"><path d="M-20.7 3.21 C-20.7 3.21, -20.7 3.21, -20.7 3.21 M-20.7 3.21 C-20.7 3.21, -20.7 3.21, -20.7 3.21 M-22.27 11.12 C-19.88 8.36, -17.48 5.61, -14.4 2.06 M-22.27 11.12 C-19.95 8.45, -17.63 5.78, -14.4 2.06 M-20.56 15.25 C-16.69 10.79, -12.81 6.33, -9.41 2.42 M-20.56 15.25 C-17.55 11.78, -14.53 8.31, -9.41 2.42 M-17.54 17.87 C-14.41 14.27, -11.28 10.66, -5.08 3.53 M-17.54 17.87 C-14.05 13.85, -10.56 9.83, -5.08 3.53 M-19.65 16.51 C-19.65 16.51, -19.65 16.51, -19.65 16.51 M-19.65 16.51 C-19.65 16.51, -19.65 16.51, -19.65 16.51 M-14.01 16.11 C-16.61 13.85, -19.21 11.59, -23.06 8.24 M-14.01 16.11 C-17.52 13.06, -21.04 10, -23.06 8.24 M-11.38 13.1 C-13.36 11.38, -15.34 9.66, -21.2 4.57 M-11.38 13.1 C-13.83 10.97, -16.28 8.84, -21.2 4.57 M-8.01 10.73 C-11.74 7.48, -15.48 4.23, -18.57 1.55 M-8.01 10.73 C-10.74 8.35, -13.48 5.97, -18.57 1.55 M-5.38 7.71 C-9.04 4.53, -12.71 1.35, -15.19 -0.81 M-5.38 7.71 C-8.72 4.81, -12.06 1.91, -15.19 -0.81" stroke="#2C458F" stroke-width="0.5" fill="none"></path><path d="M-16.09 0 C-16.09 0, -16.09 0, -16.09 0 M-16.09 0 C-16.09 0, -16.09 0, -16.09 0 M-16.09 0 C-16.29 0.07, -16.49 0.15, -16.82 0.27 M-16.09 0 C-16.26 0.06, -16.43 0.12, -16.82 0.27 M-16.82 0.27 C-17.05 0.37, -17.27 0.48, -17.52 0.6 M-16.82 0.27 C-17.07 0.39, -17.32 0.5, -17.52 0.6 M-17.52 0.6 C-17.66 0.67, -17.8 0.75, -18.19 0.97 M-17.52 0.6 C-17.67 0.68, -17.81 0.76, -18.19 0.97 M-18.19 0.97 C-18.43 1.14, -18.67 1.3, -18.82 1.4 M-18.19 0.97 C-18.32 1.06, -18.45 1.15, -18.82 1.4 M-18.82 1.4 C-18.97 1.52, -19.11 1.64, -19.42 1.88 M-18.82 1.4 C-19.01 1.56, -19.2 1.71, -19.42 1.88 M-19.42 1.88 C-19.58 2.04, -19.75 2.19, -19.97 2.4 M-19.42 1.88 C-19.61 2.06, -19.79 2.24, -19.97 2.4 M-19.97 2.4 C-20.1 2.54, -20.22 2.67, -20.48 2.96 M-19.97 2.4 C-20.08 2.52, -20.19 2.64, -20.48 2.96 M-20.48 2.96 C-20.61 3.13, -20.75 3.3, -20.95 3.56 M-20.48 2.96 C-20.61 3.12, -20.73 3.28, -20.95 3.56 M-20.95 3.56 C-21.04 3.7, -21.14 3.84, -21.37 4.19 M-20.95 3.56 C-21.11 3.79, -21.26 4.03, -21.37 4.19 M-21.37 4.19 C-21.52 4.45, -21.66 4.71, -21.74 4.85 M-21.37 4.19 C-21.51 4.44, -21.65 4.69, -21.74 4.85 M-21.74 4.85 C-21.85 5.09, -21.96 5.32, -22.06 5.54 M-21.74 4.85 C-21.83 5.04, -21.91 5.22, -22.06 5.54 M-22.06 5.54 C-22.15 5.78, -22.24 6.01, -22.33 6.26 M-22.06 5.54 C-22.17 5.82, -22.27 6.09, -22.33 6.26 M-22.33 6.26 C-22.39 6.46, -22.44 6.66, -22.54 6.99 M-22.33 6.26 C-22.41 6.55, -22.5 6.84, -22.54 6.99 M-22.54 6.99 C-22.58 7.16, -22.61 7.32, -22.7 7.74 M-22.54 6.99 C-22.59 7.23, -22.64 7.46, -22.7 7.74 M-22.7 7.74 C-22.72 7.95, -22.75 8.15, -22.79 8.51 M-22.7 7.74 C-22.72 7.94, -22.74 8.14, -22.79 8.51 M-22.79 8.51 C-22.8 8.71, -22.81 8.9, -22.82 9.29 M-22.79 8.51 C-22.8 8.74, -22.81 8.96, -22.82 9.29 M-22.82 9.29 C-22.81 9.51, -22.8 9.73, -22.79 10.05 M-22.82 9.29 C-22.81 9.57, -22.8 9.84, -22.79 10.05 M-22.79 10.05 C-22.77 10.23, -22.75 10.41, -22.71 10.79 M-22.79 10.05 C-22.76 10.31, -22.73 10.58, -22.71 10.79 M-22.71 10.79 C-22.67 10.98, -22.63 11.17, -22.56 11.52 M-22.71 10.79 C-22.67 10.96, -22.64 11.13, -22.56 11.52 M-22.56 11.52 C-22.51 11.7, -22.47 11.88, -22.37 12.23 M-22.56 11.52 C-22.51 11.71, -22.46 11.89, -22.37 12.23 M-22.37 12.23 C-22.31 12.39, -22.26 12.55, -22.12 12.93 M-22.37 12.23 C-22.27 12.51, -22.18 12.78, -22.12 12.93 M-22.12 12.93 C-22.01 13.18, -21.9 13.44, -21.83 13.6 M-22.12 12.93 C-22.05 13.1, -21.97 13.27, -21.83 13.6 M-21.83 13.6 C-21.69 13.85, -21.55 14.11, -21.48 14.24 M-21.83 13.6 C-21.7 13.84, -21.57 14.08, -21.48 14.24 M-21.48 14.24 C-21.34 14.47, -21.19 14.69, -21.09 14.85 M-21.48 14.24 C-21.36 14.44, -21.23 14.63, -21.09 14.85 M-21.09 14.85 C-20.96 15.03, -20.83 15.2, -20.66 15.44 M-21.09 14.85 C-20.95 15.05, -20.8 15.25, -20.66 15.44 M-20.66 15.44 C-20.47 15.66, -20.28 15.88, -20.18 15.99 M-20.66 15.44 C-20.5 15.61, -20.35 15.79, -20.18 15.99 M-20.18 15.99 C-20.07 16.09, -19.96 16.2, -19.66 16.5 M-20.18 15.99 C-20.06 16.1, -19.94 16.22, -19.66 16.5 M-19.66 16.5 C-19.5 16.64, -19.34 16.78, -19.1 16.98 M-19.66 16.5 C-19.52 16.62, -19.38 16.74, -19.1 16.98 M-19.1 16.98 C-18.9 17.13, -18.69 17.27, -18.51 17.41 M-19.1 16.98 C-18.97 17.07, -18.85 17.16, -18.51 17.41 M-18.51 17.41 C-18.31 17.53, -18.12 17.65, -17.88 17.8 M-18.51 17.41 C-18.26 17.56, -18.01 17.72, -17.88 17.8 M-17.88 17.8 C-17.7 17.89, -17.52 17.98, -17.21 18.14 M-17.88 17.8 C-17.69 17.89, -17.51 17.99, -17.21 18.14 M-17.21 18.14 C-16.97 18.24, -16.72 18.35, -16.52 18.43 M-17.21 18.14 C-16.96 18.25, -16.7 18.36, -16.52 18.43 M-16.52 18.43 C-13.09 15.33, -9.66 12.22, -4.06 7.15 M-16.52 18.43 C-11.54 13.93, -6.57 9.42, -4.06 7.15 M-4.06 7.15 C-4.92 5.3, -5.79 3.44, -6.33 2.27 M-4.06 7.15 C-4.72 5.74, -5.37 4.33, -6.33 2.27 M-6.33 2.27 C-8.35 1.8, -10.37 1.33, -16.09 0 M-6.33 2.27 C-9.96 1.43, -13.58 0.58, -16.09 0 M-16.09 0 C-16.09 0, -16.09 0, -16.09 0 M-16.09 0 C-16.09 0, -16.09 0, -16.09 0 M-16.09 0 C-16.09 0, -16.09 0, -16.09 0 M-16.09 0 C-16.09 0, -16.09 0, -16.09 0" stroke="#2c458f" stroke-width="1" fill="none"></path></g></g><g stroke-linecap="round"><g transform="translate(740.6458640303022 302.861254810261) rotate(0 5.61466864293898 -28.314170376832863)" fill-rule="evenodd"><path d="M1.95 -34.08 C1.95 -34.08, 1.95 -34.08, 1.95 -34.08 M1.95 -34.08 C1.95 -34.08, 1.95 -34.08, 1.95 -34.08 M0.38 -26.17 C1.79 -27.79, 3.2 -29.42, 6.28 -32.97 M0.38 -26.17 C1.62 -27.61, 2.87 -29.04, 6.28 -32.97 M2.74 -22.79 C5.5 -25.97, 8.26 -29.14, 10.61 -31.85 M2.74 -22.79 C4.75 -25.11, 6.76 -27.42, 10.61 -31.85 M-0.18 -24.18 C-0.18 -24.18, -0.18 -24.18, -0.18 -24.18 M-0.18 -24.18 C-0.18 -24.18, -0.18 -24.18, -0.18 -24.18 M6.97 -23.26 C4.6 -25.33, 2.23 -27.39, 0.94 -28.51 M6.97 -23.26 C5.24 -24.78, 3.5 -26.29, 0.94 -28.51 M10.35 -25.63 C8.43 -27.29, 6.52 -28.96, 2.05 -32.84 M10.35 -25.63 C7.91 -27.75, 5.47 -29.87, 2.05 -32.84 M11.47 -29.96 C9.92 -31.3, 8.37 -32.65, 3.92 -36.52 M11.47 -29.96 C9.33 -31.82, 7.19 -33.68, 3.92 -36.52" stroke="#95C63D" stroke-width="0.5" fill="none"></path><path d="M0 -24.03 C0 -24.03, 0 -24.03, 0 -24.03 M0 -24.03 C0 -24.03, 0 -24.03, 0 -24.03 M0 -24.03 C0.18 -23.9, 0.35 -23.77, 0.47 -23.69 M0 -24.03 C0.12 -23.94, 0.24 -23.85, 0.47 -23.69 M0.47 -23.69 C0.64 -23.59, 0.81 -23.49, 0.97 -23.4 M0.47 -23.69 C0.63 -23.6, 0.79 -23.5, 0.97 -23.4 M0.97 -23.4 C1.15 -23.31, 1.33 -23.21, 1.48 -23.14 M0.97 -23.4 C1.16 -23.3, 1.35 -23.21, 1.48 -23.14 M1.48 -23.14 C1.61 -23.09, 1.73 -23.04, 2 -22.94 M1.48 -23.14 C1.67 -23.07, 1.87 -22.99, 2 -22.94 M2 -22.94 C2.16 -22.89, 2.32 -22.84, 2.54 -22.77 M2 -22.94 C2.17 -22.88, 2.35 -22.83, 2.54 -22.77 M2.54 -22.77 C2.69 -22.74, 2.85 -22.71, 3.09 -22.65 M2.54 -22.77 C2.68 -22.74, 2.82 -22.71, 3.09 -22.65 M3.09 -22.65 C3.23 -22.64, 3.36 -22.62, 3.65 -22.58 M3.09 -22.65 C3.27 -22.63, 3.45 -22.61, 3.65 -22.58 M3.65 -22.58 C3.81 -22.57, 3.98 -22.57, 4.22 -22.56 M3.65 -22.58 C3.8 -22.58, 3.94 -22.57, 4.22 -22.56 M4.22 -22.56 C4.49 -22.57, 4.76 -22.58, 4.93 -22.59 M4.22 -22.56 C4.47 -22.57, 4.71 -22.58, 4.93 -22.59 M4.93 -22.59 C5.16 -22.63, 5.39 -22.66, 5.62 -22.7 M4.93 -22.59 C5.13 -22.62, 5.34 -22.66, 5.62 -22.7 M5.62 -22.7 C5.89 -22.77, 6.15 -22.84, 6.29 -22.87 M5.62 -22.7 C5.84 -22.76, 6.06 -22.81, 6.29 -22.87 M6.29 -22.87 C6.46 -22.94, 6.64 -23, 6.93 -23.11 M6.29 -22.87 C6.5 -22.95, 6.72 -23.03, 6.93 -23.11 M6.93 -23.11 C7.11 -23.19, 7.28 -23.28, 7.54 -23.4 M6.93 -23.11 C7.13 -23.2, 7.33 -23.3, 7.54 -23.4 M7.54 -23.4 C7.77 -23.54, 8 -23.67, 8.12 -23.75 M7.54 -23.4 C7.76 -23.53, 7.98 -23.66, 8.12 -23.75 M8.12 -23.75 C8.31 -23.89, 8.51 -24.04, 8.66 -24.15 M8.12 -23.75 C8.3 -23.88, 8.47 -24.01, 8.66 -24.15 M8.66 -24.15 C8.85 -24.32, 9.03 -24.49, 9.16 -24.61 M8.66 -24.15 C8.79 -24.27, 8.93 -24.39, 9.16 -24.61 M9.16 -24.61 C9.26 -24.71, 9.36 -24.82, 9.62 -25.1 M9.16 -24.61 C9.28 -24.74, 9.41 -24.87, 9.62 -25.1 M9.62 -25.1 C9.74 -25.26, 9.86 -25.42, 10.02 -25.64 M9.62 -25.1 C9.73 -25.26, 9.85 -25.41, 10.02 -25.64 M10.02 -25.64 C10.16 -25.87, 10.3 -26.1, 10.38 -26.22 M10.02 -25.64 C10.11 -25.78, 10.19 -25.92, 10.38 -26.22 M10.38 -26.22 C10.46 -26.39, 10.54 -26.57, 10.67 -26.83 M10.38 -26.22 C10.48 -26.44, 10.59 -26.67, 10.67 -26.83 M10.67 -26.83 C10.75 -27.04, 10.83 -27.25, 10.91 -27.48 M10.67 -26.83 C10.74 -27.01, 10.8 -27.18, 10.91 -27.48 M10.91 -27.48 C10.95 -27.64, 10.99 -27.8, 11.09 -28.15 M10.91 -27.48 C10.96 -27.66, 11 -27.84, 11.09 -28.15 M11.09 -28.15 C11.12 -28.39, 11.16 -28.63, 11.19 -28.85 M11.09 -28.15 C11.12 -28.36, 11.15 -28.57, 11.19 -28.85 M11.19 -28.85 C11.2 -29.06, 11.21 -29.26, 11.23 -29.57 M11.19 -28.85 C11.2 -29, 11.21 -29.14, 11.23 -29.57 M11.23 -29.57 C11.22 -29.76, 11.21 -29.95, 11.2 -30.2 M11.23 -29.57 C11.22 -29.72, 11.22 -29.88, 11.2 -30.2 M11.2 -30.2 C11.17 -30.42, 11.15 -30.64, 11.12 -30.81 M11.2 -30.2 C11.19 -30.33, 11.17 -30.46, 11.12 -30.81 M11.12 -30.81 C11.07 -31.03, 11.02 -31.25, 10.99 -31.41 M11.12 -30.81 C11.08 -31.02, 11.03 -31.22, 10.99 -31.41 M10.99 -31.41 C10.92 -31.64, 10.84 -31.86, 10.8 -31.99 M10.99 -31.41 C10.92 -31.64, 10.84 -31.86, 10.8 -31.99 M10.8 -31.99 C8.9 -32.43, 7.01 -32.88, 1.94 -34.07 M10.8 -31.99 C7.45 -32.77, 4.11 -33.56, 1.94 -34.07 M1.94 -34.07 C1.27 -30.61, 0.61 -27.16, 0 -24.03 M1.94 -34.07 C1.43 -31.41, 0.91 -28.75, 0 -24.03 M0 -24.03 C0 -24.03, 0 -24.03, 0 -24.03 M0 -24.03 C0 -24.03, 0 -24.03, 0 -24.03 M0 -24.03 C0 -24.03, 0 -24.03, 0 -24.03 M0 -24.03 C0 -24.03, 0 -24.03, 0 -24.03" stroke="#95c63d" stroke-width="1" fill="none"></path></g></g><g stroke-linecap="round"><g transform="translate(748.6796680933451 305.36516826603656) rotate(0 0.7080480782833405 -45.5874643827151)" fill-rule="evenodd"><path d="M-8.92 -43.53 C-8.92 -43.53, -8.92 -43.53, -8.92 -43.53 M-8.92 -43.53 C-8.92 -43.53, -8.92 -43.53, -8.92 -43.53 M-6.56 -40.15 C-3.66 -43.48, -0.77 -46.81, 5.25 -53.73 M-6.56 -40.15 C-3.74 -43.39, -0.93 -46.63, 5.25 -53.73 M-4.19 -36.77 C0.05 -41.65, 4.3 -46.54, 8.27 -51.11 M-4.19 -36.77 C-1.69 -39.65, 0.82 -42.53, 8.27 -51.11 M0.14 -35.66 C2.75 -38.66, 5.36 -41.66, 10.63 -47.73 M0.14 -35.66 C2.79 -38.71, 5.45 -41.77, 10.63 -47.73 M-6.19 -38.61 C-6.19 -38.61, -6.19 -38.61, -6.19 -38.61 M-6.19 -38.61 C-6.19 -38.61, -6.19 -38.61, -6.19 -38.61 M-3.56 -41.63 C-4.41 -42.36, -5.25 -43.09, -7.34 -44.91 M-3.56 -41.63 C-4.7 -42.61, -5.84 -43.6, -7.34 -44.91 M6.61 -38.08 C3.13 -41.11, -0.35 -44.13, -4.71 -47.93 M6.61 -38.08 C2.56 -41.6, -1.48 -45.11, -4.71 -47.93 M9.23 -41.1 C6.6 -43.39, 3.98 -45.67, -1.34 -50.29 M9.23 -41.1 C6.99 -43.05, 4.76 -44.99, -1.34 -50.29 M10.35 -45.43 C6.8 -48.52, 3.26 -51.6, 1.29 -53.31 M10.35 -45.43 C6.81 -48.51, 3.28 -51.58, 1.29 -53.31" stroke="#176655" stroke-width="0.5" fill="none"></path><path d="M-6.23 -38.65 C-2.98 -37.89, 0.28 -37.13, 3.53 -36.37 M-6.23 -38.65 C-4.25 -38.18, -2.26 -37.72, 3.53 -36.37 M3.53 -36.37 C3.53 -36.37, 3.53 -36.37, 3.53 -36.37 M3.53 -36.37 C3.53 -36.37, 3.53 -36.37, 3.53 -36.37 M3.53 -36.37 C3.74 -36.45, 3.96 -36.54, 4.26 -36.65 M3.53 -36.37 C3.75 -36.45, 3.96 -36.54, 4.26 -36.65 M4.26 -36.65 C4.45 -36.74, 4.65 -36.83, 4.96 -36.98 M4.26 -36.65 C4.54 -36.78, 4.82 -36.91, 4.96 -36.98 M4.96 -36.98 C5.18 -37.11, 5.4 -37.23, 5.63 -37.36 M4.96 -36.98 C5.14 -37.08, 5.31 -37.18, 5.63 -37.36 M5.63 -37.36 C5.83 -37.5, 6.03 -37.64, 6.26 -37.8 M5.63 -37.36 C5.79 -37.48, 5.96 -37.59, 6.26 -37.8 M6.26 -37.8 C6.44 -37.94, 6.61 -38.08, 6.85 -38.27 M6.26 -37.8 C6.45 -37.95, 6.64 -38.11, 6.85 -38.27 M6.85 -38.27 C7 -38.41, 7.14 -38.54, 7.41 -38.79 M6.85 -38.27 C7.03 -38.44, 7.22 -38.62, 7.41 -38.79 M7.41 -38.79 C7.51 -38.91, 7.61 -39.02, 7.92 -39.35 M7.41 -38.79 C7.56 -38.97, 7.72 -39.14, 7.92 -39.35 M7.92 -39.35 C8.04 -39.51, 8.15 -39.66, 8.38 -39.95 M7.92 -39.35 C8.03 -39.5, 8.15 -39.65, 8.38 -39.95 M8.38 -39.95 C8.54 -40.19, 8.71 -40.43, 8.8 -40.58 M8.38 -39.95 C8.49 -40.11, 8.6 -40.28, 8.8 -40.58 M8.8 -40.58 C8.91 -40.77, 9.02 -40.96, 9.18 -41.24 M8.8 -40.58 C8.95 -40.84, 9.1 -41.1, 9.18 -41.24 M9.18 -41.24 C9.28 -41.46, 9.38 -41.68, 9.5 -41.92 M9.18 -41.24 C9.25 -41.39, 9.32 -41.55, 9.5 -41.92 M9.5 -41.92 C9.6 -42.2, 9.71 -42.48, 9.76 -42.64 M9.5 -41.92 C9.56 -42.1, 9.63 -42.28, 9.76 -42.64 M9.76 -42.64 C9.82 -42.82, 9.87 -43, 9.98 -43.37 M9.76 -42.64 C9.82 -42.83, 9.88 -43.03, 9.98 -43.37 M9.98 -43.37 C10.01 -43.54, 10.05 -43.71, 10.13 -44.12 M9.98 -43.37 C10.01 -43.52, 10.04 -43.67, 10.13 -44.12 M10.13 -44.12 C10.16 -44.37, 10.19 -44.62, 10.22 -44.88 M10.13 -44.12 C10.15 -44.32, 10.18 -44.52, 10.22 -44.88 M10.22 -44.88 C10.23 -45.13, 10.24 -45.38, 10.26 -45.66 M10.22 -44.88 C10.23 -45.16, 10.25 -45.43, 10.26 -45.66 M10.26 -45.66 C10.25 -45.86, 10.24 -46.05, 10.23 -46.42 M10.26 -45.66 C10.25 -45.87, 10.24 -46.07, 10.23 -46.42 M10.23 -46.42 C10.21 -46.57, 10.19 -46.72, 10.14 -47.16 M10.23 -46.42 C10.2 -46.64, 10.17 -46.87, 10.14 -47.16 M10.14 -47.16 C10.1 -47.37, 10.06 -47.59, 10 -47.89 M10.14 -47.16 C10.08 -47.45, 10.03 -47.74, 10 -47.89 M10 -47.89 C9.95 -48.09, 9.89 -48.28, 9.8 -48.6 M10 -47.89 C9.92 -48.16, 9.85 -48.43, 9.8 -48.6 M9.8 -48.6 C9.75 -48.74, 9.7 -48.89, 9.56 -49.29 M9.8 -48.6 C9.72 -48.83, 9.64 -49.06, 9.56 -49.29 M9.56 -49.29 C9.45 -49.53, 9.34 -49.78, 9.26 -49.96 M9.56 -49.29 C9.44 -49.56, 9.32 -49.82, 9.26 -49.96 M9.26 -49.96 C9.14 -50.17, 9.03 -50.39, 8.92 -50.6 M9.26 -49.96 C9.13 -50.2, 9 -50.44, 8.92 -50.6 M8.92 -50.6 C8.78 -50.81, 8.64 -51.03, 8.53 -51.21 M8.92 -50.6 C8.8 -50.78, 8.68 -50.97, 8.53 -51.21 M8.53 -51.21 C8.37 -51.41, 8.22 -51.62, 8.09 -51.79 M8.53 -51.21 C8.41 -51.36, 8.3 -51.51, 8.09 -51.79 M8.09 -51.79 C7.93 -51.98, 7.76 -52.17, 7.61 -52.34 M8.09 -51.79 C7.93 -51.98, 7.76 -52.17, 7.61 -52.34 M7.61 -52.34 C7.48 -52.47, 7.35 -52.6, 7.09 -52.85 M7.61 -52.34 C7.46 -52.49, 7.31 -52.64, 7.09 -52.85 M7.09 -52.85 C6.93 -52.99, 6.77 -53.13, 6.54 -53.33 M7.09 -52.85 C6.95 -52.98, 6.8 -53.1, 6.54 -53.33 M6.54 -53.33 C6.42 -53.41, 6.3 -53.5, 5.94 -53.76 M6.54 -53.33 C6.41 -53.42, 6.27 -53.52, 5.94 -53.76 M5.94 -53.76 C5.69 -53.92, 5.44 -54.07, 5.31 -54.16 M5.94 -53.76 C5.73 -53.9, 5.52 -54.03, 5.31 -54.16 M5.31 -54.16 C5.13 -54.25, 4.95 -54.34, 4.65 -54.5 M5.31 -54.16 C5.06 -54.29, 4.8 -54.42, 4.65 -54.5 M4.65 -54.5 C4.45 -54.59, 4.25 -54.68, 3.95 -54.8 M4.65 -54.5 C4.42 -54.6, 4.19 -54.7, 3.95 -54.8 M3.95 -54.8 C0.15 -51.48, -3.66 -48.15, -8.84 -43.62 M3.95 -54.8 C-0.35 -51.04, -4.66 -47.27, -8.84 -43.62 M-8.84 -43.62 C-8.21 -42.42, -7.58 -41.22, -6.23 -38.65 M-8.84 -43.62 C-7.97 -41.96, -7.09 -40.29, -6.23 -38.65 M-6.23 -38.65 C-6.23 -38.65, -6.23 -38.65, -6.23 -38.65 M-6.23 -38.65 C-6.23 -38.65, -6.23 -38.65, -6.23 -38.65 M-6.23 -38.65 C-6.23 -38.65, -6.23 -38.65, -6.23 -38.65 M-6.23 -38.65 C-6.23 -38.65, -6.23 -38.65, -6.23 -38.65" stroke="#176655" stroke-width="1" fill="none"></path></g></g><g stroke-linecap="round" transform="translate(668.0159606933594 191.92742919921875) rotate(0 66.1724853515625 50.94146728515625)"><path d="M-1.39 0.22 C28.9 1.9, 62.84 3.03, 131.72 1.13 M-0.76 -0.71 C27.82 -0.95, 57.89 -0.4, 133.33 -0.1 M132.36 -0.3 C131.42 31.32, 132.92 66.13, 133.78 101.78 M132.42 0.5 C130.7 26.81, 130.83 54.79, 131.97 101.6 M133.49 102.03 C97.71 101.83, 60.36 102.48, -0.12 100.85 M131.83 102.84 C92.69 102.02, 51.11 102.34, 0.2 100.89 M-1.77 102.17 C-1.3 71.71, -1.53 36.06, 1.43 -0.21 M0.91 102.09 C-0.63 74.69, -0.25 50.28, 0.93 0.42" stroke="#000000" stroke-width="1" fill="none"></path></g><g transform="translate(681.8541564941406 210.02407836914062) rotate(0 53 10)"><text x="0" y="14" font-family="Virgil, Segoe UI Emoji" font-size="16px" fill="#000000" text-anchor="start" style="white-space: pre;" direction="ltr">Elasticsearch</text></g><g stroke-linecap="round"><g transform="translate(517.8508605957031 238.55468931271844) rotate(0 67.73081663176418 0.16078820596794685)"><path d="M-0.81 -0.71 C21.82 -0.86, 113.47 -1.14, 136.27 -1.21 M0.96 1.53 C23.36 1.6, 112.14 0.49, 135.07 0.25" stroke="#000000" stroke-width="1" fill="none"></path></g><g transform="translate(517.8508605957031 238.55468931271844) rotate(0 67.73081663176418 0.16078820596794685)"><path d="M26.16 -11.9 C17.53 -8.98, 8.08 -2.69, -1.58 -0.96 M26.46 -11.72 C20.86 -8.8, 15.88 -6.06, 0.13 -0.75" stroke="#000000" stroke-width="1" fill="none"></path></g><g transform="translate(517.8508605957031 238.55468931271844) rotate(0 67.73081663176418 0.16078820596794685)"><path d="M26.24 8.62 C17.63 4.57, 8.15 3.9, -1.58 -0.96 M26.53 8.8 C21.12 7.45, 16.12 5.93, 0.13 -0.75" stroke="#000000" stroke-width="1" fill="none"></path></g><g transform="translate(517.8508605957031 238.55468931271844) rotate(0 67.73081663176418 0.16078820596794685)"><path d="M105.81 10.01 C116.31 6.2, 125.94 5.38, 134.29 0 M106.11 10.19 C112.4 9.09, 119.1 7.48, 136.01 0.21" stroke="#000000" stroke-width="1" fill="none"></path></g><g transform="translate(517.8508605957031 238.55468931271844) rotate(0 67.73081663176418 0.16078820596794685)"><path d="M105.58 -10.51 C116.11 -7.36, 125.81 -1.21, 134.29 0 M105.88 -10.33 C112.02 -7.16, 118.77 -4.51, 136.01 0.21" stroke="#000000" stroke-width="1" fill="none"></path></g></g><g stroke-linecap="round"><g transform="translate(401.9333084250893 44.576885925243005) rotate(0 0.5982907513575668 51.97960096627958)"><path d="M-0.51 0.02 C-0.24 17.44, 1.45 86.54, 1.71 103.93 M1.42 -1.02 C1.57 16.59, 1.2 87.24, 0.99 104.97" stroke="#000000" stroke-width="1" fill="none"></path></g><g transform="translate(401.9333084250893 44.576885925243005) rotate(0 0.5982907513575668 51.97960096627958)"><path d="M-9.02 77.43 C-7.72 84.98, -3.96 94.62, 0.45 104.05 M-9.79 75.82 C-6.05 84.05, -3.84 90.2, 0.18 105.46" stroke="#000000" stroke-width="1" fill="none"></path></g><g transform="translate(401.9333084250893 44.576885925243005) rotate(0 0.5982907513575668 51.97960096627958)"><path d="M11.5 77.59 C6.57 85, 4.09 94.6, 0.45 104.05 M10.73 75.97 C9.68 84.12, 7.11 90.24, 0.18 105.46" stroke="#000000" stroke-width="1" fill="none"></path></g></g><g transform="translate(346.7803039550781 10) rotate(0 53 10)"><text x="0" y="14" font-family="Virgil, Segoe UI Emoji" font-size="16px" fill="#000000" text-anchor="start" style="white-space: pre;" direction="ltr">API requests</text></g></svg>