<svg version="1.1" xmlns="http://www.w3.org/2000/svg" viewBox="0 0 794.8359375 433.84765625" width="1589.671875" height="867.6953125">
  <!-- svg-source:excalidraw -->
  
  <defs>
    <style>
      @font-face {
        font-family: "Virgil";
        src: url("https://excalidraw.com/Virgil.woff2");
      }
      @font-face {
        font-family: "Cascadia";
        src: url("https://excalidraw.com/Cascadia.woff2");
      }
    </style>
  </defs>
  <rect x="0" y="0" width="794.8359375" height="433.84765625" fill="#ffffff"></rect><g stroke-linecap="round" transform="translate(10 180.06640625) rotate(0 73.39453125 59.037109375)"><path d="M0.11 0.3 C41.57 1.16, 80.18 -0.59, 148.17 -0.39 M0.71 -0.71 C31.66 -2.02, 63.71 -0.87, 147.36 0.19 M147.32 0.55 C146.23 27.85, 146.92 52.51, 148.78 116.89 M146.66 0.03 C145.99 42.48, 146.82 83.43, 147.05 117.37 M148.05 118.16 C110.81 116.34, 69.84 117.53, -0.16 116.76 M146.93 118.08 C112.07 119.8, 79.35 119.36, -0.29 118.23 M-1.05 116.47 C0.02 88.1, -0.44 59, 0 -0.97 M0.78 117.79 C1.44 88.79, 1.5 59.13, 0.09 0.96" stroke="#000000" stroke-width="1" fill="none"></path></g><g transform="translate(41.421875 225.26953125) rotate(0 43.5 12.5)"><text x="0" y="18" font-family="Virgil, Segoe UI Emoji" font-size="20px" fill="#000000" text-anchor="start" style="white-space: pre;" direction="ltr">JmsDemo</text></g><g transform="translate(737.1894561895119 97.90523094147966) rotate(0 0.11485772182322762 0.1148577218231992)" stroke="none"><path d="M0 0 C0 0, 0 0, 0 0 M0 0 C0 0, 0 0, 0 0 M-0.01 0.02 C-0.01 0.02, -0.01 0.02, -0.01 0.02 M-0.01 0.02 C-0.01 0.02, -0.01 0.02, -0.01 0.02" stroke="#ffffff" stroke-width="0.5" fill="none"></path><path fill="#ffffff" d="M 2.12,-0.66 Q 2.12,-0.66 2.15,-0.13 2.18,0.40 1.96,0.88 1.74,1.36 1.32,1.69 0.91,2.02 0.38,2.12 -0.13,2.21 -0.64,2.05 -1.14,1.90 -1.52,1.52 -1.90,1.14 -2.05,0.64 -2.21,0.13 -2.12,-0.38 -2.02,-0.91 -1.69,-1.32 -1.36,-1.74 -0.88,-1.96 -0.39,-2.18 0.13,-2.15 0.66,-2.11 1.11,-1.84 1.57,-1.56 1.84,-1.11 L 2.12,-0.66 Z"></path></g><g stroke-linecap="round"><g transform="translate(899.8442282376254 128.65647979828663) rotate(0 -158.86264408950603 -64.83812042328589)" fill-rule="evenodd"><path d="M-185 -91.91 C-185 -91.91, -185 -91.91, -185 -91.91 M-185 -91.91 C-185 -91.91, -185 -91.91, -185 -91.91 M-193.13 -76.46 C-192.9 -76.73, -192.66 -77, -192.47 -77.21 M-193.13 -76.46 C-192.88 -76.74, -192.64 -77.03, -192.47 -77.21 M-187.23 -83.25 C-184.33 -86.58, -181.44 -89.91, -176.07 -96.08 M-187.23 -83.25 C-184.08 -86.87, -180.94 -90.48, -176.07 -96.08 M-196.67 -66.29 C-189.08 -75.03, -181.48 -83.76, -171.74 -94.97 M-196.67 -66.29 C-188.1 -76.15, -179.52 -86.01, -171.74 -94.97 M-195.62 -61.4 C-186.02 -72.45, -176.41 -83.5, -162.16 -99.89 M-195.62 -61.4 C-188.81 -69.24, -182 -77.07, -162.16 -99.89 M-193.92 -57.27 C-180.88 -72.26, -167.84 -87.26, -155.21 -101.79 M-193.92 -57.27 C-184.1 -68.55, -174.29 -79.84, -155.21 -101.79 M-190.9 -54.64 C-176.66 -71.01, -162.43 -87.38, -149.56 -102.19 M-190.9 -54.64 C-182.06 -64.81, -173.23 -74.97, -149.56 -102.19 M-187.22 -52.77 C-171.04 -71.38, -154.87 -89.99, -145.23 -101.07 M-187.22 -52.77 C-174.34 -67.59, -161.46 -82.41, -145.23 -101.07 M-186.17 -47.88 C-170.54 -65.87, -154.9 -83.86, -140.9 -99.96 M-186.17 -47.88 C-175.65 -59.99, -165.13 -72.09, -140.9 -99.96 M-186.43 -41.49 C-169.65 -60.79, -152.87 -80.09, -137.88 -97.34 M-186.43 -41.49 C-169.79 -60.63, -153.16 -79.77, -137.88 -97.34 M-184.07 -38.11 C-166.01 -58.88, -147.95 -79.66, -134.86 -94.71 M-184.07 -38.11 C-173.38 -50.4, -162.7 -62.69, -134.86 -94.71 M-181.71 -34.73 C-168.13 -50.34, -154.56 -65.96, -132.5 -91.33 M-181.71 -34.73 C-170.02 -48.18, -158.33 -61.62, -132.5 -91.33 M-179.34 -31.35 C-167.28 -45.23, -155.21 -59.11, -130.8 -87.2 M-179.34 -31.35 C-161.71 -51.63, -144.09 -71.91, -130.8 -87.2 M-175.67 -29.48 C-157.46 -50.43, -139.25 -71.38, -129.74 -82.31 M-175.67 -29.48 C-161.65 -45.61, -147.63 -61.74, -129.74 -82.31 M-171.99 -27.61 C-155.3 -46.82, -138.6 -66.03, -129.35 -76.67 M-171.99 -27.61 C-159.08 -42.47, -146.16 -57.33, -129.35 -76.67 M-167.66 -26.5 C-155.65 -40.31, -143.64 -54.13, -126.33 -74.04 M-167.66 -26.5 C-155.38 -40.63, -143.09 -54.76, -126.33 -74.04 M-162.02 -26.89 C-148.07 -42.94, -134.11 -58.99, -123.31 -71.42 M-162.02 -26.89 C-150.15 -40.55, -138.28 -54.2, -123.31 -71.42 M-153.1 -31.06 C-143.54 -42.05, -133.98 -53.05, -121.61 -67.28 M-153.1 -31.06 C-146.73 -38.38, -140.36 -45.71, -121.61 -67.28 M-145.49 -33.72 C-138.46 -41.8, -131.42 -49.89, -120.56 -62.4 M-145.49 -33.72 C-138.46 -41.8, -131.43 -49.89, -120.56 -62.4 M-140.5 -33.36 C-136.89 -37.5, -133.29 -41.65, -130 -45.43 M-140.5 -33.36 C-137.91 -36.34, -135.32 -39.31, -130 -45.43 M-179.21 -31.62 C-179.21 -31.62, -179.21 -31.62, -179.21 -31.62 M-179.21 -31.62 C-179.21 -31.62, -179.21 -31.62, -179.21 -31.62 M-168.29 -27.42 C-173.16 -31.66, -178.03 -35.89, -185.65 -42.51 M-168.29 -27.42 C-173.4 -31.86, -178.51 -36.31, -185.65 -42.51 M-162.65 -27.82 C-169.95 -34.17, -177.25 -40.51, -186.8 -48.81 M-162.65 -27.82 C-171.47 -35.49, -180.29 -43.16, -186.8 -48.81 M-157.76 -28.87 C-171.17 -40.53, -184.58 -52.19, -196.25 -62.33 M-157.76 -28.87 C-167.25 -37.12, -176.75 -45.38, -196.25 -62.33 M-153.62 -30.58 C-165.12 -40.57, -176.61 -50.56, -196.64 -67.97 M-153.62 -30.58 C-165.5 -40.9, -177.37 -51.22, -196.64 -67.97 M-151 -33.59 C-166.23 -46.84, -181.47 -60.08, -195.53 -72.3 M-151 -33.59 C-161.81 -42.99, -172.61 -52.38, -195.53 -72.3 M-146.11 -34.64 C-161.17 -47.74, -176.23 -60.83, -193.66 -75.98 M-146.11 -34.64 C-163.41 -49.68, -180.7 -64.72, -193.66 -75.98 M-138.96 -33.73 C-150.4 -43.68, -161.85 -53.62, -191.03 -79 M-138.96 -33.73 C-152.42 -45.43, -165.89 -57.14, -191.03 -79 M-134.82 -35.43 C-155.43 -53.35, -176.04 -71.27, -187.65 -81.36 M-134.82 -35.43 C-151.92 -50.3, -169.02 -65.16, -187.65 -81.36 M-132.2 -38.45 C-148.83 -52.91, -165.46 -67.37, -187.29 -86.34 M-132.2 -38.45 C-149.18 -53.21, -166.16 -67.97, -187.29 -86.34 M-130.33 -42.13 C-152.06 -61.02, -173.8 -79.91, -186.18 -90.68 M-130.33 -42.13 C-146.44 -56.13, -162.54 -70.13, -186.18 -90.68 M-129.97 -47.11 C-144.51 -59.76, -159.06 -72.4, -183.55 -93.69 M-129.97 -47.11 C-142.99 -58.43, -156.01 -69.75, -183.55 -93.69 M-127.35 -50.13 C-147.32 -67.5, -167.3 -84.86, -180.18 -96.06 M-127.35 -50.13 C-139.39 -60.6, -151.43 -71.07, -180.18 -96.06 M-124.72 -53.15 C-143.07 -69.1, -161.41 -85.05, -173.78 -95.8 M-124.72 -53.15 C-141.98 -68.15, -159.23 -83.15, -173.78 -95.8 M-122.1 -56.17 C-139.47 -71.28, -156.85 -86.38, -167.38 -95.53 M-122.1 -56.17 C-137.95 -69.95, -153.8 -83.73, -167.38 -95.53 M-120.98 -60.5 C-130.5 -68.78, -140.02 -77.05, -164.76 -98.55 M-120.98 -60.5 C-136.78 -74.23, -152.57 -87.96, -164.76 -98.55 M-120.62 -65.49 C-136.73 -79.49, -152.84 -93.5, -161.38 -100.92 M-120.62 -65.49 C-132.84 -76.11, -145.05 -86.72, -161.38 -100.92 M-130.07 -79 C-139.91 -87.56, -149.75 -96.11, -156.49 -101.97 M-130.07 -79 C-136.26 -84.38, -142.45 -89.76, -156.49 -101.97 M-129.71 -83.99 C-137.69 -90.93, -145.67 -97.86, -151.6 -103.02 M-129.71 -83.99 C-137.58 -90.83, -145.46 -97.68, -151.6 -103.02 M-132.37 -91.6 C-136.58 -95.26, -140.79 -98.92, -143.69 -101.44 M-132.37 -91.6 C-136.6 -95.28, -140.82 -98.95, -143.69 -101.44" stroke="#FFF" stroke-width="0.5" fill="none"></path><path d="M-120.85 -63.04 C-120.85 -63.04, -120.85 -63.04, -120.85 -63.04 M-120.85 -63.04 C-120.85 -63.04, -120.85 -63.04, -120.85 -63.04 M-120.85 -63.04 C-120.87 -63.46, -120.88 -63.89, -120.9 -64.23 M-120.85 -63.04 C-120.87 -63.47, -120.88 -63.91, -120.9 -64.23 M-120.9 -64.23 C-120.95 -64.69, -121 -65.15, -121.03 -65.39 M-120.9 -64.23 C-120.92 -64.47, -120.95 -64.72, -121.03 -65.39 M-121.03 -65.39 C-121.11 -65.77, -121.18 -66.15, -121.25 -66.53 M-121.03 -65.39 C-121.09 -65.7, -121.15 -66, -121.25 -66.53 M-121.25 -66.53 C-121.36 -66.9, -121.47 -67.28, -121.56 -67.63 M-121.25 -66.53 C-121.34 -66.84, -121.43 -67.16, -121.56 -67.63 M-121.56 -67.63 C-121.7 -68.02, -121.85 -68.42, -121.95 -68.7 M-121.56 -67.63 C-121.69 -67.99, -121.82 -68.34, -121.95 -68.7 M-121.95 -68.7 C-122.11 -69.05, -122.26 -69.39, -122.42 -69.73 M-121.95 -68.7 C-122.13 -69.09, -122.3 -69.48, -122.42 -69.73 M-122.42 -69.73 C-122.62 -70.11, -122.83 -70.48, -122.96 -70.72 M-122.42 -69.73 C-122.56 -70, -122.71 -70.27, -122.96 -70.72 M-122.96 -70.72 C-123.12 -70.98, -123.29 -71.23, -123.57 -71.66 M-122.96 -70.72 C-123.15 -71.02, -123.35 -71.32, -123.57 -71.66 M-123.57 -71.66 C-123.74 -71.88, -123.9 -72.1, -124.26 -72.56 M-123.57 -71.66 C-123.74 -71.88, -123.91 -72.1, -124.26 -72.56 M-124.26 -72.56 C-124.41 -72.73, -124.56 -72.91, -125 -73.4 M-124.26 -72.56 C-124.54 -72.88, -124.83 -73.21, -125 -73.4 M-125 -73.4 C-125.32 -73.71, -125.64 -74.02, -125.82 -74.18 M-125 -73.4 C-125.21 -73.59, -125.41 -73.79, -125.82 -74.18 M-125.82 -74.18 C-126.13 -74.45, -126.45 -74.71, -126.69 -74.91 M-125.82 -74.18 C-126.07 -74.4, -126.33 -74.61, -126.69 -74.91 M-126.69 -74.91 C-126.91 -75.07, -127.13 -75.22, -127.62 -75.57 M-126.69 -74.91 C-126.98 -75.11, -127.27 -75.32, -127.62 -75.57 M-127.62 -75.57 C-127.94 -75.76, -128.26 -75.96, -128.6 -76.16 M-127.62 -75.57 C-128.01 -75.8, -128.4 -76.04, -128.6 -76.16 M-128.6 -76.16 C-128.96 -76.34, -129.31 -76.52, -129.63 -76.68 M-128.6 -76.16 C-128.92 -76.32, -129.25 -76.49, -129.63 -76.68 M-129.63 -76.68 C-129.9 -76.79, -130.16 -76.9, -130.72 -77.13 M-129.63 -76.68 C-129.94 -76.81, -130.25 -76.93, -130.72 -77.13 M-130.72 -77.13 C-130.65 -77.6, -130.59 -78.07, -130.44 -79.17 M-130.72 -77.13 C-130.62 -77.84, -130.52 -78.56, -130.44 -79.17 M-130.44 -79.17 C-130.42 -79.6, -130.4 -80.04, -130.35 -81.22 M-130.44 -79.17 C-130.4 -79.94, -130.37 -80.71, -130.35 -81.22 M-130.35 -81.22 C-130.39 -82.08, -130.43 -82.94, -130.46 -83.42 M-130.35 -81.22 C-130.39 -82.05, -130.43 -82.88, -130.46 -83.42 M-130.46 -83.42 C-130.56 -84.08, -130.66 -84.75, -130.78 -85.55 M-130.46 -83.42 C-130.57 -84.14, -130.68 -84.86, -130.78 -85.55 M-130.78 -85.55 C-130.93 -86.12, -131.07 -86.69, -131.31 -87.61 M-130.78 -85.55 C-130.98 -86.31, -131.17 -87.07, -131.31 -87.61 M-131.31 -87.61 C-131.58 -88.34, -131.85 -89.08, -132.03 -89.58 M-131.31 -87.61 C-131.51 -88.15, -131.71 -88.7, -132.03 -89.58 M-132.03 -89.58 C-132.31 -90.14, -132.58 -90.71, -132.94 -91.46 M-132.03 -89.58 C-132.35 -90.24, -132.67 -90.9, -132.94 -91.46 M-132.94 -91.46 C-133.36 -92.15, -133.78 -92.84, -134.01 -93.23 M-132.94 -91.46 C-133.29 -92.04, -133.64 -92.62, -134.01 -93.23 M-134.01 -93.23 C-134.31 -93.62, -134.61 -94.02, -135.25 -94.88 M-134.01 -93.23 C-134.48 -93.85, -134.95 -94.47, -135.25 -94.88 M-135.25 -94.88 C-135.7 -95.38, -136.16 -95.87, -136.64 -96.4 M-135.25 -94.88 C-135.62 -95.29, -135.99 -95.7, -136.64 -96.4 M-136.64 -96.4 C-137 -96.73, -137.36 -97.06, -138.16 -97.79 M-136.64 -96.4 C-137.16 -96.88, -137.69 -97.36, -138.16 -97.79 M-138.16 -97.79 C-138.65 -98.16, -139.14 -98.52, -139.82 -99.03 M-138.16 -97.79 C-138.67 -98.17, -139.18 -98.56, -139.82 -99.03 M-139.82 -99.03 C-140.5 -99.45, -141.19 -99.86, -141.59 -100.1 M-139.82 -99.03 C-140.5 -99.44, -141.18 -99.86, -141.59 -100.1 M-141.59 -100.1 C-142.31 -100.45, -143.03 -100.8, -143.46 -101.01 M-141.59 -100.1 C-142.16 -100.38, -142.73 -100.65, -143.46 -101.01 M-143.46 -101.01 C-144.18 -101.27, -144.89 -101.53, -145.44 -101.73 M-143.46 -101.01 C-144 -101.2, -144.53 -101.4, -145.44 -101.73 M-145.44 -101.73 C-145.92 -101.86, -146.41 -101.98, -147.49 -102.26 M-145.44 -101.73 C-146.14 -101.91, -146.85 -102.09, -147.49 -102.26 M-147.49 -102.26 C-148.31 -102.38, -149.13 -102.51, -149.62 -102.59 M-147.49 -102.26 C-147.93 -102.33, -148.37 -102.39, -149.62 -102.59 M-149.62 -102.59 C-150.2 -102.61, -150.77 -102.64, -151.82 -102.7 M-149.62 -102.59 C-150.39 -102.62, -151.16 -102.66, -151.82 -102.7 M-151.82 -102.7 C-152.13 -102.69, -152.44 -102.68, -153.1 -102.66 M-151.82 -102.7 C-152.13 -102.69, -152.43 -102.68, -153.1 -102.66 M-153.1 -102.66 C-153.4 -102.63, -153.69 -102.61, -154.38 -102.54 M-153.1 -102.66 C-153.48 -102.62, -153.85 -102.59, -154.38 -102.54 M-154.38 -102.54 C-154.74 -102.49, -155.11 -102.43, -155.63 -102.36 M-154.38 -102.54 C-154.69 -102.5, -155.01 -102.45, -155.63 -102.36 M-155.63 -102.36 C-155.97 -102.28, -156.31 -102.21, -156.87 -102.09 M-155.63 -102.36 C-156.09 -102.26, -156.54 -102.16, -156.87 -102.09 M-156.87 -102.09 C-157.16 -102.01, -157.46 -101.93, -158.09 -101.76 M-156.87 -102.09 C-157.31 -101.97, -157.75 -101.85, -158.09 -101.76 M-158.09 -101.76 C-158.43 -101.64, -158.77 -101.53, -159.28 -101.36 M-158.09 -101.76 C-158.34 -101.67, -158.6 -101.59, -159.28 -101.36 M-159.28 -101.36 C-159.71 -101.18, -160.14 -101.01, -160.44 -100.89 M-159.28 -101.36 C-159.66 -101.2, -160.05 -101.05, -160.44 -100.89 M-160.44 -100.89 C-160.82 -100.71, -161.2 -100.53, -161.58 -100.35 M-160.44 -100.89 C-160.8 -100.72, -161.15 -100.55, -161.58 -100.35 M-161.58 -100.35 C-161.93 -100.15, -162.28 -99.96, -162.68 -99.74 M-161.58 -100.35 C-161.96 -100.13, -162.34 -99.92, -162.68 -99.74 M-162.68 -99.74 C-162.92 -99.59, -163.16 -99.44, -163.74 -99.07 M-162.68 -99.74 C-163.07 -99.49, -163.47 -99.24, -163.74 -99.07 M-163.74 -99.07 C-164.04 -98.85, -164.34 -98.64, -164.77 -98.33 M-163.74 -99.07 C-164 -98.88, -164.26 -98.7, -164.77 -98.33 M-164.77 -98.33 C-165.11 -98.05, -165.46 -97.77, -165.75 -97.54 M-164.77 -98.33 C-165.11 -98.06, -165.45 -97.78, -165.75 -97.54 M-165.75 -97.54 C-165.98 -97.33, -166.21 -97.11, -166.68 -96.68 M-165.75 -97.54 C-166.04 -97.27, -166.33 -97.01, -166.68 -96.68 M-166.68 -96.68 C-166.91 -96.45, -167.14 -96.21, -167.57 -95.76 M-166.68 -96.68 C-166.89 -96.47, -167.09 -96.26, -167.57 -95.76 M-167.57 -95.76 C-167.84 -95.46, -168.1 -95.15, -168.41 -94.79 M-167.57 -95.76 C-167.77 -95.54, -167.96 -95.32, -168.41 -94.79 M-168.41 -94.79 C-168.61 -94.54, -168.8 -94.28, -169.2 -93.76 M-168.41 -94.79 C-168.6 -94.54, -168.79 -94.3, -169.2 -93.76 M-169.2 -93.76 C-169.49 -93.97, -169.78 -94.18, -169.96 -94.31 M-169.2 -93.76 C-169.47 -93.95, -169.74 -94.15, -169.96 -94.31 M-169.96 -94.31 C-170.28 -94.49, -170.59 -94.68, -170.76 -94.78 M-169.96 -94.31 C-170.15 -94.42, -170.35 -94.54, -170.76 -94.78 M-170.76 -94.78 C-171.02 -94.91, -171.27 -95.03, -171.6 -95.19 M-170.76 -94.78 C-170.99 -94.89, -171.22 -95, -171.6 -95.19 M-171.6 -95.19 C-171.88 -95.3, -172.17 -95.41, -172.46 -95.52 M-171.6 -95.19 C-171.89 -95.3, -172.19 -95.41, -172.46 -95.52 M-172.46 -95.52 C-172.73 -95.6, -172.99 -95.67, -173.35 -95.78 M-172.46 -95.52 C-172.64 -95.57, -172.82 -95.63, -173.35 -95.78 M-173.35 -95.78 C-173.59 -95.83, -173.82 -95.88, -174.27 -95.97 M-173.35 -95.78 C-173.6 -95.83, -173.85 -95.88, -174.27 -95.97 M-174.27 -95.97 C-174.57 -96, -174.88 -96.04, -175.2 -96.08 M-174.27 -95.97 C-174.64 -96.01, -175.01 -96.06, -175.2 -96.08 M-175.2 -96.08 C-175.5 -96.09, -175.81 -96.1, -176.15 -96.12 M-175.2 -96.08 C-175.41 -96.09, -175.61 -96.1, -176.15 -96.12 M-176.15 -96.12 C-176.55 -96.1, -176.95 -96.08, -177.31 -96.06 M-176.15 -96.12 C-176.56 -96.1, -176.97 -96.08, -177.31 -96.06 M-177.31 -96.06 C-177.59 -96.02, -177.88 -95.97, -178.44 -95.89 M-177.31 -96.06 C-177.74 -95.99, -178.18 -95.93, -178.44 -95.89 M-178.44 -95.89 C-178.71 -95.82, -178.98 -95.75, -179.53 -95.61 M-178.44 -95.89 C-178.67 -95.83, -178.89 -95.77, -179.53 -95.61 M-179.53 -95.61 C-179.87 -95.48, -180.22 -95.35, -180.58 -95.22 M-179.53 -95.61 C-179.77 -95.52, -180.01 -95.43, -180.58 -95.22 M-180.58 -95.22 C-180.87 -95.08, -181.17 -94.94, -181.57 -94.74 M-180.58 -95.22 C-180.9 -95.07, -181.23 -94.91, -181.57 -94.74 M-181.57 -94.74 C-181.95 -94.52, -182.32 -94.29, -182.52 -94.17 M-181.57 -94.74 C-181.8 -94.61, -182.02 -94.47, -182.52 -94.17 M-182.52 -94.17 C-182.8 -93.96, -183.09 -93.75, -183.4 -93.52 M-182.52 -94.17 C-182.8 -93.96, -183.08 -93.75, -183.4 -93.52 M-183.4 -93.52 C-183.61 -93.32, -183.83 -93.12, -184.21 -92.78 M-183.4 -93.52 C-183.67 -93.27, -183.94 -93.02, -184.21 -92.78 M-184.21 -92.78 C-184.44 -92.52, -184.68 -92.27, -184.95 -91.97 M-184.21 -92.78 C-184.38 -92.6, -184.55 -92.41, -184.95 -91.97 M-184.95 -91.97 C-185.15 -91.7, -185.35 -91.43, -185.61 -91.09 M-184.95 -91.97 C-185.14 -91.72, -185.33 -91.46, -185.61 -91.09 M-185.61 -91.09 C-185.74 -90.88, -185.87 -90.66, -186.18 -90.15 M-185.61 -91.09 C-185.8 -90.77, -186 -90.45, -186.18 -90.15 M-186.18 -90.15 C-186.3 -89.9, -186.42 -89.65, -186.66 -89.15 M-186.18 -90.15 C-186.33 -89.85, -186.47 -89.55, -186.66 -89.15 M-186.66 -89.15 C-186.81 -88.77, -186.95 -88.38, -187.05 -88.1 M-186.66 -89.15 C-186.81 -88.76, -186.95 -88.37, -187.05 -88.1 M-187.05 -88.1 C-187.16 -87.67, -187.27 -87.23, -187.33 -87.01 M-187.05 -88.1 C-187.11 -87.88, -187.17 -87.65, -187.33 -87.01 M-187.33 -87.01 C-187.37 -86.76, -187.41 -86.51, -187.51 -85.87 M-187.33 -87.01 C-187.38 -86.68, -187.43 -86.36, -187.51 -85.87 M-187.51 -85.87 C-187.53 -85.4, -187.55 -84.94, -187.57 -84.7 M-187.51 -85.87 C-187.52 -85.54, -187.54 -85.2, -187.57 -84.7 M-187.57 -84.7 C-187.56 -84.48, -187.55 -84.26, -187.52 -83.68 M-187.57 -84.7 C-187.55 -84.42, -187.54 -84.15, -187.52 -83.68 M-187.52 -83.68 C-187.48 -83.4, -187.45 -83.12, -187.39 -82.67 M-187.52 -83.68 C-187.49 -83.43, -187.46 -83.18, -187.39 -82.67 M-187.39 -82.67 C-187.31 -82.31, -187.23 -81.96, -187.17 -81.68 M-187.39 -82.67 C-187.31 -82.31, -187.23 -81.96, -187.17 -81.68 M-187.17 -81.68 C-187.11 -81.47, -187.05 -81.27, -186.88 -80.73 M-187.17 -81.68 C-187.1 -81.44, -187.03 -81.21, -186.88 -80.73 M-186.88 -80.73 C-187.12 -80.63, -187.36 -80.54, -187.98 -80.3 M-186.88 -80.73 C-187.13 -80.63, -187.38 -80.53, -187.98 -80.3 M-187.98 -80.3 C-188.36 -80.12, -188.74 -79.93, -189.02 -79.79 M-187.98 -80.3 C-188.26 -80.16, -188.54 -80.02, -189.02 -79.79 M-189.02 -79.79 C-189.34 -79.61, -189.65 -79.42, -190.02 -79.21 M-189.02 -79.79 C-189.4 -79.57, -189.78 -79.35, -190.02 -79.21 M-190.02 -79.21 C-190.23 -79.06, -190.44 -78.91, -190.96 -78.55 M-190.02 -79.21 C-190.35 -78.98, -190.67 -78.75, -190.96 -78.55 M-190.96 -78.55 C-191.26 -78.3, -191.57 -78.05, -191.84 -77.83 M-190.96 -78.55 C-191.27 -78.29, -191.59 -78.03, -191.84 -77.83 M-191.84 -77.83 C-192.06 -77.61, -192.28 -77.4, -192.66 -77.04 M-191.84 -77.83 C-192.12 -77.56, -192.4 -77.29, -192.66 -77.04 M-192.66 -77.04 C-192.93 -76.74, -193.2 -76.44, -193.42 -76.19 M-192.66 -77.04 C-192.93 -76.74, -193.2 -76.44, -193.42 -76.19 M-193.42 -76.19 C-193.65 -75.89, -193.88 -75.59, -194.11 -75.29 M-193.42 -76.19 C-193.66 -75.87, -193.91 -75.56, -194.11 -75.29 M-194.11 -75.29 C-194.34 -74.95, -194.56 -74.61, -194.74 -74.34 M-194.11 -75.29 C-194.35 -74.93, -194.58 -74.57, -194.74 -74.34 M-194.74 -74.34 C-194.85 -74.13, -194.97 -73.92, -195.29 -73.34 M-194.74 -74.34 C-194.91 -74.02, -195.08 -73.71, -195.29 -73.34 M-195.29 -73.34 C-195.44 -72.99, -195.6 -72.64, -195.76 -72.3 M-195.29 -73.34 C-195.42 -73.04, -195.56 -72.74, -195.76 -72.3 M-195.76 -72.3 C-195.86 -72.02, -195.96 -71.74, -196.15 -71.22 M-195.76 -72.3 C-195.84 -72.07, -195.93 -71.84, -196.15 -71.22 M-196.15 -71.22 C-196.22 -70.98, -196.29 -70.73, -196.46 -70.11 M-196.15 -71.22 C-196.27 -70.79, -196.39 -70.36, -196.46 -70.11 M-196.46 -70.11 C-196.55 -69.66, -196.65 -69.21, -196.69 -68.98 M-196.46 -70.11 C-196.52 -69.82, -196.58 -69.53, -196.69 -68.98 M-196.69 -68.98 C-196.74 -68.6, -196.78 -68.23, -196.83 -67.82 M-196.69 -68.98 C-196.72 -68.74, -196.75 -68.51, -196.83 -67.82 M-196.83 -67.82 C-196.84 -67.45, -196.86 -67.08, -196.88 -66.64 M-196.83 -67.82 C-196.84 -67.46, -196.86 -67.11, -196.88 -66.64 M-196.88 -66.64 C-196.86 -66.28, -196.85 -65.92, -196.83 -65.45 M-196.88 -66.64 C-196.86 -66.27, -196.85 -65.91, -196.83 -65.45 M-196.83 -65.45 C-196.8 -65.16, -196.76 -64.87, -196.69 -64.28 M-196.83 -65.45 C-196.8 -65.18, -196.77 -64.92, -196.69 -64.28 M-196.69 -64.28 C-196.61 -63.85, -196.52 -63.41, -196.47 -63.14 M-196.69 -64.28 C-196.63 -63.94, -196.56 -63.59, -196.47 -63.14 M-196.47 -63.14 C-196.4 -62.91, -196.34 -62.67, -196.16 -62.04 M-196.47 -63.14 C-196.36 -62.73, -196.24 -62.32, -196.16 -62.04 M-196.16 -62.04 C-196.02 -61.65, -195.88 -61.26, -195.77 -60.96 M-196.16 -62.04 C-196.07 -61.78, -195.97 -61.52, -195.77 -60.96 M-195.77 -60.96 C-195.6 -60.57, -195.42 -60.18, -195.3 -59.92 M-195.77 -60.96 C-195.64 -60.66, -195.5 -60.36, -195.3 -59.92 M-195.3 -59.92 C-195.1 -59.54, -194.89 -59.16, -194.76 -58.93 M-195.3 -59.92 C-195.19 -59.72, -195.08 -59.52, -194.76 -58.93 M-194.76 -58.93 C-194.59 -58.67, -194.42 -58.41, -194.15 -57.98 M-194.76 -58.93 C-194.52 -58.57, -194.29 -58.2, -194.15 -57.98 M-194.15 -57.98 C-193.9 -57.65, -193.65 -57.33, -193.46 -57.08 M-194.15 -57.98 C-193.93 -57.7, -193.72 -57.43, -193.46 -57.08 M-193.46 -57.08 C-193.16 -56.74, -192.86 -56.41, -192.71 -56.23 M-193.46 -57.08 C-193.24 -56.83, -193.01 -56.58, -192.71 -56.23 M-192.71 -56.23 C-192.4 -55.93, -192.09 -55.63, -191.89 -55.44 M-192.71 -56.23 C-192.45 -55.99, -192.2 -55.74, -191.89 -55.44 M-191.89 -55.44 C-191.71 -55.3, -191.53 -55.15, -191.01 -54.72 M-191.89 -55.44 C-191.62 -55.22, -191.36 -55, -191.01 -54.72 M-191.01 -54.72 C-190.76 -54.54, -190.5 -54.35, -190.07 -54.05 M-191.01 -54.72 C-190.81 -54.58, -190.62 -54.44, -190.07 -54.05 M-190.07 -54.05 C-189.76 -53.86, -189.44 -53.67, -189.08 -53.46 M-190.07 -54.05 C-189.76 -53.86, -189.45 -53.67, -189.08 -53.46 M-189.08 -53.46 C-188.83 -53.33, -188.58 -53.2, -188.04 -52.93 M-189.08 -53.46 C-188.83 -53.33, -188.59 -53.21, -188.04 -52.93 M-188.04 -52.93 C-187.69 -52.79, -187.33 -52.65, -186.95 -52.49 M-188.04 -52.93 C-187.72 -52.8, -187.41 -52.68, -186.95 -52.49 M-186.95 -52.49 C-187.02 -51.98, -187.09 -51.47, -187.23 -50.49 M-186.95 -52.49 C-187.02 -51.96, -187.09 -51.43, -187.23 -50.49 M-187.23 -50.49 C-187.26 -49.73, -187.29 -48.97, -187.32 -48.39 M-187.23 -50.49 C-187.24 -50.05, -187.26 -49.61, -187.32 -48.39 M-187.32 -48.39 C-187.29 -47.88, -187.27 -47.38, -187.21 -46.21 M-187.32 -48.39 C-187.27 -47.52, -187.23 -46.66, -187.21 -46.21 M-187.21 -46.21 C-187.1 -45.48, -186.99 -44.76, -186.88 -44.09 M-187.21 -46.21 C-187.11 -45.56, -187.01 -44.92, -186.88 -44.09 M-186.88 -44.09 C-186.74 -43.53, -186.6 -42.98, -186.35 -42.04 M-186.88 -44.09 C-186.68 -43.31, -186.48 -42.53, -186.35 -42.04 M-186.35 -42.04 C-186.11 -41.38, -185.87 -40.72, -185.63 -40.07 M-186.35 -42.04 C-186.18 -41.58, -186.01 -41.12, -185.63 -40.07 M-185.63 -40.07 C-185.44 -39.67, -185.24 -39.26, -184.73 -38.2 M-185.63 -40.07 C-185.27 -39.33, -184.91 -38.58, -184.73 -38.2 M-184.73 -38.2 C-184.32 -37.54, -183.92 -36.88, -183.65 -36.44 M-184.73 -38.2 C-184.4 -37.66, -184.07 -37.12, -183.65 -36.44 M-183.65 -36.44 C-183.3 -35.96, -182.95 -35.49, -182.42 -34.79 M-183.65 -36.44 C-183.32 -35.99, -182.99 -35.55, -182.42 -34.79 M-182.42 -34.79 C-182.06 -34.4, -181.71 -34.01, -181.03 -33.26 M-182.42 -34.79 C-182.07 -34.4, -181.72 -34.02, -181.03 -33.26 M-181.03 -33.26 C-180.65 -32.91, -180.26 -32.56, -179.51 -31.88 M-181.03 -33.26 C-180.65 -32.92, -180.27 -32.57, -179.51 -31.88 M-179.51 -31.88 C-178.96 -31.46, -178.4 -31.05, -177.86 -30.65 M-179.51 -31.88 C-179.09 -31.56, -178.67 -31.25, -177.86 -30.65 M-177.86 -30.65 C-177.4 -30.36, -176.93 -30.08, -176.1 -29.57 M-177.86 -30.65 C-177.44 -30.39, -177.02 -30.13, -176.1 -29.57 M-176.1 -29.57 C-175.47 -29.27, -174.83 -28.96, -174.23 -28.67 M-176.1 -29.57 C-175.49 -29.28, -174.88 -28.98, -174.23 -28.67 M-174.23 -28.67 C-173.8 -28.51, -173.38 -28.36, -172.26 -27.95 M-174.23 -28.67 C-173.51 -28.4, -172.78 -28.14, -172.26 -27.95 M-172.26 -27.95 C-171.56 -27.76, -170.86 -27.58, -170.21 -27.42 M-172.26 -27.95 C-171.61 -27.78, -170.96 -27.61, -170.21 -27.42 M-170.21 -27.42 C-169.42 -27.3, -168.64 -27.17, -168.09 -27.09 M-170.21 -27.42 C-169.78 -27.35, -169.34 -27.28, -168.09 -27.09 M-168.09 -27.09 C-167.23 -27.05, -166.37 -27, -165.91 -26.98 M-168.09 -27.09 C-167.4 -27.06, -166.71 -27.02, -165.91 -26.98 M-165.91 -26.98 C-165.44 -26.99, -164.97 -27.01, -164.61 -27.02 M-165.91 -26.98 C-165.44 -26.99, -164.98 -27.01, -164.61 -27.02 M-164.61 -27.02 C-164.22 -27.05, -163.83 -27.09, -163.33 -27.14 M-164.61 -27.02 C-164.29 -27.05, -163.97 -27.08, -163.33 -27.14 M-163.33 -27.14 C-162.86 -27.21, -162.4 -27.28, -162.07 -27.33 M-163.33 -27.14 C-162.98 -27.19, -162.64 -27.24, -162.07 -27.33 M-162.07 -27.33 C-161.77 -27.39, -161.47 -27.45, -160.83 -27.59 M-162.07 -27.33 C-161.72 -27.4, -161.37 -27.47, -160.83 -27.59 M-160.83 -27.59 C-160.4 -27.71, -159.97 -27.83, -159.61 -27.93 M-160.83 -27.59 C-160.54 -27.67, -160.25 -27.75, -159.61 -27.93 M-159.61 -27.93 C-159.21 -28.06, -158.81 -28.2, -158.42 -28.34 M-159.61 -27.93 C-159.36 -28.01, -159.1 -28.1, -158.42 -28.34 M-158.42 -28.34 C-158.16 -28.44, -157.9 -28.55, -157.26 -28.81 M-158.42 -28.34 C-158 -28.51, -157.58 -28.68, -157.26 -28.81 M-157.26 -28.81 C-156.93 -28.97, -156.6 -29.12, -156.12 -29.35 M-157.26 -28.81 C-156.94 -28.96, -156.62 -29.12, -156.12 -29.35 M-156.12 -29.35 C-155.84 -29.51, -155.56 -29.67, -155.03 -29.96 M-156.12 -29.35 C-155.9 -29.48, -155.67 -29.61, -155.03 -29.96 M-155.03 -29.96 C-154.65 -30.2, -154.28 -30.44, -153.97 -30.63 M-155.03 -29.96 C-154.64 -30.21, -154.25 -30.46, -153.97 -30.63 M-153.97 -30.63 C-153.66 -30.85, -153.36 -31.07, -152.95 -31.37 M-153.97 -30.63 C-153.59 -30.91, -153.21 -31.18, -152.95 -31.37 M-152.95 -31.37 C-152.6 -31.65, -152.26 -31.93, -151.97 -32.16 M-152.95 -31.37 C-152.57 -31.67, -152.2 -31.98, -151.97 -32.16 M-151.97 -32.16 C-151.65 -32.46, -151.33 -32.75, -151.04 -33.02 M-151.97 -32.16 C-151.7 -32.41, -151.43 -32.66, -151.04 -33.02 M-151.04 -33.02 C-150.8 -33.26, -150.56 -33.51, -150.15 -33.93 M-151.04 -33.02 C-150.79 -33.27, -150.54 -33.53, -150.15 -33.93 M-150.15 -33.93 C-149.85 -34.27, -149.55 -34.62, -149.31 -34.9 M-150.15 -33.93 C-149.96 -34.15, -149.77 -34.36, -149.31 -34.9 M-149.31 -34.9 C-149.12 -35.15, -148.92 -35.41, -148.53 -35.92 M-149.31 -34.9 C-149.12 -35.15, -148.93 -35.4, -148.53 -35.92 M-148.53 -35.92 C-148.33 -35.77, -148.12 -35.62, -147.76 -35.37 M-148.53 -35.92 C-148.31 -35.76, -148.09 -35.6, -147.76 -35.37 M-147.76 -35.37 C-147.6 -35.27, -147.44 -35.17, -146.95 -34.88 M-147.76 -35.37 C-147.52 -35.22, -147.27 -35.07, -146.95 -34.88 M-146.95 -34.88 C-146.65 -34.73, -146.34 -34.58, -146.11 -34.47 M-146.95 -34.88 C-146.76 -34.79, -146.58 -34.7, -146.11 -34.47 M-146.11 -34.47 C-145.77 -34.33, -145.42 -34.2, -145.23 -34.13 M-146.11 -34.47 C-145.82 -34.36, -145.54 -34.25, -145.23 -34.13 M-145.23 -34.13 C-144.97 -34.04, -144.7 -33.96, -144.33 -33.85 M-145.23 -34.13 C-145.04 -34.07, -144.84 -34.01, -144.33 -33.85 M-144.33 -33.85 C-144.09 -33.8, -143.85 -33.75, -143.41 -33.66 M-144.33 -33.85 C-144.14 -33.81, -143.95 -33.77, -143.41 -33.66 M-143.41 -33.66 C-143.14 -33.62, -142.88 -33.59, -142.47 -33.54 M-143.41 -33.66 C-143.14 -33.62, -142.87 -33.59, -142.47 -33.54 M-142.47 -33.54 C-142.09 -33.52, -141.72 -33.51, -141.52 -33.5 M-142.47 -33.54 C-142.19 -33.53, -141.92 -33.51, -141.52 -33.5 M-141.52 -33.5 C-141.18 -33.51, -140.84 -33.53, -140.36 -33.56 M-141.52 -33.5 C-141.19 -33.51, -140.86 -33.53, -140.36 -33.56 M-140.36 -33.56 C-139.95 -33.62, -139.55 -33.68, -139.23 -33.73 M-140.36 -33.56 C-139.97 -33.61, -139.58 -33.67, -139.23 -33.73 M-139.23 -33.73 C-138.93 -33.8, -138.63 -33.88, -138.13 -34.01 M-139.23 -33.73 C-138.88 -33.82, -138.54 -33.9, -138.13 -34.01 M-138.13 -34.01 C-137.85 -34.11, -137.57 -34.21, -137.09 -34.39 M-138.13 -34.01 C-137.73 -34.16, -137.32 -34.31, -137.09 -34.39 M-137.09 -34.39 C-136.77 -34.55, -136.44 -34.7, -136.09 -34.87 M-137.09 -34.39 C-136.79 -34.54, -136.48 -34.68, -136.09 -34.87 M-136.09 -34.87 C-135.89 -34.99, -135.69 -35.11, -135.15 -35.44 M-136.09 -34.87 C-135.83 -35.03, -135.56 -35.19, -135.15 -35.44 M-135.15 -35.44 C-134.88 -35.64, -134.61 -35.84, -134.27 -36.1 M-135.15 -35.44 C-134.95 -35.59, -134.75 -35.74, -134.27 -36.1 M-134.27 -36.1 C-134.08 -36.27, -133.9 -36.43, -133.46 -36.83 M-134.27 -36.1 C-134.03 -36.32, -133.78 -36.53, -133.46 -36.83 M-133.46 -36.83 C-133.27 -37.04, -133.08 -37.24, -132.72 -37.64 M-133.46 -36.83 C-133.25 -37.06, -133.04 -37.29, -132.72 -37.64 M-132.72 -37.64 C-132.5 -37.94, -132.28 -38.23, -132.06 -38.52 M-132.72 -37.64 C-132.47 -37.97, -132.22 -38.3, -132.06 -38.52 M-132.06 -38.52 C-131.86 -38.85, -131.66 -39.17, -131.48 -39.46 M-132.06 -38.52 C-131.87 -38.83, -131.68 -39.14, -131.48 -39.46 M-131.48 -39.46 C-131.34 -39.75, -131.2 -40.05, -131 -40.46 M-131.48 -39.46 C-131.35 -39.73, -131.22 -40, -131 -40.46 M-131 -40.46 C-130.87 -40.82, -130.74 -41.18, -130.61 -41.51 M-131 -40.46 C-130.91 -40.71, -130.82 -40.96, -130.61 -41.51 M-130.61 -41.51 C-130.55 -41.77, -130.48 -42.04, -130.33 -42.61 M-130.61 -41.51 C-130.5 -41.94, -130.39 -42.36, -130.33 -42.61 M-130.33 -42.61 C-130.27 -43.01, -130.21 -43.41, -130.16 -43.74 M-130.33 -42.61 C-130.27 -42.99, -130.21 -43.37, -130.16 -43.74 M-130.16 -43.74 C-130.14 -44.06, -130.12 -44.38, -130.1 -44.92 M-130.16 -43.74 C-130.13 -44.17, -130.11 -44.6, -130.1 -44.92 M-130.1 -44.92 C-130.11 -45.18, -130.12 -45.44, -130.14 -45.94 M-130.1 -44.92 C-130.11 -45.3, -130.13 -45.69, -130.14 -45.94 M-130.14 -45.94 C-130.17 -46.18, -130.21 -46.43, -130.28 -46.95 M-130.14 -45.94 C-130.18 -46.22, -130.22 -46.5, -130.28 -46.95 M-130.28 -46.95 C-130.34 -47.24, -130.4 -47.52, -130.49 -47.94 M-130.28 -46.95 C-130.35 -47.3, -130.43 -47.66, -130.49 -47.94 M-130.49 -47.94 C-130.6 -48.3, -130.71 -48.66, -130.78 -48.89 M-130.49 -47.94 C-130.56 -48.17, -130.63 -48.41, -130.78 -48.89 M-130.78 -48.89 C-130.5 -49, -130.22 -49.11, -129.71 -49.33 M-130.78 -48.89 C-130.45 -49.02, -130.11 -49.16, -129.71 -49.33 M-129.71 -49.33 C-129.44 -49.46, -129.17 -49.59, -128.68 -49.84 M-129.71 -49.33 C-129.49 -49.44, -129.26 -49.55, -128.68 -49.84 M-128.68 -49.84 C-128.36 -50.03, -128.04 -50.23, -127.7 -50.44 M-128.68 -49.84 C-128.38 -50.02, -128.08 -50.2, -127.7 -50.44 M-127.7 -50.44 C-127.48 -50.59, -127.27 -50.74, -126.77 -51.1 M-127.7 -50.44 C-127.35 -50.68, -127 -50.93, -126.77 -51.1 M-126.77 -51.1 C-126.58 -51.26, -126.39 -51.41, -125.89 -51.83 M-126.77 -51.1 C-126.55 -51.28, -126.33 -51.46, -125.89 -51.83 M-125.89 -51.83 C-125.73 -51.99, -125.56 -52.15, -125.07 -52.62 M-125.89 -51.83 C-125.6 -52.11, -125.31 -52.39, -125.07 -52.62 M-125.07 -52.62 C-124.91 -52.81, -124.74 -53, -124.32 -53.48 M-125.07 -52.62 C-124.86 -52.87, -124.64 -53.11, -124.32 -53.48 M-124.32 -53.48 C-124.15 -53.69, -123.99 -53.91, -123.63 -54.38 M-124.32 -53.48 C-124.17 -53.67, -124.03 -53.86, -123.63 -54.38 M-123.63 -54.38 C-123.38 -54.75, -123.14 -55.13, -123 -55.34 M-123.63 -54.38 C-123.5 -54.58, -123.37 -54.77, -123 -55.34 M-123 -55.34 C-122.79 -55.72, -122.58 -56.1, -122.45 -56.34 M-123 -55.34 C-122.86 -55.59, -122.73 -55.84, -122.45 -56.34 M-122.45 -56.34 C-122.29 -56.69, -122.13 -57.04, -121.98 -57.38 M-122.45 -56.34 C-122.35 -56.56, -122.24 -56.79, -121.98 -57.38 M-121.98 -57.38 C-121.89 -57.62, -121.8 -57.85, -121.58 -58.45 M-121.98 -57.38 C-121.89 -57.61, -121.81 -57.84, -121.58 -58.45 M-121.58 -58.45 C-121.5 -58.73, -121.43 -59, -121.27 -59.56 M-121.58 -58.45 C-121.46 -58.88, -121.34 -59.31, -121.27 -59.56 M-121.27 -59.56 C-121.19 -59.92, -121.12 -60.28, -121.04 -60.7 M-121.27 -59.56 C-121.2 -59.88, -121.14 -60.19, -121.04 -60.7 M-121.04 -60.7 C-121 -60.99, -120.97 -61.28, -120.9 -61.86 M-121.04 -60.7 C-121.01 -60.94, -120.98 -61.18, -120.9 -61.86 M-120.9 -61.86 C-120.88 -62.32, -120.86 -62.78, -120.85 -63.04 M-120.9 -61.86 C-120.89 -62.16, -120.87 -62.45, -120.85 -63.04 M-120.85 -63.04 C-120.85 -63.04, -120.85 -63.04, -120.85 -63.04 M-120.85 -63.04 C-120.85 -63.04, -120.85 -63.04, -120.85 -63.04 M-120.85 -63.04 C-120.85 -63.04, -120.85 -63.04, -120.85 -63.04 M-120.85 -63.04 C-120.85 -63.04, -120.85 -63.04, -120.85 -63.04" stroke="#00000000" stroke-width="1" fill="none"></path></g></g><g stroke-linecap="round"><g transform="translate(737.9245525594829 106.4253603944257) rotate(0 10.34915349678488 -59.14656343510296)" fill-rule="evenodd"><path d="M-4.42 -71.42 C-4.42 -71.42, -4.42 -71.42, -4.42 -71.42 M-4.42 -71.42 C-4.42 -71.42, -4.42 -71.42, -4.42 -71.42 M-2.72 -67.29 C-0.49 -69.85, 1.74 -72.41, 5.81 -77.1 M-2.72 -67.29 C-0.51 -69.83, 1.7 -72.36, 5.81 -77.1 M-8.23 -54.85 C-2.62 -61.3, 2.98 -67.75, 11.45 -77.49 M-8.23 -54.85 C-3.47 -60.32, 1.29 -65.8, 11.45 -77.49 M-6.52 -50.72 C-1.85 -56.09, 2.82 -61.46, 16.44 -77.13 M-6.52 -50.72 C-0.03 -58.19, 6.47 -65.66, 16.44 -77.13 M-4.16 -47.34 C2.41 -54.89, 8.97 -62.45, 20.12 -75.26 M-4.16 -47.34 C4.02 -56.74, 12.19 -66.15, 20.12 -75.26 M-0.48 -45.47 C4.65 -51.37, 9.78 -57.28, 23.14 -72.64 M-0.48 -45.47 C8.8 -56.15, 18.08 -66.83, 23.14 -72.64 M3.19 -43.6 C8.41 -49.6, 13.62 -55.6, 26.15 -70.02 M3.19 -43.6 C10.12 -51.57, 17.04 -59.53, 26.15 -70.02 M6.87 -41.73 C13.39 -49.23, 19.91 -56.73, 27.86 -65.88 M6.87 -41.73 C15.21 -51.33, 23.55 -60.92, 27.86 -65.88 M10.54 -39.86 C15.89 -46.01, 21.23 -52.16, 29.57 -61.75 M10.54 -39.86 C16.73 -46.99, 22.93 -54.11, 29.57 -61.75 M-4.93 -47.68 C-4.93 -47.68, -4.93 -47.68, -4.93 -47.68 M-4.93 -47.68 C-4.93 -47.68, -4.93 -47.68, -4.93 -47.68 M-2.3 -50.7 C-4.69 -52.78, -7.08 -54.86, -8.34 -55.95 M-2.3 -50.7 C-4.48 -52.59, -6.65 -54.48, -8.34 -55.95 M13.15 -42.57 C5.95 -48.82, -1.25 -55.08, -7.23 -60.28 M13.15 -42.57 C6.37 -48.46, -0.41 -54.36, -7.23 -60.28 M16.53 -44.93 C8.08 -52.28, -0.37 -59.62, -6.11 -64.61 M16.53 -44.93 C9.29 -51.23, 2.04 -57.52, -6.11 -64.61 M19.91 -47.29 C12.3 -53.91, 4.69 -60.52, -5 -68.94 M19.91 -47.29 C12.63 -53.62, 5.34 -59.96, -5 -68.94 M22.53 -50.31 C16.07 -55.93, 9.6 -61.55, -3.13 -72.62 M22.53 -50.31 C15.31 -56.59, 8.09 -62.87, -3.13 -72.62 M25.91 -52.67 C16.87 -60.54, 7.82 -68.4, -0.5 -75.64 M25.91 -52.67 C20.54 -57.34, 15.17 -62.01, -0.5 -75.64 M29.29 -55.04 C21.37 -61.92, 13.46 -68.8, 3.63 -77.34 M29.29 -55.04 C22 -61.38, 14.71 -67.72, 3.63 -77.34 M29.65 -60.02 C24.17 -64.79, 18.69 -69.55, 8.52 -78.39 M29.65 -60.02 C23.61 -65.27, 17.57 -70.52, 8.52 -78.39 M27.75 -66.98 C24.65 -69.67, 21.55 -72.37, 15.67 -77.48 M27.75 -66.98 C23.77 -70.44, 19.79 -73.9, 15.67 -77.48" stroke="#F4BD19" stroke-width="0.5" fill="none"></path><path d="M-5.23 -47.94 C-1.2 -46.1, 2.82 -44.26, 11.71 -40.19 M-5.23 -47.94 C1.29 -44.96, 7.81 -41.97, 11.71 -40.19 M11.71 -40.19 C17.5 -45.26, 23.29 -50.34, 28.84 -55.21 M11.71 -40.19 C17.14 -44.94, 22.56 -49.7, 28.84 -55.21 M28.84 -55.21 C28.84 -55.21, 28.84 -55.21, 28.84 -55.21 M28.84 -55.21 C28.84 -55.21, 28.84 -55.21, 28.84 -55.21 M28.84 -55.21 C28.93 -55.8, 29.02 -56.39, 29.12 -57.09 M28.84 -55.21 C28.92 -55.73, 29 -56.25, 29.12 -57.09 M29.12 -57.09 C29.16 -57.81, 29.19 -58.52, 29.22 -58.99 M29.12 -57.09 C29.16 -57.84, 29.2 -58.6, 29.22 -58.99 M29.22 -58.99 C29.19 -59.52, 29.16 -60.04, 29.12 -60.94 M29.22 -58.99 C29.19 -59.52, 29.16 -60.05, 29.12 -60.94 M29.12 -60.94 C29.02 -61.57, 28.93 -62.19, 28.83 -62.84 M29.12 -60.94 C29.01 -61.67, 28.9 -62.39, 28.83 -62.84 M28.83 -62.84 C28.67 -63.47, 28.5 -64.1, 28.36 -64.67 M28.83 -62.84 C28.7 -63.34, 28.57 -63.84, 28.36 -64.67 M28.36 -64.67 C28.14 -65.25, 27.93 -65.83, 27.71 -66.43 M28.36 -64.67 C28.11 -65.33, 27.87 -65.99, 27.71 -66.43 M27.71 -66.43 C27.46 -66.95, 27.21 -67.47, 26.91 -68.1 M27.71 -66.43 C27.53 -66.81, 27.35 -67.18, 26.91 -68.1 M26.91 -68.1 C26.64 -68.54, 26.37 -68.98, 25.95 -69.68 M26.91 -68.1 C26.62 -68.57, 26.34 -69.04, 25.95 -69.68 M25.95 -69.68 C25.52 -70.25, 25.1 -70.82, 24.85 -71.15 M25.95 -69.68 C25.7 -70.01, 25.45 -70.35, 24.85 -71.15 M24.85 -71.15 C24.47 -71.57, 24.08 -71.99, 23.62 -72.51 M24.85 -71.15 C24.56 -71.47, 24.27 -71.78, 23.62 -72.51 M23.62 -72.51 C23.31 -72.78, 23 -73.06, 22.26 -73.74 M23.62 -72.51 C23.15 -72.93, 22.68 -73.36, 22.26 -73.74 M22.26 -73.74 C21.68 -74.17, 21.11 -74.6, 20.79 -74.84 M22.26 -73.74 C21.92 -73.99, 21.59 -74.24, 20.79 -74.84 M20.79 -74.84 C20.29 -75.14, 19.8 -75.44, 19.21 -75.8 M20.79 -74.84 C20.46 -75.04, 20.14 -75.23, 19.21 -75.8 M19.21 -75.8 C18.66 -76.06, 18.12 -76.33, 17.54 -76.6 M19.21 -75.8 C18.73 -76.03, 18.25 -76.26, 17.54 -76.6 M17.54 -76.6 C16.88 -76.84, 16.22 -77.08, 15.78 -77.25 M17.54 -76.6 C16.85 -76.86, 16.15 -77.11, 15.78 -77.25 M15.78 -77.25 C15.11 -77.42, 14.44 -77.59, 13.95 -77.72 M15.78 -77.25 C15.08 -77.43, 14.38 -77.61, 13.95 -77.72 M13.95 -77.72 C13.24 -77.83, 12.53 -77.94, 12.05 -78.01 M13.95 -77.72 C13.44 -77.8, 12.94 -77.87, 12.05 -78.01 M12.05 -78.01 C11.29 -78.05, 10.52 -78.09, 10.1 -78.11 M12.05 -78.01 C11.57 -78.03, 11.08 -78.06, 10.1 -78.11 M10.1 -78.11 C9.73 -78.1, 9.35 -78.08, 8.92 -78.07 M10.1 -78.11 C9.7 -78.09, 9.3 -78.08, 8.92 -78.07 M8.92 -78.07 C8.54 -78.04, 8.16 -78, 7.75 -77.96 M8.92 -78.07 C8.48 -78.03, 8.03 -77.99, 7.75 -77.96 M7.75 -77.96 C7.48 -77.92, 7.2 -77.88, 6.6 -77.79 M7.75 -77.96 C7.43 -77.91, 7.1 -77.86, 6.6 -77.79 M6.6 -77.79 C6.24 -77.71, 5.88 -77.63, 5.46 -77.54 M6.6 -77.79 C6.33 -77.73, 6.07 -77.67, 5.46 -77.54 M5.46 -77.54 C5.23 -77.47, 4.99 -77.41, 4.35 -77.23 M5.46 -77.54 C5.09 -77.44, 4.72 -77.33, 4.35 -77.23 M4.35 -77.23 C3.95 -77.09, 3.55 -76.95, 3.26 -76.85 M4.35 -77.23 C4.1 -77.14, 3.85 -77.05, 3.26 -76.85 M3.26 -76.85 C2.88 -76.69, 2.5 -76.53, 2.2 -76.41 M3.26 -76.85 C2.94 -76.71, 2.61 -76.58, 2.2 -76.41 M2.2 -76.41 C1.88 -76.25, 1.56 -76.09, 1.17 -75.9 M2.2 -76.41 C1.84 -76.23, 1.47 -76.05, 1.17 -75.9 M1.17 -75.9 C0.94 -75.77, 0.71 -75.64, 0.17 -75.34 M1.17 -75.9 C0.81 -75.7, 0.46 -75.5, 0.17 -75.34 M0.17 -75.34 C-0.03 -75.2, -0.24 -75.07, -0.79 -74.71 M0.17 -75.34 C-0.16 -75.12, -0.5 -74.9, -0.79 -74.71 M-0.79 -74.71 C-0.98 -74.57, -1.17 -74.43, -1.71 -74.03 M-0.79 -74.71 C-0.99 -74.57, -1.18 -74.42, -1.71 -74.03 M-1.71 -74.03 C-2.05 -73.74, -2.39 -73.46, -2.6 -73.29 M-1.71 -74.03 C-2 -73.79, -2.29 -73.55, -2.6 -73.29 M-2.6 -73.29 C-2.87 -73.03, -3.14 -72.78, -3.44 -72.49 M-2.6 -73.29 C-2.9 -73, -3.21 -72.71, -3.44 -72.49 M-3.44 -72.49 C-3.73 -72.18, -4.02 -71.86, -4.23 -71.64 M-3.44 -72.49 C-3.71 -72.2, -3.99 -71.9, -4.23 -71.64 M-4.23 -71.64 C-4.4 -71.43, -4.58 -71.22, -4.97 -70.74 M-4.23 -71.64 C-4.42 -71.41, -4.62 -71.17, -4.97 -70.74 M-4.97 -70.74 C-5.22 -70.41, -5.46 -70.07, -5.66 -69.79 M-4.97 -70.74 C-5.15 -70.49, -5.33 -70.25, -5.66 -69.79 M-5.66 -69.79 C-6.38 -66.07, -7.1 -62.35, -8.52 -55.02 M-5.66 -69.79 C-6.58 -65.06, -7.49 -60.33, -8.52 -55.02 M-8.52 -55.02 C-7.37 -52.55, -6.22 -50.08, -5.23 -47.94 M-8.52 -55.02 C-7.7 -53.26, -6.88 -51.49, -5.23 -47.94 M-5.23 -47.94 C-5.23 -47.94, -5.23 -47.94, -5.23 -47.94 M-5.23 -47.94 C-5.23 -47.94, -5.23 -47.94, -5.23 -47.94 M-5.23 -47.94 C-5.23 -47.94, -5.23 -47.94, -5.23 -47.94 M-5.23 -47.94 C-5.23 -47.94, -5.23 -47.94, -5.23 -47.94" stroke="#f4bd19" stroke-width="1" fill="none"></path></g></g><g stroke-linecap="round"><g transform="translate(715.7239454020619 100.38950047730515) rotate(0 17.965218276076143 -20.000540046440335)" fill-rule="evenodd"><path d="M-0.4 -24.2 C-0.4 -24.2, -0.4 -24.2, -0.4 -24.2 M-0.4 -24.2 C-0.4 -24.2, -0.4 -24.2, -0.4 -24.2 M-0.66 -17.8 C3.18 -22.21, 7.01 -26.62, 17.05 -38.18 M-0.66 -17.8 C3.82 -22.95, 8.31 -28.11, 17.05 -38.18 M1.05 -13.66 C5.87 -19.21, 10.69 -24.76, 20.73 -36.31 M1.05 -13.66 C8.6 -22.35, 16.14 -31.03, 20.73 -36.31 M2.75 -9.53 C8.45 -16.09, 14.15 -22.64, 24.4 -34.44 M2.75 -9.53 C7.31 -14.77, 11.86 -20.01, 24.4 -34.44 M5.12 -6.15 C13.93 -16.29, 22.75 -26.43, 28.74 -33.32 M5.12 -6.15 C9.95 -11.71, 14.78 -17.26, 28.74 -33.32 M8.14 -3.53 C16.33 -12.95, 24.52 -22.37, 32.41 -31.45 M8.14 -3.53 C14.55 -10.9, 20.96 -18.28, 32.41 -31.45 M11.81 -1.66 C16.61 -7.18, 21.42 -12.71, 35.43 -28.83 M11.81 -1.66 C18.66 -9.53, 25.51 -17.41, 35.43 -28.83 M16.14 -0.54 C23.25 -8.73, 30.37 -16.91, 37.79 -25.45 M16.14 -0.54 C23.93 -9.5, 31.72 -18.46, 37.79 -25.45 M21.79 -0.94 C25.43 -5.13, 29.08 -9.33, 39.5 -21.31 M21.79 -0.94 C27.16 -7.13, 32.54 -13.31, 39.5 -21.31 M5.99 -5.37 C5.99 -5.37, 5.99 -5.37, 5.99 -5.37 M5.99 -5.37 C5.99 -5.37, 5.99 -5.37, 5.99 -5.37 M16.92 -1.17 C13.21 -4.4, 9.5 -7.63, -0.44 -16.26 M16.92 -1.17 C10.9 -6.41, 4.87 -11.65, -0.44 -16.26 M22.56 -1.57 C17.34 -6.11, 12.11 -10.66, -0.08 -21.25 M22.56 -1.57 C17.05 -6.37, 11.53 -11.16, -0.08 -21.25 M26.7 -3.28 C20.98 -8.24, 15.27 -13.21, 1.04 -25.58 M26.7 -3.28 C17.48 -11.28, 8.27 -19.29, 1.04 -25.58 M30.08 -5.64 C21.28 -13.29, 12.48 -20.94, 3.66 -28.6 M30.08 -5.64 C21.89 -12.76, 13.7 -19.87, 3.66 -28.6 M33.46 -8 C23.14 -16.97, 12.82 -25.94, 7.04 -30.96 M33.46 -8 C25.11 -15.25, 16.77 -22.51, 7.04 -30.96 M36.08 -11.02 C27.25 -18.69, 18.42 -26.37, 9.66 -33.98 M36.08 -11.02 C26.22 -19.59, 16.35 -28.17, 9.66 -33.98 M36.44 -16.01 C30.87 -20.85, 25.31 -25.69, 13.04 -36.34 M36.44 -16.01 C31.02 -20.72, 25.61 -25.43, 13.04 -36.34 M37.55 -20.34 C30.2 -26.73, 22.85 -33.12, 15.67 -39.36 M37.55 -20.34 C29.53 -27.31, 21.51 -34.29, 15.67 -39.36 M37.91 -25.32 C33.24 -29.39, 28.57 -33.45, 19.05 -41.73 M37.91 -25.32 C31.17 -31.19, 24.43 -37.05, 19.05 -41.73" stroke="#3CBEB1" stroke-width="0.5" fill="none"></path><path d="M-0.59 -23.97 C-0.59 -23.97, -0.59 -23.97, -0.59 -23.97 M-0.59 -23.97 C-0.59 -23.97, -0.59 -23.97, -0.59 -23.97 M-0.59 -23.97 C-0.69 -23.3, -0.79 -22.63, -0.87 -22.07 M-0.59 -23.97 C-0.7 -23.22, -0.81 -22.48, -0.87 -22.07 M-0.87 -22.07 C-0.9 -21.37, -0.94 -20.67, -0.96 -20.12 M-0.87 -22.07 C-0.91 -21.35, -0.94 -20.64, -0.96 -20.12 M-0.96 -20.12 C-0.94 -19.66, -0.92 -19.19, -0.86 -18.17 M-0.96 -20.12 C-0.94 -19.73, -0.92 -19.33, -0.86 -18.17 M-0.86 -18.17 C-0.76 -17.51, -0.66 -16.84, -0.57 -16.27 M-0.86 -18.17 C-0.77 -17.56, -0.68 -16.96, -0.57 -16.27 M-0.57 -16.27 C-0.44 -15.75, -0.3 -15.22, -0.1 -14.44 M-0.57 -16.27 C-0.38 -15.54, -0.2 -14.82, -0.1 -14.44 M-0.1 -14.44 C0.1 -13.9, 0.3 -13.36, 0.55 -12.68 M-0.1 -14.44 C0.12 -13.84, 0.34 -13.24, 0.55 -12.68 M0.55 -12.68 C0.83 -12.09, 1.11 -11.51, 1.36 -11 M0.55 -12.68 C0.75 -12.25, 0.96 -11.83, 1.36 -11 M1.36 -11 C1.62 -10.58, 1.88 -10.15, 2.32 -9.42 M1.36 -11 C1.57 -10.65, 1.79 -10.3, 2.32 -9.42 M2.32 -9.42 C2.6 -9.05, 2.87 -8.68, 3.43 -7.94 M2.32 -9.42 C2.64 -9, 2.95 -8.58, 3.43 -7.94 M3.43 -7.94 C3.73 -7.62, 4.02 -7.29, 4.67 -6.58 M3.43 -7.94 C3.68 -7.66, 3.93 -7.39, 4.67 -6.58 M4.67 -6.58 C5.17 -6.12, 5.68 -5.66, 6.03 -5.34 M4.67 -6.58 C5 -6.28, 5.34 -5.97, 6.03 -5.34 M6.03 -5.34 C6.6 -4.91, 7.17 -4.49, 7.51 -4.23 M6.03 -5.34 C6.55 -4.95, 7.07 -4.56, 7.51 -4.23 M7.51 -4.23 C7.92 -3.99, 8.32 -3.74, 9.09 -3.27 M7.51 -4.23 C8.02 -3.92, 8.53 -3.61, 9.09 -3.27 M9.09 -3.27 C9.47 -3.09, 9.85 -2.9, 10.77 -2.46 M9.09 -3.27 C9.72 -2.97, 10.35 -2.66, 10.77 -2.46 M10.77 -2.46 C11.15 -2.32, 11.53 -2.18, 12.53 -1.81 M10.77 -2.46 C11.36 -2.24, 11.96 -2.02, 12.53 -1.81 M12.53 -1.81 C13 -1.69, 13.48 -1.57, 14.36 -1.34 M12.53 -1.81 C12.93 -1.71, 13.33 -1.61, 14.36 -1.34 M14.36 -1.34 C14.97 -1.24, 15.58 -1.15, 16.26 -1.05 M14.36 -1.34 C15.05 -1.23, 15.75 -1.13, 16.26 -1.05 M16.26 -1.05 C16.91 -1.01, 17.56 -0.98, 18.21 -0.95 M16.26 -1.05 C16.77 -1.02, 17.29 -0.99, 18.21 -0.95 M18.21 -0.95 C18.46 -0.95, 18.7 -0.96, 19.41 -0.98 M18.21 -0.95 C18.57 -0.96, 18.92 -0.97, 19.41 -0.98 M19.41 -0.98 C19.71 -1.01, 20.02 -1.04, 20.58 -1.09 M19.41 -0.98 C19.8 -1.02, 20.18 -1.06, 20.58 -1.09 M20.58 -1.09 C20.88 -1.14, 21.18 -1.19, 21.74 -1.27 M20.58 -1.09 C20.91 -1.14, 21.23 -1.19, 21.74 -1.27 M21.74 -1.27 C22 -1.33, 22.25 -1.38, 22.89 -1.52 M21.74 -1.27 C22.06 -1.34, 22.38 -1.41, 22.89 -1.52 M22.89 -1.52 C23.16 -1.6, 23.43 -1.68, 24.01 -1.84 M22.89 -1.52 C23.2 -1.61, 23.51 -1.7, 24.01 -1.84 M24.01 -1.84 C24.39 -1.97, 24.77 -2.11, 25.1 -2.22 M24.01 -1.84 C24.23 -1.92, 24.45 -1.99, 25.1 -2.22 M25.1 -2.22 C25.4 -2.35, 25.7 -2.48, 26.17 -2.67 M25.1 -2.22 C25.44 -2.37, 25.78 -2.51, 26.17 -2.67 M26.17 -2.67 C26.53 -2.85, 26.9 -3.03, 27.2 -3.18 M26.17 -2.67 C26.41 -2.79, 26.65 -2.91, 27.2 -3.18 M27.2 -3.18 C27.46 -3.33, 27.71 -3.47, 28.21 -3.75 M27.2 -3.18 C27.45 -3.32, 27.7 -3.46, 28.21 -3.75 M28.21 -3.75 C28.49 -3.94, 28.77 -4.12, 29.18 -4.38 M28.21 -3.75 C28.54 -3.97, 28.87 -4.18, 29.18 -4.38 M29.18 -4.38 C29.37 -4.52, 29.56 -4.66, 30.11 -5.07 M29.18 -4.38 C29.5 -4.63, 29.83 -4.87, 30.11 -5.07 M30.11 -5.07 C30.46 -5.37, 30.81 -5.66, 31 -5.82 M30.11 -5.07 C30.41 -5.32, 30.71 -5.57, 31 -5.82 M31 -5.82 C31.29 -6.09, 31.58 -6.37, 31.85 -6.62 M31 -5.82 C31.3 -6.1, 31.61 -6.39, 31.85 -6.62 M31.85 -6.62 C32.05 -6.83, 32.24 -7.04, 32.65 -7.47 M31.85 -6.62 C32.06 -6.84, 32.26 -7.06, 32.65 -7.47 M32.65 -7.47 C32.83 -7.69, 33.01 -7.9, 33.4 -8.37 M32.65 -7.47 C32.82 -7.68, 33 -7.89, 33.4 -8.37 M33.4 -8.37 C33.55 -8.57, 33.69 -8.77, 34.1 -9.33 M33.4 -8.37 C33.68 -8.75, 33.96 -9.13, 34.1 -9.33 M34.1 -9.33 C34.74 -12.71, 35.38 -16.08, 36.89 -24.1 M34.1 -9.33 C35.16 -14.92, 36.22 -20.52, 36.89 -24.1 M36.89 -24.1 C35.43 -26.88, 33.96 -29.67, 33.11 -31.3 M36.89 -24.1 C35.86 -26.05, 34.83 -28.01, 33.11 -31.3 M33.11 -31.3 C29.63 -32.88, 26.16 -34.47, 16.1 -39.05 M33.11 -31.3 C29.18 -33.09, 25.25 -34.88, 16.1 -39.05 M16.1 -39.05 C11.74 -35.11, 7.37 -31.17, -0.59 -23.97 M16.1 -39.05 C12.18 -35.51, 8.25 -31.96, -0.59 -23.97 M-0.59 -23.97 C-0.59 -23.97, -0.59 -23.97, -0.59 -23.97 M-0.59 -23.97 C-0.59 -23.97, -0.59 -23.97, -0.59 -23.97 M-0.59 -23.97 C-0.59 -23.97, -0.59 -23.97, -0.59 -23.97 M-0.59 -23.97 C-0.59 -23.97, -0.59 -23.97, -0.59 -23.97" stroke="#3cbeb1" stroke-width="1" fill="none"></path></g></g><g stroke-linecap="round"><g transform="translate(715.8965917233295 66.69301577439427) rotate(0 5.938585497657414 -24.441374283755835)" fill-rule="evenodd"><path d="M0.63 -28.6 C0.63 -28.6, 0.63 -28.6, 0.63 -28.6 M0.63 -28.6 C0.63 -28.6, 0.63 -28.6, 0.63 -28.6 M-0.94 -20.7 C1.49 -23.5, 3.92 -26.3, 8.9 -32.02 M-0.94 -20.7 C2.41 -24.56, 5.77 -28.42, 8.9 -32.02 M1.42 -17.32 C3.98 -20.27, 6.54 -23.21, 12.57 -30.15 M1.42 -17.32 C4.24 -20.56, 7.05 -23.8, 12.57 -30.15 M5.75 -16.2 C8.53 -19.4, 11.31 -22.6, 15.59 -27.52 M5.75 -16.2 C8.76 -19.67, 11.77 -23.13, 15.59 -27.52 M-1.23 -19.93 C-1.23 -19.93, -1.23 -19.93, -1.23 -19.93 M-1.23 -19.93 C-1.23 -19.93, -1.23 -19.93, -1.23 -19.93 M1.4 -22.95 C0.79 -23.47, 0.18 -24, -0.87 -24.91 M1.4 -22.95 C0.8 -23.46, 0.2 -23.98, -0.87 -24.91 M12.32 -18.75 C8.72 -21.88, 5.12 -25.01, 1 -28.59 M12.32 -18.75 C9.14 -21.51, 5.96 -24.28, 1 -28.59 M13.44 -23.08 C11.28 -24.96, 9.12 -26.83, 3.63 -31.61 M13.44 -23.08 C10.34 -25.77, 7.24 -28.47, 3.63 -31.61 M13.8 -28.07 C12.44 -29.25, 11.08 -30.43, 9.27 -32 M13.8 -28.07 C12.27 -29.4, 10.74 -30.73, 9.27 -32" stroke="#E9478C" stroke-width="0.5" fill="none"></path><path d="M-0.89 -19.63 C1.76 -19.01, 4.4 -18.39, 10.72 -16.9 M-0.89 -19.63 C2.81 -18.76, 6.52 -17.89, 10.72 -16.9 M10.72 -16.9 C11.26 -19.66, 11.81 -22.42, 13.32 -30.12 M10.72 -16.9 C11.66 -21.7, 12.61 -26.51, 13.32 -30.12 M13.32 -30.12 C13.32 -30.12, 13.32 -30.12, 13.32 -30.12 M13.32 -30.12 C13.32 -30.12, 13.32 -30.12, 13.32 -30.12 M13.32 -30.12 C13.11 -30.27, 12.9 -30.42, 12.7 -30.56 M13.32 -30.12 C13.15 -30.24, 12.97 -30.37, 12.7 -30.56 M12.7 -30.56 C12.46 -30.7, 12.21 -30.84, 12.06 -30.93 M12.7 -30.56 C12.55 -30.65, 12.4 -30.74, 12.06 -30.93 M12.06 -30.93 C11.81 -31.05, 11.56 -31.17, 11.39 -31.25 M12.06 -30.93 C11.9 -31.01, 11.75 -31.08, 11.39 -31.25 M11.39 -31.25 C11.17 -31.34, 10.96 -31.42, 10.69 -31.52 M11.39 -31.25 C11.23 -31.31, 11.08 -31.37, 10.69 -31.52 M10.69 -31.52 C10.43 -31.59, 10.16 -31.67, 9.98 -31.72 M10.69 -31.52 C10.47 -31.58, 10.24 -31.65, 9.98 -31.72 M9.98 -31.72 C9.77 -31.76, 9.56 -31.8, 9.25 -31.87 M9.98 -31.72 C9.7 -31.77, 9.43 -31.83, 9.25 -31.87 M9.25 -31.87 C9.03 -31.89, 8.81 -31.92, 8.5 -31.95 M9.25 -31.87 C9.07 -31.89, 8.89 -31.91, 8.5 -31.95 M8.5 -31.95 C8.23 -31.96, 7.96 -31.97, 7.74 -31.98 M8.5 -31.95 C8.23 -31.96, 7.95 -31.97, 7.74 -31.98 M7.74 -31.98 C7.46 -31.97, 7.18 -31.95, 6.81 -31.93 M7.74 -31.98 C7.52 -31.97, 7.31 -31.96, 6.81 -31.93 M6.81 -31.93 C6.62 -31.91, 6.43 -31.88, 5.9 -31.8 M6.81 -31.93 C6.44 -31.88, 6.08 -31.82, 5.9 -31.8 M5.9 -31.8 C5.55 -31.71, 5.21 -31.62, 5.02 -31.57 M5.9 -31.8 C5.63 -31.73, 5.37 -31.66, 5.02 -31.57 M5.02 -31.57 C4.71 -31.46, 4.4 -31.34, 4.18 -31.26 M5.02 -31.57 C4.78 -31.48, 4.54 -31.39, 4.18 -31.26 M4.18 -31.26 C4 -31.17, 3.82 -31.09, 3.38 -30.88 M4.18 -31.26 C4 -31.17, 3.81 -31.09, 3.38 -30.88 M3.38 -30.88 C3.22 -30.78, 3.07 -30.69, 2.62 -30.42 M3.38 -30.88 C3.1 -30.71, 2.82 -30.53, 2.62 -30.42 M2.62 -30.42 C2.42 -30.27, 2.23 -30.12, 1.91 -29.89 M2.62 -30.42 C2.38 -30.24, 2.14 -30.06, 1.91 -29.89 M1.91 -29.89 C1.71 -29.7, 1.5 -29.51, 1.26 -29.3 M1.91 -29.89 C1.67 -29.67, 1.43 -29.45, 1.26 -29.3 M1.26 -29.3 C1.1 -29.12, 0.94 -28.94, 0.67 -28.65 M1.26 -29.3 C1.06 -29.08, 0.87 -28.87, 0.67 -28.65 M0.67 -28.65 C0.48 -28.4, 0.3 -28.16, 0.13 -27.94 M0.67 -28.65 C0.48 -28.39, 0.29 -28.14, 0.13 -27.94 M0.13 -27.94 C-0.03 -27.67, -0.2 -27.39, -0.33 -27.18 M0.13 -27.94 C0.01 -27.74, -0.11 -27.54, -0.33 -27.18 M-0.33 -27.18 C-0.47 -26.89, -0.61 -26.6, -0.72 -26.38 M-0.33 -27.18 C-0.47 -26.88, -0.62 -26.58, -0.72 -26.38 M-0.72 -26.38 C-0.83 -26.09, -0.93 -25.8, -1.03 -25.53 M-0.72 -26.38 C-0.83 -26.08, -0.94 -25.79, -1.03 -25.53 M-1.03 -25.53 C-1.09 -25.29, -1.16 -25.04, -1.26 -24.65 M-1.03 -25.53 C-1.08 -25.34, -1.13 -25.15, -1.26 -24.65 M-1.26 -24.65 C-1.29 -24.42, -1.33 -24.19, -1.4 -23.74 M-1.26 -24.65 C-1.31 -24.3, -1.37 -23.95, -1.4 -23.74 M-1.4 -23.74 C-1.41 -23.5, -1.42 -23.26, -1.45 -22.8 M-1.4 -23.74 C-1.41 -23.49, -1.42 -23.25, -1.45 -22.8 M-1.45 -22.8 C-1.43 -22.51, -1.42 -22.23, -1.41 -22 M-1.45 -22.8 C-1.44 -22.56, -1.43 -22.31, -1.41 -22 M-1.41 -22 C-1.38 -21.78, -1.35 -21.56, -1.31 -21.19 M-1.41 -22 C-1.39 -21.82, -1.37 -21.64, -1.31 -21.19 M-1.31 -21.19 C-1.24 -20.91, -1.18 -20.62, -1.13 -20.4 M-1.31 -21.19 C-1.27 -21.02, -1.23 -20.85, -1.13 -20.4 M-1.13 -20.4 C-1.04 -20.12, -0.96 -19.84, -0.89 -19.63 M-1.13 -20.4 C-1.04 -20.1, -0.94 -19.79, -0.89 -19.63 M-0.89 -19.63 C-0.89 -19.63, -0.89 -19.63, -0.89 -19.63 M-0.89 -19.63 C-0.89 -19.63, -0.89 -19.63, -0.89 -19.63 M-0.89 -19.63 C-0.89 -19.63, -0.89 -19.63, -0.89 -19.63 M-0.89 -19.63 C-0.89 -19.63, -0.89 -19.63, -0.89 -19.63" stroke="#e9478c" stroke-width="1" fill="none"></path></g></g><g stroke-linecap="round"><g transform="translate(728.0236789201988 49.85400682227572) rotate(0 -10.532795611779306 12.071260727053556)" fill-rule="evenodd"><path d="M-19.83 3.96 C-19.83 3.96, -19.83 3.96, -19.83 3.96 M-19.83 3.96 C-19.83 3.96, -19.83 3.96, -19.83 3.96 M-22.72 13.38 C-20.2 10.49, -17.69 7.6, -12.22 1.3 M-22.72 13.38 C-20.15 10.42, -17.58 7.47, -12.22 1.3 M-21.66 18.27 C-18.06 14.13, -14.46 9.98, -7.89 2.42 M-21.66 18.27 C-16.39 12.2, -11.11 6.13, -7.89 2.42 M-19.3 21.65 C-15.73 17.54, -12.16 13.43, -3.56 3.53 M-19.3 21.65 C-15.35 17.09, -11.39 12.54, -3.56 3.53 M-15.63 23.52 C-11.31 18.55, -7 13.59, 0.77 4.65 M-15.63 23.52 C-10.78 17.94, -5.94 12.37, 0.77 4.65 M-18.74 21.56 C-18.74 21.56, -18.74 21.56, -18.74 21.56 M-18.74 21.56 C-18.74 21.56, -18.74 21.56, -18.74 21.56 M-12.35 21.82 C-16.38 18.31, -20.42 14.8, -22.91 12.64 M-12.35 21.82 C-14.53 19.93, -16.71 18.03, -22.91 12.64 M-9.72 18.8 C-13.59 15.44, -17.46 12.08, -21.8 8.31 M-9.72 18.8 C-12.16 16.68, -14.6 14.56, -21.8 8.31 M-6.34 16.44 C-10.27 13.02, -14.21 9.6, -19.93 4.63 M-6.34 16.44 C-11.51 11.95, -16.68 7.46, -19.93 4.63 M-3.72 13.42 C-8.71 9.08, -13.71 4.74, -17.3 1.61 M-3.72 13.42 C-7.44 10.18, -11.17 6.95, -17.3 1.61 M-0.34 11.06 C-3.3 8.49, -6.26 5.91, -13.92 -0.75 M-0.34 11.06 C-4.66 7.3, -8.99 3.54, -13.92 -0.75 M2.29 8.04 C-0.08 5.98, -2.45 3.93, -5.26 1.48 M2.29 8.04 C0.59 6.56, -1.11 5.09, -5.26 1.48" stroke="#2C458F" stroke-width="0.5" fill="none"></path><path d="M-14.01 0 C-14.01 0, -14.01 0, -14.01 0 M-14.01 0 C-14.01 0, -14.01 0, -14.01 0 M-14.01 0 C-14.27 0.09, -14.52 0.19, -14.97 0.35 M-14.01 0 C-14.3 0.11, -14.6 0.22, -14.97 0.35 M-14.97 0.35 C-15.22 0.47, -15.47 0.59, -15.88 0.78 M-14.97 0.35 C-15.33 0.52, -15.69 0.69, -15.88 0.78 M-15.88 0.78 C-16.21 0.96, -16.53 1.15, -16.76 1.28 M-15.88 0.78 C-16.17 0.94, -16.45 1.1, -16.76 1.28 M-16.76 1.28 C-17.02 1.45, -17.28 1.63, -17.58 1.84 M-16.76 1.28 C-17.08 1.49, -17.4 1.71, -17.58 1.84 M-17.58 1.84 C-17.89 2.08, -18.19 2.33, -18.36 2.46 M-17.58 1.84 C-17.77 1.99, -17.96 2.14, -18.36 2.46 M-18.36 2.46 C-18.51 2.61, -18.66 2.75, -19.09 3.15 M-18.36 2.46 C-18.57 2.66, -18.79 2.86, -19.09 3.15 M-19.09 3.15 C-19.31 3.39, -19.54 3.64, -19.76 3.88 M-19.09 3.15 C-19.28 3.35, -19.47 3.56, -19.76 3.88 M-19.76 3.88 C-19.96 4.14, -20.17 4.41, -20.37 4.66 M-19.76 3.88 C-19.92 4.08, -20.07 4.28, -20.37 4.66 M-20.37 4.66 C-20.57 4.97, -20.78 5.28, -20.92 5.49 M-20.37 4.66 C-20.55 4.94, -20.74 5.21, -20.92 5.49 M-20.92 5.49 C-21.04 5.7, -21.16 5.92, -21.41 6.36 M-20.92 5.49 C-21.05 5.73, -21.19 5.97, -21.41 6.36 M-21.41 6.36 C-21.5 6.56, -21.59 6.76, -21.83 7.26 M-21.41 6.36 C-21.53 6.62, -21.65 6.88, -21.83 7.26 M-21.83 7.26 C-21.91 7.49, -22 7.72, -22.18 8.2 M-21.83 7.26 C-21.96 7.61, -22.09 7.95, -22.18 8.2 M-22.18 8.2 C-22.28 8.56, -22.39 8.92, -22.45 9.16 M-22.18 8.2 C-22.26 8.48, -22.34 8.77, -22.45 9.16 M-22.45 9.16 C-22.5 9.36, -22.54 9.56, -22.66 10.14 M-22.45 9.16 C-22.5 9.36, -22.54 9.56, -22.66 10.14 M-22.66 10.14 C-22.69 10.43, -22.73 10.72, -22.78 11.15 M-22.66 10.14 C-22.7 10.49, -22.74 10.84, -22.78 11.15 M-22.78 11.15 C-22.79 11.51, -22.81 11.87, -22.82 12.16 M-22.78 11.15 C-22.79 11.43, -22.8 11.72, -22.82 12.16 M-22.82 12.16 C-22.81 12.53, -22.79 12.89, -22.78 13.16 M-22.82 12.16 C-22.81 12.41, -22.8 12.66, -22.78 13.16 M-22.78 13.16 C-22.75 13.45, -22.72 13.74, -22.67 14.14 M-22.78 13.16 C-22.74 13.49, -22.71 13.82, -22.67 14.14 M-22.67 14.14 C-22.6 14.51, -22.52 14.89, -22.48 15.09 M-22.67 14.14 C-22.62 14.39, -22.57 14.65, -22.48 15.09 M-22.48 15.09 C-22.39 15.45, -22.29 15.81, -22.23 16.03 M-22.48 15.09 C-22.39 15.42, -22.3 15.76, -22.23 16.03 M-22.23 16.03 C-22.13 16.31, -22.03 16.59, -21.91 16.93 M-22.23 16.03 C-22.13 16.3, -22.04 16.57, -21.91 16.93 M-21.91 16.93 C-21.78 17.23, -21.64 17.53, -21.52 17.81 M-21.91 16.93 C-21.77 17.23, -21.64 17.53, -21.52 17.81 M-21.52 17.81 C-21.42 17.99, -21.33 18.16, -21.07 18.65 M-21.52 17.81 C-21.4 18.04, -21.28 18.26, -21.07 18.65 M-21.07 18.65 C-20.94 18.85, -20.82 19.04, -20.56 19.46 M-21.07 18.65 C-20.89 18.94, -20.71 19.22, -20.56 19.46 M-20.56 19.46 C-20.35 19.74, -20.14 20.02, -19.99 20.22 M-20.56 19.46 C-20.36 19.73, -20.16 19.99, -19.99 20.22 M-19.99 20.22 C-19.77 20.47, -19.56 20.72, -19.36 20.94 M-19.99 20.22 C-19.82 20.42, -19.64 20.62, -19.36 20.94 M-19.36 20.94 C-19.09 21.21, -18.82 21.48, -18.68 21.61 M-19.36 20.94 C-19.12 21.18, -18.88 21.42, -18.68 21.61 M-18.68 21.61 C-18.5 21.77, -18.32 21.92, -17.95 22.24 M-18.68 21.61 C-18.51 21.76, -18.34 21.9, -17.95 22.24 M-17.95 22.24 C-17.72 22.41, -17.48 22.58, -17.17 22.8 M-17.95 22.24 C-17.7 22.42, -17.45 22.6, -17.17 22.8 M-17.17 22.8 C-16.91 22.97, -16.64 23.13, -16.35 23.31 M-17.17 22.8 C-16.85 23, -16.52 23.2, -16.35 23.31 M-16.35 23.31 C-16.15 23.41, -15.96 23.51, -15.48 23.76 M-16.35 23.31 C-16.05 23.46, -15.76 23.62, -15.48 23.76 M-15.48 23.76 C-15.2 23.88, -14.92 24, -14.57 24.14 M-15.48 23.76 C-15.15 23.9, -14.83 24.03, -14.57 24.14 M-14.57 24.14 C-9.97 19.98, -5.37 15.82, 1.76 9.37 M-14.57 24.14 C-9.3 19.38, -4.04 14.61, 1.76 9.37 M1.76 9.37 C0.88 7.49, 0 5.61, -1.22 2.98 M1.76 9.37 C0.68 7.05, -0.41 4.73, -1.22 2.98 M-1.22 2.98 C-5.7 1.94, -10.17 0.89, -14.01 0 M-1.22 2.98 C-4.19 2.29, -7.15 1.6, -14.01 0 M-14.01 0 C-14.01 0, -14.01 0, -14.01 0 M-14.01 0 C-14.01 0, -14.01 0, -14.01 0 M-14.01 0 C-14.01 0, -14.01 0, -14.01 0 M-14.01 0 C-14.01 0, -14.01 0, -14.01 0" stroke="#2c458f" stroke-width="1" fill="none"></path></g></g><g stroke-linecap="round"><g transform="translate(752.8043813740751 111.9155125316372) rotate(0 7.354349673294223 -26.530435307679113)" fill-rule="evenodd"><path d="M2.29 -33.78 C2.29 -33.78, 2.29 -33.78, 2.29 -33.78 M2.29 -33.78 C2.29 -33.78, 2.29 -33.78, 2.29 -33.78 M0.72 -25.87 C1.98 -27.33, 3.24 -28.78, 6.62 -32.67 M0.72 -25.87 C2.54 -27.96, 4.35 -30.05, 6.62 -32.67 M1.11 -20.23 C3.44 -22.9, 5.76 -25.57, 11.61 -32.31 M1.11 -20.23 C5.16 -24.89, 9.21 -29.54, 11.61 -32.31 M4.79 -18.36 C6.91 -20.8, 9.02 -23.23, 14.63 -29.68 M4.79 -18.36 C8.49 -22.61, 12.18 -26.87, 14.63 -29.68 M-0.21 -21.1 C-0.21 -21.1, -0.21 -21.1, -0.21 -21.1 M-0.21 -21.1 C-0.21 -21.1, -0.21 -21.1, -0.21 -21.1 M7.7 -19.52 C5.07 -21.81, 2.44 -24.09, 0.9 -25.43 M7.7 -19.52 C5.55 -21.39, 3.41 -23.25, 0.9 -25.43 M11.83 -21.23 C9.18 -23.53, 6.54 -25.83, 2.02 -29.76 M11.83 -21.23 C9.24 -23.48, 6.65 -25.73, 2.02 -29.76 M13.7 -24.91 C10.54 -27.65, 7.38 -30.4, 3.13 -34.09 M13.7 -24.91 C9.76 -28.33, 5.82 -31.75, 3.13 -34.09 M14.81 -29.24 C14.03 -29.92, 13.24 -30.61, 11.04 -32.52 M14.81 -29.24 C13.53 -30.36, 12.24 -31.48, 11.04 -32.52" stroke="#95C63D" stroke-width="0.5" fill="none"></path><path d="M0 -20.91 C0 -20.91, 0 -20.91, 0 -20.91 M0 -20.91 C0 -20.91, 0 -20.91, 0 -20.91 M0 -20.91 C0.21 -20.77, 0.41 -20.62, 0.62 -20.47 M0 -20.91 C0.25 -20.74, 0.49 -20.56, 0.62 -20.47 M0.62 -20.47 C0.81 -20.36, 1.01 -20.24, 1.26 -20.09 M0.62 -20.47 C0.82 -20.36, 1.01 -20.24, 1.26 -20.09 M1.26 -20.09 C1.52 -19.97, 1.77 -19.84, 1.93 -19.76 M1.26 -20.09 C1.44 -20, 1.62 -19.91, 1.93 -19.76 M1.93 -19.76 C2.15 -19.67, 2.36 -19.59, 2.62 -19.49 M1.93 -19.76 C2.08 -19.7, 2.23 -19.64, 2.62 -19.49 M2.62 -19.49 C2.9 -19.4, 3.19 -19.31, 3.33 -19.27 M2.62 -19.49 C2.78 -19.44, 2.94 -19.39, 3.33 -19.27 M3.33 -19.27 C3.52 -19.23, 3.72 -19.19, 4.05 -19.12 M3.33 -19.27 C3.59 -19.21, 3.85 -19.16, 4.05 -19.12 M4.05 -19.12 C4.23 -19.09, 4.42 -19.07, 4.78 -19.02 M4.05 -19.12 C4.28 -19.09, 4.52 -19.06, 4.78 -19.02 M4.78 -19.02 C5.04 -19.01, 5.3 -19, 5.52 -18.99 M4.78 -19.02 C4.93 -19.02, 5.09 -19.01, 5.52 -18.99 M5.52 -18.99 C5.73 -19, 5.93 -19.01, 6.46 -19.04 M5.52 -18.99 C5.89 -19.01, 6.26 -19.03, 6.46 -19.04 M6.46 -19.04 C6.78 -19.09, 7.1 -19.14, 7.36 -19.18 M6.46 -19.04 C6.77 -19.08, 7.08 -19.13, 7.36 -19.18 M7.36 -19.18 C7.57 -19.23, 7.77 -19.28, 8.24 -19.4 M7.36 -19.18 C7.56 -19.23, 7.76 -19.28, 8.24 -19.4 M8.24 -19.4 C8.51 -19.5, 8.79 -19.6, 9.08 -19.71 M8.24 -19.4 C8.53 -19.51, 8.82 -19.62, 9.08 -19.71 M9.08 -19.71 C9.28 -19.81, 9.49 -19.91, 9.88 -20.1 M9.08 -19.71 C9.38 -19.85, 9.68 -20, 9.88 -20.1 M9.88 -20.1 C10.15 -20.26, 10.42 -20.42, 10.64 -20.55 M9.88 -20.1 C10.15 -20.26, 10.42 -20.42, 10.64 -20.55 M10.64 -20.55 C10.84 -20.71, 11.04 -20.86, 11.35 -21.08 M10.64 -20.55 C10.89 -20.74, 11.14 -20.92, 11.35 -21.08 M11.35 -21.08 C11.58 -21.3, 11.82 -21.51, 12 -21.67 M11.35 -21.08 C11.52 -21.23, 11.68 -21.39, 12 -21.67 M12 -21.67 C12.22 -21.91, 12.44 -22.15, 12.6 -22.33 M12 -21.67 C12.14 -21.82, 12.28 -21.98, 12.6 -22.33 M12.6 -22.33 C12.75 -22.54, 12.91 -22.75, 13.13 -23.03 M12.6 -22.33 C12.76 -22.55, 12.93 -22.77, 13.13 -23.03 M13.13 -23.03 C13.3 -23.31, 13.47 -23.59, 13.59 -23.79 M13.13 -23.03 C13.25 -23.23, 13.37 -23.42, 13.59 -23.79 M13.59 -23.79 C13.73 -24.08, 13.87 -24.37, 13.98 -24.59 M13.59 -23.79 C13.73 -24.07, 13.86 -24.35, 13.98 -24.59 M13.98 -24.59 C14.05 -24.77, 14.11 -24.95, 14.29 -25.44 M13.98 -24.59 C14.05 -24.79, 14.12 -24.98, 14.29 -25.44 M14.29 -25.44 C14.38 -25.77, 14.47 -26.11, 14.52 -26.32 M14.29 -25.44 C14.37 -25.73, 14.44 -26.03, 14.52 -26.32 M14.52 -26.32 C14.55 -26.54, 14.59 -26.76, 14.66 -27.23 M14.52 -26.32 C14.56 -26.6, 14.61 -26.88, 14.66 -27.23 M14.66 -27.23 C14.67 -27.45, 14.68 -27.67, 14.71 -28.18 M14.66 -27.23 C14.67 -27.45, 14.68 -27.66, 14.71 -28.18 M14.71 -28.18 C14.7 -28.38, 14.69 -28.59, 14.67 -29 M14.71 -28.18 C14.7 -28.36, 14.69 -28.55, 14.67 -29 M14.67 -29 C14.65 -29.18, 14.63 -29.36, 14.57 -29.8 M14.67 -29 C14.64 -29.27, 14.6 -29.53, 14.57 -29.8 M14.57 -29.8 C14.52 -30.01, 14.48 -30.22, 14.39 -30.58 M14.57 -29.8 C14.52 -30.02, 14.47 -30.23, 14.39 -30.58 M14.39 -30.58 C14.32 -30.81, 14.25 -31.03, 14.15 -31.34 M14.39 -30.58 C14.32 -30.82, 14.24 -31.06, 14.15 -31.34 M14.15 -31.34 C10.05 -32.3, 5.96 -33.27, 2.54 -34.07 M14.15 -31.34 C10.73 -32.15, 7.31 -32.95, 2.54 -34.07 M2.54 -34.07 C1.96 -31.05, 1.38 -28.04, 0 -20.91 M2.54 -34.07 C1.99 -31.21, 1.44 -28.34, 0 -20.91 M0 -20.91 C0 -20.91, 0 -20.91, 0 -20.91 M0 -20.91 C0 -20.91, 0 -20.91, 0 -20.91 M0 -20.91 C0 -20.91, 0 -20.91, 0 -20.91 M0 -20.91 C0 -20.91, 0 -20.91, 0 -20.91" stroke="#95c63d" stroke-width="1" fill="none"></path></g></g><g stroke-linecap="round"><g transform="translate(760.5886155710223 108.77149435760998) rotate(0 3.6662433874056433 -42.73202698724057)" fill-rule="evenodd"><path d="M-8.52 -40.53 C-8.52 -40.53, -8.52 -40.53, -8.52 -40.53 M-8.52 -40.53 C-8.52 -40.53, -8.52 -40.53, -8.52 -40.53 M-6.81 -36.39 C-1.68 -42.29, 3.44 -48.19, 8.94 -54.51 M-6.81 -36.39 C-2.07 -41.85, 2.68 -47.31, 8.94 -54.51 M-4.45 -33.02 C1.7 -40.09, 7.85 -47.16, 11.95 -51.88 M-4.45 -33.02 C-1.12 -36.85, 2.21 -40.68, 11.95 -51.88 M-0.12 -31.9 C5.68 -38.56, 11.47 -45.23, 14.97 -49.26 M-0.12 -31.9 C5.74 -38.64, 11.6 -45.37, 14.97 -49.26 M4.22 -30.79 C8.46 -35.67, 12.71 -40.56, 16.02 -44.37 M4.22 -30.79 C7.57 -34.65, 10.93 -38.51, 16.02 -44.37 M11.17 -32.69 C12.14 -33.8, 13.11 -34.92, 15.11 -37.22 M11.17 -32.69 C12.24 -33.92, 13.31 -35.15, 15.11 -37.22 M-5.3 -33.53 C-5.3 -33.53, -5.3 -33.53, -5.3 -33.53 M-5.3 -33.53 C-5.3 -33.53, -5.3 -33.53, -5.3 -33.53 M-2.68 -36.55 C-4.5 -38.13, -6.32 -39.72, -7.96 -41.14 M-2.68 -36.55 C-4.02 -37.72, -5.37 -38.89, -7.96 -41.14 M9 -31.7 C4.34 -35.75, -0.33 -39.81, -4.58 -43.51 M9 -31.7 C4.3 -35.79, -0.41 -39.88, -4.58 -43.51 M12.38 -34.06 C8.43 -37.49, 4.48 -40.93, -1.96 -46.52 M12.38 -34.06 C8.45 -37.48, 4.52 -40.89, -1.96 -46.52 M15.01 -37.08 C10.48 -41.02, 5.95 -44.95, 1.42 -48.89 M15.01 -37.08 C12.23 -39.5, 9.44 -41.91, 1.42 -48.89 M16.12 -41.41 C11.33 -45.57, 6.55 -49.73, 4.05 -51.91 M16.12 -41.41 C12.41 -44.64, 8.7 -47.86, 4.05 -51.91 M15.73 -47.05 C13.62 -48.88, 11.52 -50.71, 7.42 -54.27 M15.73 -47.05 C13 -49.43, 10.26 -51.8, 7.42 -54.27" stroke="#176655" stroke-width="0.5" fill="none"></path><path d="M-5.43 -33.64 C-2.5 -32.96, 0.42 -32.28, 7.36 -30.66 M-5.43 -33.64 C-0.33 -32.45, 4.77 -31.26, 7.36 -30.66 M7.36 -30.66 C7.36 -30.66, 7.36 -30.66, 7.36 -30.66 M7.36 -30.66 C7.36 -30.66, 7.36 -30.66, 7.36 -30.66 M7.36 -30.66 C7.7 -30.79, 8.05 -30.92, 8.32 -31.02 M7.36 -30.66 C7.64 -30.77, 7.92 -30.87, 8.32 -31.02 M8.32 -31.02 C8.54 -31.13, 8.75 -31.23, 9.23 -31.46 M8.32 -31.02 C8.6 -31.16, 8.89 -31.3, 9.23 -31.46 M9.23 -31.46 C9.52 -31.63, 9.81 -31.79, 10.11 -31.96 M9.23 -31.46 C9.54 -31.64, 9.85 -31.81, 10.11 -31.96 M10.11 -31.96 C10.29 -32.09, 10.48 -32.21, 10.94 -32.53 M10.11 -31.96 C10.3 -32.09, 10.5 -32.23, 10.94 -32.53 M10.94 -32.53 C11.17 -32.72, 11.41 -32.91, 11.71 -33.15 M10.94 -32.53 C11.13 -32.68, 11.33 -32.84, 11.71 -33.15 M11.71 -33.15 C11.86 -33.29, 12.01 -33.44, 12.44 -33.83 M11.71 -33.15 C11.96 -33.39, 12.21 -33.62, 12.44 -33.83 M12.44 -33.83 C12.58 -33.99, 12.72 -34.15, 13.11 -34.57 M12.44 -33.83 C12.63 -34.05, 12.83 -34.26, 13.11 -34.57 M13.11 -34.57 C13.29 -34.8, 13.47 -35.03, 13.72 -35.35 M13.11 -34.57 C13.27 -34.77, 13.43 -34.98, 13.72 -35.35 M13.72 -35.35 C13.91 -35.63, 14.09 -35.91, 14.27 -36.17 M13.72 -35.35 C13.84 -35.53, 13.96 -35.71, 14.27 -36.17 M14.27 -36.17 C14.45 -36.48, 14.62 -36.79, 14.76 -37.03 M14.27 -36.17 C14.4 -36.39, 14.52 -36.62, 14.76 -37.03 M14.76 -37.03 C14.9 -37.34, 15.04 -37.64, 15.18 -37.93 M14.76 -37.03 C14.85 -37.23, 14.94 -37.43, 15.18 -37.93 M15.18 -37.93 C15.26 -38.15, 15.34 -38.37, 15.53 -38.86 M15.18 -37.93 C15.26 -38.15, 15.34 -38.36, 15.53 -38.86 M15.53 -38.86 C15.59 -39.08, 15.65 -39.29, 15.81 -39.82 M15.53 -38.86 C15.61 -39.16, 15.7 -39.46, 15.81 -39.82 M15.81 -39.82 C15.87 -40.13, 15.93 -40.43, 16.01 -40.81 M15.81 -39.82 C15.87 -40.14, 15.93 -40.45, 16.01 -40.81 M16.01 -40.81 C16.05 -41.17, 16.1 -41.54, 16.13 -41.81 M16.01 -40.81 C16.05 -41.16, 16.09 -41.51, 16.13 -41.81 M16.13 -41.81 C16.14 -42.16, 16.16 -42.52, 16.17 -42.83 M16.13 -41.81 C16.14 -42.11, 16.15 -42.41, 16.17 -42.83 M16.17 -42.83 C16.16 -43.14, 16.15 -43.45, 16.13 -43.82 M16.17 -42.83 C16.16 -43.06, 16.15 -43.29, 16.13 -43.82 M16.13 -43.82 C16.1 -44.08, 16.07 -44.35, 16.02 -44.79 M16.13 -43.82 C16.09 -44.19, 16.05 -44.56, 16.02 -44.79 M16.02 -44.79 C15.95 -45.15, 15.88 -45.5, 15.84 -45.75 M16.02 -44.79 C15.97 -45.07, 15.91 -45.35, 15.84 -45.75 M15.84 -45.75 C15.74 -46.08, 15.65 -46.41, 15.58 -46.68 M15.84 -45.75 C15.78 -45.96, 15.72 -46.16, 15.58 -46.68 M15.58 -46.68 C15.45 -47.03, 15.33 -47.38, 15.26 -47.58 M15.58 -46.68 C15.48 -46.95, 15.39 -47.22, 15.26 -47.58 M15.26 -47.58 C15.16 -47.8, 15.06 -48.03, 14.87 -48.45 M15.26 -47.58 C15.14 -47.85, 15.02 -48.12, 14.87 -48.45 M14.87 -48.45 C14.78 -48.63, 14.68 -48.8, 14.42 -49.29 M14.87 -48.45 C14.75 -48.67, 14.63 -48.89, 14.42 -49.29 M14.42 -49.29 C14.23 -49.59, 14.04 -49.89, 13.91 -50.09 M14.42 -49.29 C14.23 -49.59, 14.04 -49.89, 13.91 -50.09 M13.91 -50.09 C13.79 -50.25, 13.67 -50.41, 13.34 -50.86 M13.91 -50.09 C13.78 -50.27, 13.65 -50.44, 13.34 -50.86 M13.34 -50.86 C13.16 -51.06, 12.99 -51.26, 12.71 -51.58 M13.34 -50.86 C13.11 -51.12, 12.88 -51.38, 12.71 -51.58 M12.71 -51.58 C12.48 -51.8, 12.25 -52.03, 12.03 -52.25 M12.71 -51.58 C12.53 -51.76, 12.35 -51.93, 12.03 -52.25 M12.03 -52.25 C11.81 -52.44, 11.58 -52.63, 11.3 -52.87 M12.03 -52.25 C11.81 -52.43, 11.59 -52.62, 11.3 -52.87 M11.3 -52.87 C11.05 -53.06, 10.8 -53.24, 10.52 -53.44 M11.3 -52.87 C11.06 -53.05, 10.81 -53.23, 10.52 -53.44 M10.52 -53.44 C10.23 -53.62, 9.93 -53.81, 9.7 -53.96 M10.52 -53.44 C10.35 -53.55, 10.18 -53.66, 9.7 -53.96 M9.7 -53.96 C9.49 -54.06, 9.29 -54.17, 8.83 -54.41 M9.7 -53.96 C9.42 -54.1, 9.14 -54.24, 8.83 -54.41 M8.83 -54.41 C8.57 -54.52, 8.32 -54.63, 7.92 -54.8 M8.83 -54.41 C8.49 -54.56, 8.15 -54.7, 7.92 -54.8 M7.92 -54.8 C2.65 -50.2, -2.61 -45.6, -8.84 -40.16 M7.92 -54.8 C3.25 -50.72, -1.42 -46.64, -8.84 -40.16 M-8.84 -40.16 C-7.81 -38.2, -6.79 -36.24, -5.43 -33.64 M-8.84 -40.16 C-7.81 -38.2, -6.79 -36.24, -5.43 -33.64 M-5.43 -33.64 C-5.43 -33.64, -5.43 -33.64, -5.43 -33.64 M-5.43 -33.64 C-5.43 -33.64, -5.43 -33.64, -5.43 -33.64 M-5.43 -33.64 C-5.43 -33.64, -5.43 -33.64, -5.43 -33.64 M-5.43 -33.64 C-5.43 -33.64, -5.43 -33.64, -5.43 -33.64" stroke="#176655" stroke-width="1" fill="none"></path></g></g><g stroke-linecap="round" transform="translate(316.640625 21.80078125) rotate(0 234.09765625 201.0234375)"><path d="M0.08 -0.81 C148.92 -1.74, 295.96 -1.56, 467.37 0.63 M-0.01 -0.33 C157.45 0.92, 315.42 1.13, 468.46 0.33 M468.64 0.93 C467.37 130.45, 466.6 260.67, 467.75 401.8 M468.44 0.2 C467.71 151.98, 468.12 305.16, 468.16 402.05 M467.39 401.52 C356.28 403.68, 245.65 403.25, -0.19 402.51 M468.05 402.09 C336.96 403, 205.92 403.22, -0.09 402.46 M-0.64 401.3 C-2.18 274.07, -1.02 147.08, -0.54 0.32 M0.29 401.64 C2.03 309.11, 2.54 214.88, 0.07 -0.33" stroke="#000000" stroke-width="1" fill="none"></path></g><g stroke-linecap="round" transform="translate(488.291015625 195.9921875) rotate(0 72.046875 26.5625)"><path d="M0.76 -1.36 C42.13 1.53, 84.05 1.65, 142.15 1.24 M-0.78 -0.27 C39.3 1.01, 76.53 0.91, 143.53 0.54 M142.52 0.55 C141.91 12.59, 144.16 26.27, 145.96 53.36 M144.82 0.02 C144.84 15.94, 142.94 32.21, 143.85 52.25 M145.61 54.11 C92.99 55.58, 42.92 52.91, 0.47 54.83 M143.53 52.67 C100.94 52.54, 56.11 52.87, 0.2 52.78 M1.59 52.61 C1.3 39.45, 0.81 24.94, -0.16 -0.49 M-0.36 53.37 C-0.39 42.48, -0.93 30.22, -0.01 0.82" stroke="#000000" stroke-width="1" fill="none"></path></g><g transform="translate(494.298828125 210.9375) rotate(0 66.5 12.5)"><text x="0" y="18" font-family="Virgil, Segoe UI Emoji" font-size="20px" fill="#000000" text-anchor="start" style="white-space: pre;" direction="ltr">Elasticsearch</text></g><g stroke-linecap="round" transform="translate(601.265625 339.09765625) rotate(0 72.046875 26.5625)"><path d="M0.11 -0.64 C50.19 -0.63, 105.25 -0.34, 145.95 0.69 M-0.5 0.77 C49.49 -0.54, 99 -0.44, 143.74 -0.07 M145.13 -0.94 C144.36 10.84, 142.56 23.68, 143.74 53.03 M143.59 0.7 C143.12 18.89, 144.15 36.77, 143.3 53.91 M145.2 54.56 C113.76 53.33, 85.35 55.3, -0.38 51.97 M143.1 54.09 C110.97 54.12, 78.86 53.5, -0.29 52.33 M-0.77 51.99 C-1.43 37.14, -0.33 21.52, 1.99 -0.21 M0.56 53.72 C0.24 41.57, 0.98 32.14, 0.91 -0.65" stroke="#000000" stroke-width="1" fill="none"></path></g><g transform="translate(641.3515625 352.0703125) rotate(0 32 12.5)"><text x="0" y="18" font-family="Virgil, Segoe UI Emoji" font-size="20px" fill="#000000" text-anchor="start" style="white-space: pre;" direction="ltr">Kibana</text></g><g stroke-linecap="round" transform="translate(365.9375 49.38671875) rotate(0 72.046875 26.5625)"><path d="M-1.65 -0.57 C36.09 0.83, 73.89 0.08, 145.88 -1.01 M0.28 -0.35 C52.58 0.31, 105.75 0.34, 144.42 0.56 M143.19 1.7 C143.33 18.6, 142.31 37.93, 145.51 51.13 M145.07 -0.65 C143.79 20.29, 144.16 43.03, 143.44 52.74 M144.22 54.21 C111.01 53.17, 71.98 51.9, 1.17 54.24 M144.69 53.62 C93.25 51.31, 41.4 52.04, -0.55 52.36 M1.25 54.89 C-0.5 36.73, 1.69 17.61, 1.66 -1.05 M-0.65 53.2 C-1.32 41.76, -1.09 29.68, 0.31 -0.68" stroke="#000000" stroke-width="1" fill="none"></path></g><g transform="translate(392.9453125 64.33203125) rotate(0 45 12.5)"><text x="0" y="18" font-family="Virgil, Segoe UI Emoji" font-size="20px" fill="#000000" text-anchor="start" style="white-space: pre;" direction="ltr">Logstash</text></g><g stroke-linecap="round" transform="translate(360.09765625 338.3203125) rotate(0 72.046875 26.5625)"><path d="M-1.59 1.57 C45.99 2.13, 96.6 1.61, 145.53 -1.41 M-0.19 -0.58 C40.54 -2.02, 83.2 -2.22, 145.06 -0.02 M143.52 -1.6 C144.76 17.51, 143.29 30.83, 142.96 52.15 M145.09 -0.1 C143.15 16.14, 144.71 34.31, 144.69 52.97 M145.91 51.83 C114.15 54.01, 79.88 52.31, 0.77 53.79 M143.93 53.92 C89.86 54.62, 34.59 53.87, -0.81 53.86 M-1.86 53.69 C-1.06 41.39, 0.96 28.89, 1.11 0.9 M-0.6 52.69 C-0.88 37.74, -0.65 22.19, -0.75 0.29" stroke="#000000" stroke-width="1" fill="none"></path></g><g transform="translate(380.8515625 351.40625) rotate(0 51 12.5)"><text x="0" y="18" font-family="Virgil, Segoe UI Emoji" font-size="20px" fill="#000000" text-anchor="start" style="white-space: pre;" direction="ltr">Heartbeat</text></g><g stroke-linecap="round"><g transform="translate(478.08984375 114.70703125) rotate(0 35.86594435186129 35.360980569561974)"><path d="M0.64 -0.07 C12.47 11.72, 58.12 58.51, 69.82 70.54 M-0.48 -1.16 C11.85 10.82, 60.41 59.96, 72.21 71.88" stroke="#000000" stroke-width="1" fill="none"></path></g></g><g stroke-linecap="round"><g transform="translate(468.9609375 329.5625) rotate(0 45.84385031804908 -35.470047452826975)"><path d="M-0.76 0.97 C14.2 -10.72, 74.77 -58.2, 90.07 -70.12 M1.04 0.43 C16.37 -11.61, 77.54 -60.31, 92.45 -71.91" stroke="#000000" stroke-width="1" fill="none"></path></g></g><g stroke-linecap="round" transform="translate(77.47318763587668 50.66333334610971) rotate(0 15.11119339032922 22.930396284400956)"><path d="M1.11 -0.74 L30.65 1.94 L29.16 46.74 L0.15 46.93" stroke="none" stroke-width="0" fill="#fff"></path><path d="M-1.94 0.76 C11.78 0.6, 20.68 -0.6, 31.93 -1.89 M0.46 -0.89 C6.84 -0.27, 12.87 -0.5, 30.08 -0.61 M30.43 -1.76 C30.75 13.69, 29.04 29.04, 28.76 44.5 M31.03 -0.15 C30.16 11.02, 31.29 21.01, 30.52 45.4 M28.75 44.46 C24.02 44.41, 16.65 45.03, -1.5 47.74 M31.17 46.15 C20.06 46.33, 7.59 46.86, 0.91 45.76 M-1.55 46.89 C-0.13 28.58, -0.97 11.98, 0.45 -1.63 M0.51 46.17 C1.07 35.03, 0.37 24.06, 0.73 0.59" stroke="#000000" stroke-width="2" fill="none"></path></g><g stroke-linecap="round" transform="translate(74.24588117081248 47.6615207523551) rotate(0 15.11119339032922 22.930396284400956)"><path d="M-0.74 0.42 L32.16 -1.06 L31.1 46.01 L1.06 46.84" stroke="none" stroke-width="0" fill="#fff"></path><path d="M0.76 0.52 C12.47 -1.54, 23.15 2, 28.33 -1.86 M-0.89 0.58 C9.25 0.21, 18.33 -0.28, 29.62 0.2 M28.47 0.68 C29.31 11.27, 29.97 23.16, 28.86 44.53 M30.07 -0.37 C30.75 17.59, 30.02 33.97, 29.76 45.43 M28.82 47.43 C21.38 47.62, 14.57 44.14, 1.88 47.03 M30.51 46.54 C22.1 45.19, 14.31 47.05, -0.1 46.44 M1.03 46.13 C-1.16 27.48, -1.35 10.69, -1.63 -1.38 M0.31 46.77 C0.1 33.93, -0.27 22.32, 0.59 0.55" stroke="#000000" stroke-width="2" fill="none"></path></g><g stroke-linecap="round" transform="translate(70.22851099366949 44.13212408508838) rotate(0 15.11119339032922 22.930396284400956)"><path d="M0.42 1.94 L29.16 0.88 L30.37 46.93 L0.98 45.13" stroke="none" stroke-width="0" fill="#fff"></path><path d="M0.52 0.59 C7.07 -0.73, 19.52 -2, 28.36 0.17 M0.58 -0.07 C11.35 -0.04, 21.86 -0.34, 30.43 -0.32 M30.9 -1 C29.23 14.3, 28.81 27.94, 28.89 47.2 M29.85 0.31 C31.35 15.49, 30.89 31.36, 29.8 45.32 M31.8 44.44 C23.45 44.85, 11.21 47.53, 1.17 45.37 M30.9 46.05 C17.45 46.67, 7.49 45.85, 0.58 46.74 M0.27 44.98 C-0.21 28.25, 0.81 11.16, -1.38 -0.71 M0.91 45.63 C-0.03 34.84, 0.5 25.6, 0.55 -0.37" stroke="#000000" stroke-width="2" fill="none"></path></g><g stroke-linecap="round"><g transform="translate(75.91581062020873 67.39505475193113) rotate(0 9.979891104094577 -2.4719809611125925)"><path d="M0.31 -1.42 C3.21 -1.54, 12.75 -1.6, 16.19 -2.07 C19.62 -2.54, 20.51 -4.07, 20.94 -4.23 M-0.98 -2.28 C2.37 -2.27, 14.71 -0.52, 18.32 -0.73 C21.94 -0.93, 20.69 -3.32, 20.71 -3.5" stroke="#000000" stroke-width="1" fill="none"></path></g></g><g stroke-linecap="round"><g transform="translate(76.67447187457515 53.47349483194256) rotate(0 9.865413044590014 -2.0282536811286036)"><path d="M0.35 -2.7 C1.42 -2.78, 3.83 -1.75, 6.83 -1.78 C9.83 -1.81, 16.23 -2.99, 18.35 -2.86 M-0.92 -0.67 C-0.09 -1.09, 2.09 -3.12, 5.69 -3.36 C9.29 -3.61, 18.29 -2.17, 20.65 -2.13" stroke="#000000" stroke-width="1" fill="none"></path></g></g><g stroke-linecap="round"><g transform="translate(76.74356858534725 82.44840009136936) rotate(0 10.4932311750253 -1.1573397383369866)"><path d="M-1.1 -1.49 C0.9 -1.76, 9.64 -2.61, 12.32 -2.37 C15 -2.12, 13.45 -0.19, 14.97 -0.03 C16.49 0.12, 20.66 -1.21, 21.44 -1.42 M0.52 -2.73 C2.43 -2.92, 9.11 -2.1, 11.91 -1.42 C14.7 -0.75, 15.58 1.71, 17.28 1.34 C18.98 0.96, 21.43 -3.38, 22.09 -3.68" stroke="#000000" stroke-width="1" fill="none"></path></g></g><g stroke-linecap="round"><g transform="translate(74.96306753093813 87.05594031751707) rotate(0 11.799781854398532 -1.609903873184635)"><path d="M-0.37 -0.29 C0.11 -0.38, 1.99 -2.83, 3.21 -2.93 C4.44 -3.03, 4.15 -1.04, 7 -0.91 C9.85 -0.77, 17.5 -1.88, 20.33 -2.12 C23.16 -2.37, 23.41 -2.3, 23.97 -2.39 M1.64 -0.8 C2.44 -0.68, 4.56 -1.64, 5.33 -1.98 C6.11 -2.32, 3.7 -2.91, 6.29 -2.85 C8.87 -2.78, 18.1 -1.72, 20.87 -1.58 C23.63 -1.45, 22.73 -1.65, 22.86 -2.04" stroke="#000000" stroke-width="1" fill="none"></path></g></g><g stroke-linecap="round"><g transform="translate(74.81641002347351 58.94732281979287) rotate(0 10.467910942432695 -0.15003436590242814)"><path d="M1.02 -1.47 C2.32 -1.44, 3.36 -0.91, 6.66 -0.49 C9.97 -0.08, 18.78 0.74, 20.83 1.02 M0.1 0.55 C1.85 0.83, 5.4 1.36, 8.79 1.1 C12.19 0.84, 18.82 -0.68, 20.47 -1.04" stroke="#000000" stroke-width="1" fill="none"></path></g></g><g stroke-linecap="round"><g transform="translate(75.56904067665414 73.65825241145609) rotate(0 10.125844447386669 -0.1131504680196258)"><path d="M-1.13 -1.45 C-0.48 -1.39, 1.98 1.07, 3.56 1.04 C5.14 1, 5.46 -1.55, 8.33 -1.66 C11.2 -1.77, 18.74 0.09, 20.77 0.38 M0.47 0.58 C1.01 0.82, 1.44 -0.43, 2.67 -0.68 C3.9 -0.93, 4.73 -1.26, 7.85 -0.91 C10.97 -0.55, 19.49 1.24, 21.38 1.44" stroke="#000000" stroke-width="1" fill="none"></path></g></g><g stroke-linecap="round"><g transform="translate(85.20148445459085 163.91301652486175) rotate(0 0.883142536428636 -27.779899304060564)"><path d="M1.18 -0.66 C1.31 -10.25, 1.5 -47.83, 1.39 -57.17 M0.35 1.61 C0.29 -7.82, 0.78 -45.59, 0.64 -55.66" stroke="#000000" stroke-width="1" fill="none"></path></g></g><g stroke-linecap="round"><g transform="translate(118.0078125 72.48046875) rotate(0 120.61792983979922 0.7479002046538312)"><path d="M0.4 -0.73 C40.19 -0.7, 199.65 0.71, 239.9 0.89 M-0.86 1.5 C39.2 1.64, 201.67 2.29, 242.09 2.23" stroke="#000000" stroke-width="1" fill="none"></path></g></g><g stroke-linecap="round"><g transform="translate(584.5859375 258.62109375) rotate(0 43.58886246189945 35.87024585790465)"><path d="M-0.47 0.58 C13.67 12.47, 71.09 60.02, 85.34 71.91 M1.48 -0.17 C15.97 11.34, 73.34 58.51, 87.65 70.2" stroke="#000000" stroke-width="1" fill="none"></path></g></g><g transform="translate(64.8828125 10) rotate(0 22.5 12.5)"><text x="0" y="18" font-family="Virgil, Segoe UI Emoji" font-size="20px" fill="#000000" text-anchor="start" style="white-space: pre;" direction="ltr">Logs</text></g><g transform="translate(105.57421875 272.17578125) rotate(0 23.390625 8.121744791666686)"><text x="0" y="11.24348958333334" font-family="Virgil, Segoe UI Emoji" font-size="12.994791666666664px" fill="#000000" text-anchor="start" style="white-space: pre;" direction="ltr">/health</text></g><g stroke-linecap="round"><g transform="translate(161.58203125 280.7734375) rotate(0 96.51901330434254 41.77004204257861)"><path d="M0.58 -0.2 C32.73 14.01, 161.22 70.94, 193.62 84.89 M-0.58 -1.35 C31.31 12.57, 159.91 68.96, 192.46 83.29" stroke="#000000" stroke-width="1" fill="none"></path></g></g></svg>