<svg version="1.1" xmlns="http://www.w3.org/2000/svg" viewBox="0 0 794.8359375 433.84765625" width="1589.671875" height="867.6953125">
  <!-- svg-source:excalidraw -->
  
  <defs>
    <style>
      @font-face {
        font-family: "Virgil";
        src: url("https://excalidraw.com/Virgil.woff2");
      }
      @font-face {
        font-family: "Cascadia";
        src: url("https://excalidraw.com/Cascadia.woff2");
      }
    </style>
  </defs>
  <rect x="0" y="0" width="794.8359375" height="433.84765625" fill="#ffffff"></rect><g stroke-linecap="round" transform="translate(10 180.06640625) rotate(0 73.39453125 59.037109375)"><path d="M0.11 0.3 C41.57 1.16, 80.18 -0.59, 148.17 -0.39 M0.71 -0.71 C31.66 -2.02, 63.71 -0.87, 147.36 0.19 M147.32 0.55 C146.23 27.85, 146.92 52.51, 148.78 116.89 M146.66 0.03 C145.99 42.48, 146.82 83.43, 147.05 117.37 M148.05 118.16 C110.81 116.34, 69.84 117.53, -0.16 116.76 M146.93 118.08 C112.07 119.8, 79.35 119.36, -0.29 118.23 M-1.05 116.47 C0.02 88.1, -0.44 59, 0 -0.97 M0.78 117.79 C1.44 88.79, 1.5 59.13, 0.09 0.96" stroke="#000000" stroke-width="1" fill="none"></path></g><g transform="translate(41.421875 225.26953125) rotate(0 43.5 12.5)"><text x="0" y="18" font-family="Virgil, Segoe UI Emoji" font-size="20px" fill="#000000" text-anchor="start" style="white-space: pre;" direction="ltr">JmsDemo</text></g><g transform="translate(737.1894561895119 97.90523094147966) rotate(0 0.11485772182322762 0.1148577218231992)" stroke="none"><path d="M0 0 C0 0, 0 0, 0 0 M0 0 C0 0, 0 0, 0 0 M-0.01 0.02 C-0.01 0.02, -0.01 0.02, -0.01 0.02 M-0.01 0.02 C-0.01 0.02, -0.01 0.02, -0.01 0.02" stroke="#ffffff" stroke-width="0.5" fill="none"></path><path fill="#ffffff" d="M 2.12,-0.66 Q 2.12,-0.66 2.15,-0.13 2.18,0.40 1.96,0.88 1.74,1.36 1.32,1.69 0.91,2.02 0.38,2.12 -0.13,2.21 -0.64,2.05 -1.14,1.90 -1.52,1.52 -1.90,1.14 -2.05,0.64 -2.21,0.13 -2.12,-0.38 -2.02,-0.91 -1.69,-1.32 -1.36,-1.74 -0.88,-1.96 -0.39,-2.18 0.13,-2.15 0.66,-2.11 1.11,-1.84 1.57,-1.56 1.84,-1.11 L 2.12,-0.66 Z"></path></g><g stroke-linecap="round"><g transform="translate(778.9948965338647 65.61803785137101) rotate(0 -38.013312385745394 -1.799678476370275)" fill-rule="evenodd"><path d="M-63.96 -29.1 C-63.96 -29.1, -63.96 -29.1, -63.96 -29.1 M-63.96 -29.1 C-63.96 -29.1, -63.96 -29.1, -63.96 -29.1 M-72.75 -12.89 C-72.51 -13.16, -72.28 -13.42, -72.09 -13.64 M-72.75 -12.89 C-72.5 -13.17, -72.25 -13.46, -72.09 -13.64 M-66.19 -20.43 C-63.29 -23.76, -60.4 -27.09, -55.03 -33.26 M-66.19 -20.43 C-63.04 -24.05, -59.9 -27.66, -55.03 -33.26 M-75.63 -3.47 C-68.04 -12.21, -60.44 -20.95, -50.7 -32.15 M-75.63 -3.47 C-67.06 -13.33, -58.48 -23.2, -50.7 -32.15 M-74.58 1.42 C-65.16 -9.41, -55.75 -20.25, -41.78 -36.32 M-74.58 1.42 C-67.9 -6.26, -61.23 -13.95, -41.78 -36.32 M-72.87 5.55 C-59.84 -9.44, -46.8 -24.44, -34.17 -38.98 M-72.87 5.55 C-63.06 -5.74, -53.25 -17.02, -34.17 -38.98 M-69.86 8.18 C-55.62 -8.2, -41.39 -24.57, -28.52 -39.37 M-69.86 8.18 C-61.02 -1.99, -52.19 -12.15, -28.52 -39.37 M-66.84 10.8 C-50.41 -8.1, -33.98 -27, -24.19 -38.26 M-66.84 10.8 C-53.75 -4.25, -40.67 -19.3, -24.19 -38.26 M-65.79 15.69 C-50.15 -2.3, -34.52 -20.28, -20.52 -36.39 M-65.79 15.69 C-55.27 3.59, -44.75 -8.52, -20.52 -36.39 M-65.39 21.33 C-48.61 2.03, -31.83 -17.27, -16.84 -34.52 M-65.39 21.33 C-48.75 2.19, -32.12 -16.95, -16.84 -34.52 M-63.68 25.47 C-45.38 4.41, -27.08 -16.64, -13.82 -31.89 M-63.68 25.47 C-52.86 13.01, -42.03 0.55, -13.82 -31.89 M-61.32 28.84 C-47.57 13.02, -33.81 -2.8, -11.46 -28.51 M-61.32 28.84 C-49.48 15.22, -37.63 1.59, -11.46 -28.51 M-58.3 31.47 C-46.24 17.59, -34.17 3.71, -9.75 -24.38 M-58.3 31.47 C-40.67 11.19, -23.05 -9.09, -9.75 -24.38 M-55.28 34.09 C-36.81 12.85, -18.35 -8.4, -8.7 -19.49 M-55.28 34.09 C-41.06 17.73, -26.84 1.38, -8.7 -19.49 M-50.95 35.21 C-34.26 16, -17.56 -3.21, -8.31 -13.85 M-50.95 35.21 C-38.04 20.35, -25.12 5.49, -8.31 -13.85 M-46.62 36.32 C-34.61 22.51, -22.6 8.69, -5.29 -11.22 M-46.62 36.32 C-34.34 22.19, -22.05 8.06, -5.29 -11.22 M-40.98 35.93 C-27.03 19.88, -13.07 3.82, -2.27 -8.6 M-40.98 35.93 C-29.11 22.27, -17.24 8.62, -2.27 -8.6 M-32.06 31.76 C-22.5 20.76, -12.94 9.77, -0.57 -4.47 M-32.06 31.76 C-25.69 24.43, -19.32 17.11, -0.57 -4.47 M-24.44 29.1 C-17.41 21.01, -10.38 12.93, 0.49 0.42 M-24.44 29.1 C-17.41 21.01, -10.38 12.93, 0.49 0.42 M-19.46 29.46 C-15.85 25.31, -12.25 21.17, -8.96 17.39 M-19.46 29.46 C-16.87 26.48, -14.28 23.5, -8.96 17.39 M-58.79 31.05 C-58.79 31.05, -58.79 31.05, -58.79 31.05 M-58.79 31.05 C-58.79 31.05, -58.79 31.05, -58.79 31.05 M-47.11 35.9 C-52.19 31.48, -57.28 27.06, -65.22 20.16 M-47.11 35.9 C-52.44 31.27, -57.77 26.63, -65.22 20.16 M-42.22 34.85 C-49.52 28.5, -56.83 22.16, -66.37 13.86 M-42.22 34.85 C-51.04 27.18, -59.87 19.51, -66.37 13.86 M-37.33 33.8 C-50.48 22.37, -63.63 10.94, -75.07 1 M-37.33 33.8 C-46.64 25.71, -55.96 17.61, -75.07 1 M-33.2 32.09 C-44.49 22.28, -55.79 12.46, -75.46 -4.65 M-33.2 32.09 C-44.86 21.95, -56.53 11.81, -75.46 -4.65 M-29.82 29.73 C-45.31 16.26, -60.8 2.8, -75.1 -9.63 M-29.82 29.73 C-40.81 20.18, -51.8 10.62, -75.1 -9.63 M-24.93 28.68 C-39.99 15.59, -55.05 2.5, -72.48 -12.65 M-24.93 28.68 C-42.23 13.65, -59.52 -1.39, -72.48 -12.65 M-18.53 28.94 C-29.81 19.14, -41.09 9.33, -69.85 -15.67 M-18.53 28.94 C-31.8 17.41, -45.07 5.87, -69.85 -15.67 M-14.4 27.24 C-34.72 9.58, -55.03 -8.08, -66.48 -18.03 M-14.4 27.24 C-31.26 12.58, -48.11 -2.07, -66.48 -18.03 M-11.02 24.87 C-27.65 10.42, -44.28 -4.04, -66.11 -23.02 M-11.02 24.87 C-28 10.11, -44.98 -4.65, -66.11 -23.02 M-9.15 21.2 C-30.89 2.3, -52.62 -16.59, -65 -27.35 M-9.15 21.2 C-25.26 7.2, -41.36 -6.8, -65 -27.35 M-9.55 15.55 C-23.88 3.09, -38.22 -9.37, -62.38 -30.37 M-9.55 15.55 C-22.38 4.4, -35.21 -6.76, -62.38 -30.37 M-6.92 12.54 C-26.61 -4.58, -46.3 -21.7, -59 -32.73 M-6.92 12.54 C-18.79 2.22, -30.66 -8.1, -59 -32.73 M-3.54 10.17 C-22.17 -6.02, -40.8 -22.21, -53.35 -33.13 M-3.54 10.17 C-21.06 -5.06, -38.58 -20.29, -53.35 -33.13 M-1.67 6.5 C-19.05 -8.61, -36.43 -23.71, -46.96 -32.87 M-1.67 6.5 C-17.52 -7.28, -33.37 -21.06, -46.96 -32.87 M0.2 2.82 C-9.32 -5.45, -18.84 -13.73, -43.58 -35.23 M0.2 2.82 C-15.6 -10.91, -31.4 -24.64, -43.58 -35.23 M-0.2 -2.82 C-16.01 -16.56, -31.82 -30.31, -40.2 -37.59 M-0.2 -2.82 C-12.19 -13.24, -24.17 -23.66, -40.2 -37.59 M-9.65 -16.34 C-19.49 -24.89, -29.33 -33.44, -36.06 -39.3 M-9.65 -16.34 C-15.84 -21.71, -22.02 -27.09, -36.06 -39.3 M-9.29 -21.32 C-16.99 -28.02, -24.69 -34.71, -30.42 -39.69 M-9.29 -21.32 C-16.89 -27.93, -24.49 -34.54, -30.42 -39.69 M-11.95 -28.93 C-15.88 -32.35, -19.81 -35.77, -22.51 -38.12 M-11.95 -28.93 C-15.89 -32.36, -19.84 -35.79, -22.51 -38.12" stroke="#FFF" stroke-width="0.5" fill="none"></path><path d="M0 0 C0 0, 0 0, 0 0 M0 0 C0 0, 0 0, 0 0 M0 0 C-0.02 -0.42, -0.03 -0.85, -0.05 -1.19 M0 0 C-0.02 -0.43, -0.03 -0.87, -0.05 -1.19 M-0.05 -1.19 C-0.1 -1.65, -0.15 -2.11, -0.18 -2.35 M-0.05 -1.19 C-0.07 -1.43, -0.1 -1.68, -0.18 -2.35 M-0.18 -2.35 C-0.26 -2.73, -0.33 -3.11, -0.41 -3.49 M-0.18 -2.35 C-0.24 -2.66, -0.3 -2.96, -0.41 -3.49 M-0.41 -3.49 C-0.51 -3.87, -0.62 -4.24, -0.71 -4.59 M-0.41 -3.49 C-0.49 -3.8, -0.58 -4.12, -0.71 -4.59 M-0.71 -4.59 C-0.86 -4.99, -1 -5.38, -1.1 -5.66 M-0.71 -4.59 C-0.84 -4.95, -0.97 -5.3, -1.1 -5.66 M-1.1 -5.66 C-1.26 -6.01, -1.41 -6.35, -1.57 -6.69 M-1.1 -5.66 C-1.28 -6.05, -1.45 -6.44, -1.57 -6.69 M-1.57 -6.69 C-1.77 -7.07, -1.98 -7.44, -2.11 -7.68 M-1.57 -6.69 C-1.71 -6.96, -1.86 -7.23, -2.11 -7.68 M-2.11 -7.68 C-2.28 -7.94, -2.44 -8.19, -2.72 -8.63 M-2.11 -7.68 C-2.3 -7.98, -2.5 -8.28, -2.72 -8.63 M-2.72 -8.63 C-2.89 -8.84, -3.05 -9.06, -3.41 -9.52 M-2.72 -8.63 C-2.89 -8.84, -3.06 -9.06, -3.41 -9.52 M-3.41 -9.52 C-3.56 -9.69, -3.72 -9.87, -4.15 -10.36 M-3.41 -9.52 C-3.69 -9.84, -3.98 -10.17, -4.15 -10.36 M-4.15 -10.36 C-4.47 -10.67, -4.79 -10.98, -4.97 -11.15 M-4.15 -10.36 C-4.36 -10.56, -4.56 -10.75, -4.97 -11.15 M-4.97 -11.15 C-5.28 -11.41, -5.6 -11.67, -5.84 -11.87 M-4.97 -11.15 C-5.22 -11.36, -5.48 -11.57, -5.84 -11.87 M-5.84 -11.87 C-6.06 -12.03, -6.29 -12.19, -6.77 -12.53 M-5.84 -11.87 C-6.13 -12.08, -6.42 -12.28, -6.77 -12.53 M-6.77 -12.53 C-7.09 -12.72, -7.41 -12.92, -7.75 -13.12 M-6.77 -12.53 C-7.16 -12.76, -7.55 -13, -7.75 -13.12 M-7.75 -13.12 C-8.11 -13.3, -8.46 -13.48, -8.79 -13.64 M-7.75 -13.12 C-8.08 -13.28, -8.4 -13.45, -8.79 -13.64 M-8.79 -13.64 C-9.05 -13.75, -9.31 -13.86, -9.87 -14.09 M-8.79 -13.64 C-9.09 -13.77, -9.4 -13.89, -9.87 -14.09 M-9.87 -14.09 C-9.8 -14.56, -9.74 -15.03, -9.59 -16.13 M-9.87 -14.09 C-9.77 -14.81, -9.67 -15.52, -9.59 -16.13 M-9.59 -16.13 C-9.57 -16.56, -9.55 -17, -9.5 -18.18 M-9.59 -16.13 C-9.55 -16.9, -9.52 -17.67, -9.5 -18.18 M-9.5 -18.18 C-9.54 -19.04, -9.58 -19.9, -9.61 -20.38 M-9.5 -18.18 C-9.54 -19.01, -9.58 -19.84, -9.61 -20.38 M-9.61 -20.38 C-9.71 -21.04, -9.81 -21.71, -9.93 -22.51 M-9.61 -20.38 C-9.72 -21.1, -9.83 -21.83, -9.93 -22.51 M-9.93 -22.51 C-10.08 -23.08, -10.23 -23.65, -10.46 -24.57 M-9.93 -22.51 C-10.13 -23.27, -10.32 -24.03, -10.46 -24.57 M-10.46 -24.57 C-10.73 -25.3, -11 -26.04, -11.18 -26.54 M-10.46 -24.57 C-10.66 -25.12, -10.86 -25.66, -11.18 -26.54 M-11.18 -26.54 C-11.46 -27.11, -11.73 -27.67, -12.09 -28.42 M-11.18 -26.54 C-11.5 -27.2, -11.82 -27.86, -12.09 -28.42 M-12.09 -28.42 C-12.51 -29.11, -12.93 -29.81, -13.16 -30.19 M-12.09 -28.42 C-12.44 -29, -12.8 -29.58, -13.16 -30.19 M-13.16 -30.19 C-13.46 -30.59, -13.76 -30.99, -14.4 -31.84 M-13.16 -30.19 C-13.63 -30.81, -14.1 -31.44, -14.4 -31.84 M-14.4 -31.84 C-14.85 -32.34, -15.31 -32.84, -15.79 -33.37 M-14.4 -31.84 C-14.77 -32.25, -15.14 -32.66, -15.79 -33.37 M-15.79 -33.37 C-16.15 -33.69, -16.51 -34.02, -17.31 -34.75 M-15.79 -33.37 C-16.31 -33.84, -16.84 -34.32, -17.31 -34.75 M-17.31 -34.75 C-17.8 -35.12, -18.29 -35.48, -18.97 -35.99 M-17.31 -34.75 C-17.82 -35.13, -18.33 -35.52, -18.97 -35.99 M-18.97 -35.99 C-19.65 -36.41, -20.34 -36.83, -20.74 -37.06 M-18.97 -35.99 C-19.65 -36.4, -20.33 -36.82, -20.74 -37.06 M-20.74 -37.06 C-21.46 -37.41, -22.18 -37.76, -22.61 -37.97 M-20.74 -37.06 C-21.31 -37.34, -21.88 -37.62, -22.61 -37.97 M-22.61 -37.97 C-23.33 -38.23, -24.04 -38.49, -24.59 -38.69 M-22.61 -37.97 C-23.15 -38.17, -23.68 -38.36, -24.59 -38.69 M-24.59 -38.69 C-25.07 -38.82, -25.56 -38.94, -26.64 -39.22 M-24.59 -38.69 C-25.29 -38.87, -26 -39.06, -26.64 -39.22 M-26.64 -39.22 C-27.46 -39.35, -28.28 -39.47, -28.77 -39.55 M-26.64 -39.22 C-27.08 -39.29, -27.53 -39.36, -28.77 -39.55 M-28.77 -39.55 C-29.35 -39.58, -29.92 -39.6, -30.97 -39.66 M-28.77 -39.55 C-29.54 -39.59, -30.31 -39.62, -30.97 -39.66 M-30.97 -39.66 C-31.28 -39.65, -31.59 -39.64, -32.26 -39.62 M-30.97 -39.66 C-31.28 -39.65, -31.59 -39.64, -32.26 -39.62 M-32.26 -39.62 C-32.55 -39.59, -32.84 -39.57, -33.53 -39.51 M-32.26 -39.62 C-32.63 -39.59, -33 -39.55, -33.53 -39.51 M-33.53 -39.51 C-33.89 -39.45, -34.26 -39.4, -34.79 -39.32 M-33.53 -39.51 C-33.84 -39.46, -34.16 -39.41, -34.79 -39.32 M-34.79 -39.32 C-35.12 -39.25, -35.46 -39.17, -36.02 -39.06 M-34.79 -39.32 C-35.24 -39.22, -35.69 -39.13, -36.02 -39.06 M-36.02 -39.06 C-36.32 -38.98, -36.61 -38.9, -37.24 -38.72 M-36.02 -39.06 C-36.46 -38.94, -36.9 -38.81, -37.24 -38.72 M-37.24 -38.72 C-37.58 -38.61, -37.92 -38.49, -38.43 -38.32 M-37.24 -38.72 C-37.49 -38.64, -37.75 -38.55, -38.43 -38.32 M-38.43 -38.32 C-38.86 -38.14, -39.29 -37.97, -39.6 -37.85 M-38.43 -38.32 C-38.81 -38.16, -39.2 -38.01, -39.6 -37.85 M-39.6 -37.85 C-39.97 -37.67, -40.35 -37.49, -40.73 -37.31 M-39.6 -37.85 C-39.95 -37.68, -40.3 -37.51, -40.73 -37.31 M-40.73 -37.31 C-41.08 -37.11, -41.43 -36.92, -41.83 -36.7 M-40.73 -37.31 C-41.11 -37.1, -41.49 -36.89, -41.83 -36.7 M-41.83 -36.7 C-42.07 -36.55, -42.31 -36.4, -42.89 -36.03 M-41.83 -36.7 C-42.22 -36.45, -42.62 -36.2, -42.89 -36.03 M-42.89 -36.03 C-43.19 -35.82, -43.49 -35.6, -43.92 -35.3 M-42.89 -36.03 C-43.15 -35.85, -43.41 -35.66, -43.92 -35.3 M-43.92 -35.3 C-44.26 -35.02, -44.61 -34.74, -44.9 -34.5 M-43.92 -35.3 C-44.26 -35.02, -44.6 -34.74, -44.9 -34.5 M-44.9 -34.5 C-45.13 -34.29, -45.36 -34.08, -45.84 -33.64 M-44.9 -34.5 C-45.19 -34.23, -45.48 -33.97, -45.84 -33.64 M-45.84 -33.64 C-46.06 -33.41, -46.29 -33.17, -46.72 -32.73 M-45.84 -33.64 C-46.04 -33.43, -46.24 -33.22, -46.72 -32.73 M-46.72 -32.73 C-46.99 -32.42, -47.25 -32.11, -47.56 -31.75 M-46.72 -32.73 C-46.92 -32.5, -47.11 -32.28, -47.56 -31.75 M-47.56 -31.75 C-47.76 -31.5, -47.95 -31.24, -48.35 -30.72 M-47.56 -31.75 C-47.75 -31.51, -47.94 -31.26, -48.35 -30.72 M-48.35 -30.72 C-48.64 -30.93, -48.93 -31.14, -49.11 -31.27 M-48.35 -30.72 C-48.62 -30.92, -48.89 -31.11, -49.11 -31.27 M-49.11 -31.27 C-49.43 -31.46, -49.74 -31.64, -49.91 -31.74 M-49.11 -31.27 C-49.31 -31.38, -49.5 -31.5, -49.91 -31.74 M-49.91 -31.74 C-50.17 -31.87, -50.42 -31.99, -50.75 -32.15 M-49.91 -31.74 C-50.14 -31.86, -50.37 -31.97, -50.75 -32.15 M-50.75 -32.15 C-51.04 -32.26, -51.32 -32.37, -51.61 -32.48 M-50.75 -32.15 C-51.04 -32.26, -51.34 -32.38, -51.61 -32.48 M-51.61 -32.48 C-51.88 -32.56, -52.14 -32.64, -52.5 -32.74 M-51.61 -32.48 C-51.79 -32.53, -51.97 -32.59, -52.5 -32.74 M-52.5 -32.74 C-52.74 -32.79, -52.97 -32.84, -53.42 -32.93 M-52.5 -32.74 C-52.75 -32.79, -53 -32.84, -53.42 -32.93 M-53.42 -32.93 C-53.72 -32.97, -54.03 -33, -54.35 -33.04 M-53.42 -32.93 C-53.79 -32.97, -54.16 -33.02, -54.35 -33.04 M-54.35 -33.04 C-54.65 -33.05, -54.96 -33.07, -55.3 -33.08 M-54.35 -33.04 C-54.56 -33.05, -54.76 -33.06, -55.3 -33.08 M-55.3 -33.08 C-55.7 -33.06, -56.1 -33.04, -56.46 -33.02 M-55.3 -33.08 C-55.71 -33.06, -56.12 -33.04, -56.46 -33.02 M-56.46 -33.02 C-56.74 -32.98, -57.03 -32.93, -57.59 -32.85 M-56.46 -33.02 C-56.89 -32.95, -57.33 -32.89, -57.59 -32.85 M-57.59 -32.85 C-57.86 -32.78, -58.13 -32.71, -58.68 -32.57 M-57.59 -32.85 C-57.82 -32.79, -58.04 -32.73, -58.68 -32.57 M-58.68 -32.57 C-59.02 -32.44, -59.37 -32.32, -59.73 -32.19 M-58.68 -32.57 C-58.92 -32.48, -59.16 -32.39, -59.73 -32.19 M-59.73 -32.19 C-60.02 -32.04, -60.32 -31.9, -60.72 -31.71 M-59.73 -32.19 C-60.05 -32.03, -60.38 -31.87, -60.72 -31.71 M-60.72 -31.71 C-61.1 -31.48, -61.47 -31.25, -61.67 -31.14 M-60.72 -31.71 C-60.95 -31.57, -61.17 -31.43, -61.67 -31.14 M-61.67 -31.14 C-61.95 -30.92, -62.24 -30.71, -62.55 -30.48 M-61.67 -31.14 C-61.95 -30.93, -62.23 -30.72, -62.55 -30.48 M-62.55 -30.48 C-62.76 -30.28, -62.98 -30.09, -63.36 -29.74 M-62.55 -30.48 C-62.82 -30.23, -63.09 -29.98, -63.36 -29.74 M-63.36 -29.74 C-63.59 -29.49, -63.83 -29.23, -64.1 -28.93 M-63.36 -29.74 C-63.53 -29.56, -63.7 -29.37, -64.1 -28.93 M-64.1 -28.93 C-64.3 -28.66, -64.5 -28.39, -64.76 -28.05 M-64.1 -28.93 C-64.29 -28.68, -64.48 -28.42, -64.76 -28.05 M-64.76 -28.05 C-64.89 -27.84, -65.02 -27.63, -65.33 -27.11 M-64.76 -28.05 C-64.95 -27.73, -65.15 -27.41, -65.33 -27.11 M-65.33 -27.11 C-65.45 -26.86, -65.58 -26.61, -65.81 -26.11 M-65.33 -27.11 C-65.48 -26.81, -65.62 -26.51, -65.81 -26.11 M-65.81 -26.11 C-65.96 -25.73, -66.1 -25.34, -66.2 -25.06 M-65.81 -26.11 C-65.96 -25.72, -66.1 -25.33, -66.2 -25.06 M-66.2 -25.06 C-66.31 -24.63, -66.42 -24.2, -66.48 -23.97 M-66.2 -25.06 C-66.26 -24.84, -66.32 -24.61, -66.48 -23.97 M-66.48 -23.97 C-66.52 -23.72, -66.56 -23.47, -66.66 -22.83 M-66.48 -23.97 C-66.53 -23.65, -66.58 -23.32, -66.66 -22.83 M-66.66 -22.83 C-66.68 -22.37, -66.71 -21.9, -66.72 -21.66 M-66.66 -22.83 C-66.67 -22.5, -66.69 -22.16, -66.72 -21.66 M-66.72 -21.66 C-66.71 -21.44, -66.7 -21.22, -66.67 -20.64 M-66.72 -21.66 C-66.71 -21.39, -66.69 -21.11, -66.67 -20.64 M-66.67 -20.64 C-66.63 -20.36, -66.6 -20.08, -66.54 -19.63 M-66.67 -20.64 C-66.64 -20.39, -66.61 -20.14, -66.54 -19.63 M-66.54 -19.63 C-66.46 -19.27, -66.39 -18.92, -66.32 -18.64 M-66.54 -19.63 C-66.46 -19.27, -66.38 -18.92, -66.32 -18.64 M-66.32 -18.64 C-66.26 -18.43, -66.2 -18.23, -66.03 -17.69 M-66.32 -18.64 C-66.25 -18.41, -66.18 -18.17, -66.03 -17.69 M-66.03 -17.69 C-66.27 -17.6, -66.51 -17.5, -67.13 -17.26 M-66.03 -17.69 C-66.28 -17.59, -66.53 -17.49, -67.13 -17.26 M-67.13 -17.26 C-67.51 -17.08, -67.89 -16.89, -68.17 -16.75 M-67.13 -17.26 C-67.41 -17.12, -67.7 -16.99, -68.17 -16.75 M-68.17 -16.75 C-68.49 -16.57, -68.8 -16.38, -69.17 -16.17 M-68.17 -16.75 C-68.55 -16.53, -68.93 -16.31, -69.17 -16.17 M-69.17 -16.17 C-69.38 -16.02, -69.59 -15.88, -70.11 -15.51 M-69.17 -16.17 C-69.5 -15.94, -69.82 -15.71, -70.11 -15.51 M-70.11 -15.51 C-70.41 -15.26, -70.72 -15.01, -70.99 -14.79 M-70.11 -15.51 C-70.43 -15.25, -70.74 -14.99, -70.99 -14.79 M-70.99 -14.79 C-71.21 -14.58, -71.43 -14.36, -71.81 -14 M-70.99 -14.79 C-71.27 -14.52, -71.55 -14.25, -71.81 -14 M-71.81 -14 C-72.08 -13.7, -72.35 -13.4, -72.57 -13.15 M-71.81 -14 C-72.08 -13.7, -72.35 -13.4, -72.57 -13.15 M-72.57 -13.15 C-72.8 -12.85, -73.03 -12.55, -73.26 -12.25 M-72.57 -13.15 C-72.81 -12.84, -73.06 -12.52, -73.26 -12.25 M-73.26 -12.25 C-73.49 -11.91, -73.71 -11.57, -73.89 -11.3 M-73.26 -12.25 C-73.5 -11.89, -73.73 -11.54, -73.89 -11.3 M-73.89 -11.3 C-74 -11.09, -74.12 -10.88, -74.44 -10.3 M-73.89 -11.3 C-74.06 -10.98, -74.23 -10.67, -74.44 -10.3 M-74.44 -10.3 C-74.59 -9.95, -74.75 -9.6, -74.91 -9.26 M-74.44 -10.3 C-74.57 -10, -74.71 -9.7, -74.91 -9.26 M-74.91 -9.26 C-75.01 -8.98, -75.11 -8.7, -75.3 -8.18 M-74.91 -9.26 C-74.99 -9.03, -75.08 -8.8, -75.3 -8.18 M-75.3 -8.18 C-75.37 -7.94, -75.44 -7.69, -75.62 -7.07 M-75.3 -8.18 C-75.42 -7.75, -75.54 -7.33, -75.62 -7.07 M-75.62 -7.07 C-75.71 -6.62, -75.8 -6.17, -75.84 -5.94 M-75.62 -7.07 C-75.67 -6.78, -75.73 -6.49, -75.84 -5.94 M-75.84 -5.94 C-75.89 -5.56, -75.93 -5.19, -75.98 -4.78 M-75.84 -5.94 C-75.87 -5.7, -75.9 -5.47, -75.98 -4.78 M-75.98 -4.78 C-75.99 -4.41, -76.01 -4.04, -76.03 -3.6 M-75.98 -4.78 C-75.99 -4.43, -76.01 -4.07, -76.03 -3.6 M-76.03 -3.6 C-76.01 -3.24, -76 -2.88, -75.98 -2.41 M-76.03 -3.6 C-76.01 -3.24, -76 -2.87, -75.98 -2.41 M-75.98 -2.41 C-75.95 -2.12, -75.91 -1.83, -75.84 -1.25 M-75.98 -2.41 C-75.95 -2.15, -75.92 -1.88, -75.84 -1.25 M-75.84 -1.25 C-75.76 -0.81, -75.67 -0.37, -75.62 -0.11 M-75.84 -1.25 C-75.78 -0.9, -75.71 -0.55, -75.62 -0.11 M-75.62 -0.11 C-75.55 0.13, -75.49 0.37, -75.31 1 M-75.62 -0.11 C-75.51 0.3, -75.39 0.71, -75.31 1 M-75.31 1 C-75.17 1.39, -75.03 1.78, -74.92 2.08 M-75.31 1 C-75.22 1.26, -75.12 1.52, -74.92 2.08 M-74.92 2.08 C-74.75 2.47, -74.57 2.86, -74.46 3.11 M-74.92 2.08 C-74.79 2.38, -74.65 2.67, -74.46 3.11 M-74.46 3.11 C-74.25 3.49, -74.04 3.87, -73.91 4.11 M-74.46 3.11 C-74.35 3.32, -74.24 3.52, -73.91 4.11 M-73.91 4.11 C-73.74 4.37, -73.57 4.63, -73.3 5.06 M-73.91 4.11 C-73.68 4.47, -73.44 4.84, -73.3 5.06 M-73.3 5.06 C-73.05 5.38, -72.8 5.71, -72.61 5.96 M-73.3 5.06 C-73.09 5.33, -72.88 5.61, -72.61 5.96 M-72.61 5.96 C-72.31 6.29, -72.01 6.63, -71.86 6.8 M-72.61 5.96 C-72.39 6.21, -72.16 6.46, -71.86 6.8 M-71.86 6.8 C-71.55 7.1, -71.24 7.4, -71.04 7.59 M-71.86 6.8 C-71.6 7.05, -71.35 7.29, -71.04 7.59 M-71.04 7.59 C-70.86 7.74, -70.68 7.89, -70.16 8.32 M-71.04 7.59 C-70.77 7.82, -70.51 8.04, -70.16 8.32 M-70.16 8.32 C-69.91 8.5, -69.65 8.68, -69.23 8.99 M-70.16 8.32 C-69.96 8.46, -69.77 8.6, -69.23 8.99 M-69.23 8.99 C-68.91 9.18, -68.59 9.37, -68.23 9.58 M-69.23 8.99 C-68.91 9.17, -68.6 9.36, -68.23 9.58 M-68.23 9.58 C-67.98 9.71, -67.73 9.83, -67.19 10.1 M-68.23 9.58 C-67.98 9.71, -67.74 9.83, -67.19 10.1 M-67.19 10.1 C-66.84 10.25, -66.48 10.39, -66.1 10.55 M-67.19 10.1 C-66.87 10.23, -66.56 10.36, -66.1 10.55 M-66.1 10.55 C-66.17 11.06, -66.24 11.56, -66.38 12.55 M-66.1 10.55 C-66.17 11.08, -66.24 11.61, -66.38 12.55 M-66.38 12.55 C-66.41 13.31, -66.44 14.06, -66.47 14.65 M-66.38 12.55 C-66.4 12.99, -66.41 13.43, -66.47 14.65 M-66.47 14.65 C-66.44 15.15, -66.42 15.66, -66.36 16.83 M-66.47 14.65 C-66.42 15.51, -66.38 16.38, -66.36 16.83 M-66.36 16.83 C-66.25 17.55, -66.14 18.28, -66.03 18.95 M-66.36 16.83 C-66.26 17.47, -66.16 18.12, -66.03 18.95 M-66.03 18.95 C-65.89 19.5, -65.75 20.06, -65.5 21 M-66.03 18.95 C-65.83 19.73, -65.63 20.51, -65.5 21 M-65.5 21 C-65.26 21.66, -65.02 22.32, -64.78 22.97 M-65.5 21 C-65.33 21.46, -65.16 21.92, -64.78 22.97 M-64.78 22.97 C-64.59 23.37, -64.39 23.77, -63.88 24.84 M-64.78 22.97 C-64.42 23.71, -64.06 24.45, -63.88 24.84 M-63.88 24.84 C-63.48 25.5, -63.07 26.16, -62.8 26.6 M-63.88 24.84 C-63.55 25.38, -63.22 25.91, -62.8 26.6 M-62.8 26.6 C-62.45 27.07, -62.1 27.54, -61.57 28.25 M-62.8 26.6 C-62.47 27.05, -62.14 27.49, -61.57 28.25 M-61.57 28.25 C-61.21 28.64, -60.86 29.03, -60.19 29.77 M-61.57 28.25 C-61.22 28.64, -60.87 29.02, -60.19 29.77 M-60.19 29.77 C-59.8 30.13, -59.41 30.48, -58.66 31.16 M-60.19 29.77 C-59.8 30.12, -59.42 30.47, -58.66 31.16 M-58.66 31.16 C-58.11 31.57, -57.55 31.99, -57.01 32.39 M-58.66 31.16 C-58.24 31.47, -57.82 31.79, -57.01 32.39 M-57.01 32.39 C-56.55 32.68, -56.08 32.96, -55.25 33.47 M-57.01 32.39 C-56.59 32.65, -56.17 32.91, -55.25 33.47 M-55.25 33.47 C-54.62 33.77, -53.99 34.08, -53.38 34.37 M-55.25 33.47 C-54.64 33.76, -54.03 34.06, -53.38 34.37 M-53.38 34.37 C-52.95 34.53, -52.53 34.68, -51.41 35.09 M-53.38 34.37 C-52.66 34.64, -51.93 34.9, -51.41 35.09 M-51.41 35.09 C-50.71 35.27, -50.01 35.45, -49.36 35.62 M-51.41 35.09 C-50.76 35.26, -50.12 35.43, -49.36 35.62 M-49.36 35.62 C-48.58 35.74, -47.79 35.86, -47.24 35.95 M-49.36 35.62 C-48.93 35.69, -48.5 35.76, -47.24 35.95 M-47.24 35.95 C-46.38 35.99, -45.52 36.03, -45.06 36.06 M-47.24 35.95 C-46.55 35.98, -45.87 36.02, -45.06 36.06 M-45.06 36.06 C-44.59 36.04, -44.12 36.03, -43.76 36.02 M-45.06 36.06 C-44.59 36.04, -44.13 36.03, -43.76 36.02 M-43.76 36.02 C-43.37 35.98, -42.98 35.95, -42.48 35.9 M-43.76 36.02 C-43.44 35.99, -43.13 35.96, -42.48 35.9 M-42.48 35.9 C-42.01 35.83, -41.55 35.76, -41.22 35.71 M-42.48 35.9 C-42.13 35.85, -41.79 35.8, -41.22 35.71 M-41.22 35.71 C-40.92 35.65, -40.62 35.59, -39.98 35.45 M-41.22 35.71 C-40.87 35.64, -40.52 35.56, -39.98 35.45 M-39.98 35.45 C-39.55 35.33, -39.12 35.21, -38.76 35.11 M-39.98 35.45 C-39.69 35.37, -39.4 35.29, -38.76 35.11 M-38.76 35.11 C-38.36 34.97, -37.96 34.84, -37.57 34.7 M-38.76 35.11 C-38.51 35.02, -38.25 34.94, -37.57 34.7 M-37.57 34.7 C-37.31 34.6, -37.05 34.49, -36.41 34.23 M-37.57 34.7 C-37.15 34.53, -36.73 34.36, -36.41 34.23 M-36.41 34.23 C-36.08 34.07, -35.75 33.91, -35.27 33.68 M-36.41 34.23 C-36.09 34.07, -35.77 33.92, -35.27 33.68 M-35.27 33.68 C-34.99 33.53, -34.71 33.37, -34.18 33.08 M-35.27 33.68 C-35.05 33.56, -34.82 33.43, -34.18 33.08 M-34.18 33.08 C-33.8 32.84, -33.43 32.6, -33.12 32.4 M-34.18 33.08 C-33.79 32.83, -33.4 32.58, -33.12 32.4 M-33.12 32.4 C-32.81 32.18, -32.51 31.97, -32.1 31.67 M-33.12 32.4 C-32.74 32.13, -32.36 31.85, -32.1 31.67 M-32.1 31.67 C-31.75 31.39, -31.41 31.11, -31.12 30.87 M-32.1 31.67 C-31.72 31.36, -31.35 31.06, -31.12 30.87 M-31.12 30.87 C-30.8 30.58, -30.48 30.29, -30.19 30.02 M-31.12 30.87 C-30.85 30.63, -30.58 30.38, -30.19 30.02 M-30.19 30.02 C-29.95 29.77, -29.71 29.53, -29.3 29.11 M-30.19 30.02 C-29.94 29.77, -29.69 29.51, -29.3 29.11 M-29.3 29.11 C-29 28.76, -28.7 28.42, -28.46 28.14 M-29.3 29.11 C-29.11 28.89, -28.92 28.68, -28.46 28.14 M-28.46 28.14 C-28.27 27.89, -28.07 27.63, -27.68 27.12 M-28.46 28.14 C-28.27 27.89, -28.08 27.64, -27.68 27.12 M-27.68 27.12 C-27.48 27.27, -27.27 27.41, -26.91 27.67 M-27.68 27.12 C-27.46 27.28, -27.24 27.44, -26.91 27.67 M-26.91 27.67 C-26.75 27.77, -26.59 27.86, -26.1 28.15 M-26.91 27.67 C-26.67 27.82, -26.42 27.97, -26.1 28.15 M-26.1 28.15 C-25.8 28.3, -25.49 28.45, -25.26 28.57 M-26.1 28.15 C-25.92 28.25, -25.73 28.34, -25.26 28.57 M-25.26 28.57 C-24.92 28.7, -24.57 28.84, -24.38 28.91 M-25.26 28.57 C-24.97 28.68, -24.69 28.79, -24.38 28.91 M-24.38 28.91 C-24.12 28.99, -23.85 29.07, -23.48 29.19 M-24.38 28.91 C-24.19 28.97, -23.99 29.03, -23.48 29.19 M-23.48 29.19 C-23.24 29.24, -23 29.29, -22.56 29.38 M-23.48 29.19 C-23.29 29.23, -23.1 29.27, -22.56 29.38 M-22.56 29.38 C-22.29 29.42, -22.03 29.45, -21.62 29.5 M-22.56 29.38 C-22.29 29.42, -22.02 29.45, -21.62 29.5 M-21.62 29.5 C-21.24 29.52, -20.87 29.53, -20.67 29.54 M-21.62 29.5 C-21.34 29.51, -21.07 29.52, -20.67 29.54 M-20.67 29.54 C-20.33 29.52, -19.99 29.51, -19.51 29.48 M-20.67 29.54 C-20.34 29.53, -20.01 29.51, -19.51 29.48 M-19.51 29.48 C-19.1 29.42, -18.7 29.36, -18.38 29.31 M-19.51 29.48 C-19.12 29.42, -18.73 29.36, -18.38 29.31 M-18.38 29.31 C-18.08 29.23, -17.78 29.16, -17.29 29.03 M-18.38 29.31 C-18.04 29.22, -17.69 29.14, -17.29 29.03 M-17.29 29.03 C-17.01 28.93, -16.73 28.83, -16.24 28.65 M-17.29 29.03 C-16.88 28.88, -16.47 28.73, -16.24 28.65 M-16.24 28.65 C-15.92 28.49, -15.59 28.34, -15.24 28.17 M-16.24 28.65 C-15.94 28.5, -15.63 28.36, -15.24 28.17 M-15.24 28.17 C-15.04 28.05, -14.85 27.93, -14.3 27.6 M-15.24 28.17 C-14.98 28.01, -14.72 27.85, -14.3 27.6 M-14.3 27.6 C-14.03 27.4, -13.76 27.19, -13.42 26.94 M-14.3 27.6 C-14.1 27.45, -13.9 27.3, -13.42 26.94 M-13.42 26.94 C-13.23 26.77, -13.05 26.6, -12.61 26.21 M-13.42 26.94 C-13.18 26.72, -12.94 26.5, -12.61 26.21 M-12.61 26.21 C-12.42 26, -12.24 25.8, -11.87 25.4 M-12.61 26.21 C-12.4 25.98, -12.19 25.74, -11.87 25.4 M-11.87 25.4 C-11.65 25.1, -11.43 24.81, -11.21 24.52 M-11.87 25.4 C-11.62 25.07, -11.38 24.74, -11.21 24.52 M-11.21 24.52 C-11.01 24.19, -10.81 23.87, -10.63 23.58 M-11.21 24.52 C-11.02 24.21, -10.83 23.9, -10.63 23.58 M-10.63 23.58 C-10.49 23.28, -10.35 22.99, -10.15 22.58 M-10.63 23.58 C-10.5 23.31, -10.37 23.04, -10.15 22.58 M-10.15 22.58 C-10.02 22.22, -9.89 21.86, -9.76 21.53 M-10.15 22.58 C-10.06 22.33, -9.97 22.08, -9.76 21.53 M-9.76 21.53 C-9.7 21.26, -9.63 21, -9.48 20.43 M-9.76 21.53 C-9.65 21.1, -9.55 20.68, -9.48 20.43 M-9.48 20.43 C-9.42 20.03, -9.36 19.63, -9.31 19.29 M-9.48 20.43 C-9.42 20.05, -9.36 19.67, -9.31 19.29 M-9.31 19.29 C-9.29 18.98, -9.27 18.66, -9.25 18.12 M-9.31 19.29 C-9.29 18.87, -9.26 18.44, -9.25 18.12 M-9.25 18.12 C-9.26 17.86, -9.27 17.6, -9.29 17.1 M-9.25 18.12 C-9.26 17.74, -9.28 17.35, -9.29 17.1 M-9.29 17.1 C-9.33 16.85, -9.36 16.61, -9.43 16.09 M-9.29 17.1 C-9.33 16.82, -9.37 16.53, -9.43 16.09 M-9.43 16.09 C-9.49 15.8, -9.55 15.52, -9.64 15.1 M-9.43 16.09 C-9.5 15.74, -9.58 15.38, -9.64 15.1 M-9.64 15.1 C-9.75 14.74, -9.86 14.38, -9.93 14.15 M-9.64 15.1 C-9.71 14.87, -9.78 14.63, -9.93 14.15 M-9.93 14.15 C-9.65 14.04, -9.38 13.92, -8.86 13.71 M-9.93 14.15 C-9.6 14.01, -9.26 13.88, -8.86 13.71 M-8.86 13.71 C-8.59 13.58, -8.32 13.44, -7.83 13.2 M-8.86 13.71 C-8.64 13.6, -8.41 13.49, -7.83 13.2 M-7.83 13.2 C-7.51 13, -7.19 12.81, -6.85 12.6 M-7.83 13.2 C-7.53 13.02, -7.23 12.83, -6.85 12.6 M-6.85 12.6 C-6.63 12.45, -6.42 12.3, -5.92 11.94 M-6.85 12.6 C-6.5 12.35, -6.15 12.11, -5.92 11.94 M-5.92 11.94 C-5.73 11.78, -5.54 11.62, -5.04 11.21 M-5.92 11.94 C-5.7 11.76, -5.48 11.57, -5.04 11.21 M-5.04 11.21 C-4.88 11.05, -4.71 10.89, -4.22 10.41 M-5.04 11.21 C-4.75 10.93, -4.47 10.65, -4.22 10.41 M-4.22 10.41 C-4.06 10.23, -3.89 10.04, -3.47 9.56 M-4.22 10.41 C-4.01 10.17, -3.79 9.92, -3.47 9.56 M-3.47 9.56 C-3.3 9.35, -3.14 9.13, -2.78 8.66 M-3.47 9.56 C-3.32 9.37, -3.18 9.18, -2.78 8.66 M-2.78 8.66 C-2.53 8.29, -2.29 7.91, -2.15 7.7 M-2.78 8.66 C-2.65 8.46, -2.52 8.27, -2.15 7.7 M-2.15 7.7 C-1.94 7.32, -1.73 6.94, -1.6 6.7 M-2.15 7.7 C-2.02 7.45, -1.88 7.2, -1.6 6.7 M-1.6 6.7 C-1.44 6.35, -1.28 5.99, -1.13 5.66 M-1.6 6.7 C-1.5 6.47, -1.4 6.25, -1.13 5.66 M-1.13 5.66 C-1.04 5.42, -0.95 5.18, -0.73 4.58 M-1.13 5.66 C-1.04 5.43, -0.96 5.2, -0.73 4.58 M-0.73 4.58 C-0.65 4.31, -0.58 4.04, -0.42 3.48 M-0.73 4.58 C-0.61 4.15, -0.49 3.72, -0.42 3.48 M-0.42 3.48 C-0.34 3.12, -0.27 2.75, -0.19 2.34 M-0.42 3.48 C-0.35 3.16, -0.29 2.84, -0.19 2.34 M-0.19 2.34 C-0.15 2.05, -0.12 1.76, -0.05 1.18 M-0.19 2.34 C-0.16 2.1, -0.13 1.86, -0.05 1.18 M-0.05 1.18 C-0.03 0.72, -0.01 0.26, 0 0 M-0.05 1.18 C-0.04 0.88, -0.02 0.59, 0 0 M0 0 C0 0, 0 0, 0 0 M0 0 C0 0, 0 0, 0 0 M0 0 C0 0, 0 0, 0 0 M0 0 C0 0, 0 0, 0 0" stroke="#00000000" stroke-width="1" fill="none"></path></g></g><g stroke-linecap="round"><g transform="translate(732.6960591942475 58.48081231727059) rotate(0 15.577646862020288 -11.202015357947857)" fill-rule="evenodd"><path d="M1.3 -24.05 C1.3 -24.05, 1.3 -24.05, 1.3 -24.05 M1.3 -24.05 C1.3 -24.05, 1.3 -24.05, 1.3 -24.05 M2.35 -19.16 C4.58 -21.72, 6.81 -24.28, 10.88 -28.97 M2.35 -19.16 C4.56 -21.7, 6.76 -24.23, 10.88 -28.97 M-3.16 -6.72 C2.45 -13.17, 8.05 -19.62, 16.52 -29.36 M-3.16 -6.72 C1.6 -12.19, 6.35 -17.67, 16.52 -29.36 M-1.45 -2.59 C3.22 -7.96, 7.89 -13.33, 21.51 -29 M-1.45 -2.59 C5.04 -10.06, 11.54 -17.53, 21.51 -29 M0.91 0.79 C7.48 -6.76, 14.04 -14.32, 25.18 -27.13 M0.91 0.79 C9.08 -8.61, 17.26 -18.02, 25.18 -27.13 M4.58 2.66 C9.86 -3.41, 15.13 -9.47, 28.86 -25.26 M4.58 2.66 C14.13 -8.32, 23.67 -19.29, 28.86 -25.26 M8.26 4.53 C13.47 -1.47, 18.69 -7.47, 31.22 -21.88 M8.26 4.53 C15.18 -3.44, 22.11 -11.4, 31.22 -21.88 M12.59 5.64 C19.11 -1.86, 25.63 -9.36, 33.58 -18.51 M12.59 5.64 C20.93 -3.95, 29.27 -13.55, 33.58 -18.51 M16.27 7.51 C21.61 1.37, 26.95 -4.78, 35.29 -14.37 M16.27 7.51 C22.46 0.39, 28.65 -6.73, 35.29 -14.37 M0 0 C0 0, 0 0, 0 0 M0 0 C0 0, 0 0, 0 0 M2.62 -3.02 C0.53 -4.84, -1.56 -6.65, -2.66 -7.61 M2.62 -3.02 C0.72 -4.67, -1.18 -6.33, -2.66 -7.61 M18.83 5.77 C11.63 -0.49, 4.43 -6.75, -1.54 -11.94 M18.83 5.77 C12.05 -0.12, 5.27 -6.02, -1.54 -11.94 M21.46 2.75 C13.01 -4.59, 4.55 -11.94, -1.18 -16.93 M21.46 2.75 C14.21 -3.54, 6.97 -9.84, -1.18 -16.93 M24.84 0.39 C17.23 -6.22, 9.62 -12.84, -0.07 -21.26 M24.84 0.39 C17.55 -5.94, 10.27 -12.28, -0.07 -21.26 M28.22 -1.97 C21.56 -7.76, 14.9 -13.55, 1.8 -24.93 M28.22 -1.97 C20.78 -8.44, 13.34 -14.9, 1.8 -24.93 M30.84 -4.99 C22.05 -12.63, 13.26 -20.27, 5.18 -27.3 M30.84 -4.99 C25.62 -9.53, 20.41 -14.06, 5.18 -27.3 M34.22 -7.35 C26.3 -14.24, 18.38 -21.12, 8.56 -29.66 M34.22 -7.35 C26.93 -13.69, 19.63 -20.03, 8.56 -29.66 M35.33 -11.69 C29.66 -16.62, 23.98 -21.56, 13.45 -30.71 M35.33 -11.69 C29.08 -17.12, 22.82 -22.56, 13.45 -30.71 M33.43 -18.64 C30.33 -21.33, 27.23 -24.03, 21.35 -29.14 M33.43 -18.64 C29.45 -22.1, 25.47 -25.56, 21.35 -29.14" stroke="#F4BD19" stroke-width="0.5" fill="none"></path><path d="M0 0 C4.03 1.84, 8.05 3.69, 16.94 7.76 M0 0 C6.52 2.98, 13.04 5.97, 16.94 7.76 M16.94 7.76 C22.73 2.68, 28.52 -2.39, 34.07 -7.26 M16.94 7.76 C22.37 3, 27.79 -1.75, 34.07 -7.26 M34.07 -7.26 C34.07 -7.26, 34.07 -7.26, 34.07 -7.26 M34.07 -7.26 C34.07 -7.26, 34.07 -7.26, 34.07 -7.26 M34.07 -7.26 C34.16 -7.85, 34.25 -8.44, 34.35 -9.14 M34.07 -7.26 C34.15 -7.78, 34.23 -8.3, 34.35 -9.14 M34.35 -9.14 C34.39 -9.86, 34.42 -10.58, 34.44 -11.05 M34.35 -9.14 C34.39 -9.9, 34.43 -10.65, 34.44 -11.05 M34.44 -11.05 C34.42 -11.57, 34.39 -12.1, 34.35 -13 M34.44 -11.05 C34.42 -11.58, 34.39 -12.1, 34.35 -13 M34.35 -13 C34.25 -13.62, 34.16 -14.24, 34.06 -14.9 M34.35 -13 C34.24 -13.72, 34.12 -14.45, 34.06 -14.9 M34.06 -14.9 C33.89 -15.52, 33.73 -16.15, 33.58 -16.73 M34.06 -14.9 C33.93 -15.4, 33.8 -15.9, 33.58 -16.73 M33.58 -16.73 C33.37 -17.31, 33.16 -17.89, 32.94 -18.48 M33.58 -16.73 C33.34 -17.39, 33.1 -18.05, 32.94 -18.48 M32.94 -18.48 C32.69 -19, 32.44 -19.52, 32.14 -20.16 M32.94 -18.48 C32.76 -18.86, 32.58 -19.24, 32.14 -20.16 M32.14 -20.16 C31.87 -20.6, 31.6 -21.04, 31.18 -21.73 M32.14 -20.16 C31.85 -20.63, 31.56 -21.1, 31.18 -21.73 M31.18 -21.73 C30.75 -22.3, 30.32 -22.87, 30.08 -23.2 M31.18 -21.73 C30.93 -22.07, 30.68 -22.4, 30.08 -23.2 M30.08 -23.2 C29.69 -23.62, 29.31 -24.05, 28.84 -24.56 M30.08 -23.2 C29.79 -23.52, 29.5 -23.84, 28.84 -24.56 M28.84 -24.56 C28.54 -24.84, 28.23 -25.12, 27.49 -25.79 M28.84 -24.56 C28.37 -24.99, 27.91 -25.41, 27.49 -25.79 M27.49 -25.79 C26.91 -26.22, 26.34 -26.65, 26.01 -26.9 M27.49 -25.79 C27.15 -26.05, 26.82 -26.3, 26.01 -26.9 M26.01 -26.9 C25.52 -27.19, 25.03 -27.49, 24.44 -27.85 M26.01 -26.9 C25.69 -27.09, 25.37 -27.29, 24.44 -27.85 M24.44 -27.85 C23.89 -28.12, 23.34 -28.38, 22.77 -28.66 M24.44 -27.85 C23.96 -28.08, 23.48 -28.32, 22.77 -28.66 M22.77 -28.66 C22.11 -28.9, 21.45 -29.14, 21.01 -29.3 M22.77 -28.66 C22.07 -28.91, 21.38 -29.17, 21.01 -29.3 M21.01 -29.3 C20.34 -29.48, 19.67 -29.65, 19.18 -29.77 M21.01 -29.3 C20.31 -29.48, 19.61 -29.66, 19.18 -29.77 M19.18 -29.77 C18.47 -29.88, 17.76 -29.99, 17.28 -30.06 M19.18 -29.77 C18.67 -29.85, 18.17 -29.93, 17.28 -30.06 M17.28 -30.06 C16.52 -30.1, 15.75 -30.14, 15.33 -30.16 M17.28 -30.06 C16.8 -30.09, 16.31 -30.11, 15.33 -30.16 M15.33 -30.16 C14.96 -30.15, 14.58 -30.14, 14.15 -30.13 M15.33 -30.16 C14.93 -30.15, 14.53 -30.14, 14.15 -30.13 M14.15 -30.13 C13.77 -30.09, 13.39 -30.06, 12.98 -30.02 M14.15 -30.13 C13.71 -30.09, 13.26 -30.04, 12.98 -30.02 M12.98 -30.02 C12.71 -29.98, 12.43 -29.93, 11.83 -29.84 M12.98 -30.02 C12.66 -29.97, 12.33 -29.92, 11.83 -29.84 M11.83 -29.84 C11.47 -29.76, 11.11 -29.69, 10.69 -29.6 M11.83 -29.84 C11.56 -29.78, 11.3 -29.73, 10.69 -29.6 M10.69 -29.6 C10.45 -29.53, 10.21 -29.46, 9.58 -29.28 M10.69 -29.6 C10.32 -29.49, 9.94 -29.39, 9.58 -29.28 M9.58 -29.28 C9.18 -29.14, 8.78 -29, 8.49 -28.91 M9.58 -29.28 C9.33 -29.2, 9.08 -29.11, 8.49 -28.91 M8.49 -28.91 C8.11 -28.75, 7.72 -28.59, 7.43 -28.46 M8.49 -28.91 C8.17 -28.77, 7.84 -28.63, 7.43 -28.46 M7.43 -28.46 C7.11 -28.31, 6.79 -28.15, 6.4 -27.96 M7.43 -28.46 C7.07 -28.29, 6.7 -28.11, 6.4 -27.96 M6.4 -27.96 C6.17 -27.83, 5.94 -27.7, 5.4 -27.39 M6.4 -27.96 C6.04 -27.76, 5.69 -27.55, 5.4 -27.39 M5.4 -27.39 C5.2 -27.26, 4.99 -27.13, 4.44 -26.77 M5.4 -27.39 C5.07 -27.18, 4.73 -26.96, 4.44 -26.77 M4.44 -26.77 C4.25 -26.63, 4.05 -26.48, 3.51 -26.08 M4.44 -26.77 C4.24 -26.62, 4.04 -26.48, 3.51 -26.08 M3.51 -26.08 C3.17 -25.8, 2.83 -25.51, 2.63 -25.34 M3.51 -26.08 C3.23 -25.84, 2.94 -25.6, 2.63 -25.34 M2.63 -25.34 C2.36 -25.09, 2.09 -24.83, 1.79 -24.55 M2.63 -25.34 C2.33 -25.05, 2.02 -24.77, 1.79 -24.55 M1.79 -24.55 C1.5 -24.23, 1.2 -23.92, 1 -23.7 M1.79 -24.55 C1.51 -24.25, 1.24 -23.95, 1 -23.7 M1 -23.7 C0.82 -23.49, 0.65 -23.27, 0.26 -22.8 M1 -23.7 C0.8 -23.46, 0.61 -23.23, 0.26 -22.8 M0.26 -22.8 C0.01 -22.46, -0.23 -22.13, -0.43 -21.85 M0.26 -22.8 C0.08 -22.55, -0.1 -22.3, -0.43 -21.85 M-0.43 -21.85 C-1.15 -18.13, -1.87 -14.41, -3.29 -7.07 M-0.43 -21.85 C-1.35 -17.12, -2.26 -12.39, -3.29 -7.07 M-3.29 -7.07 C-2.14 -4.6, -0.99 -2.13, 0 0 M-3.29 -7.07 C-2.47 -5.31, -1.65 -3.55, 0 0 M0 0 C0 0, 0 0, 0 0 M0 0 C0 0, 0 0, 0 0 M0 0 C0 0, 0 0, 0 0 M0 0 C0 0, 0 0, 0 0" stroke="#f4bd19" stroke-width="1" fill="none"></path></g></g><g stroke-linecap="round"><g transform="translate(715.132352928631 76.41698892173213) rotate(0 18.55681074950712 3.971971509132686)" fill-rule="evenodd"><path d="M0 0 C0 0, 0 0, 0 0 M0 0 C0 0, 0 0, 0 0 M-0.26 6.4 C3.57 1.99, 7.41 -2.43, 17.45 -13.98 M-0.26 6.4 C4.22 1.24, 8.7 -3.92, 17.45 -13.98 M1.45 10.53 C6.43 4.8, 11.41 -0.93, 21.78 -12.86 M1.45 10.53 C9.24 1.56, 17.04 -7.41, 21.78 -12.86 M3.15 14.67 C9.02 7.91, 14.89 1.16, 25.46 -11 M3.15 14.67 C7.84 9.27, 12.53 3.87, 25.46 -11 M5.51 18.04 C14.33 7.9, 23.14 -2.24, 29.13 -9.13 M5.51 18.04 C10.34 12.49, 15.17 6.93, 29.13 -9.13 M8.53 20.67 C16.72 11.25, 24.92 1.82, 32.81 -7.26 M8.53 20.67 C14.95 13.29, 21.36 5.92, 32.81 -7.26 M12.21 22.54 C17.14 16.86, 22.08 11.18, 36.48 -5.39 M12.21 22.54 C19.25 14.44, 26.28 6.35, 36.48 -5.39 M17.2 22.9 C24.09 14.96, 30.99 7.03, 38.19 -1.25 M17.2 22.9 C24.75 14.21, 32.3 5.53, 38.19 -1.25 M22.84 22.5 C26.49 18.31, 30.13 14.11, 40.55 2.13 M22.84 22.5 C28.22 16.32, 33.6 10.13, 40.55 2.13 M6.46 18.49 C6.46 18.49, 6.46 18.49, 6.46 18.49 M6.46 18.49 C6.46 18.49, 6.46 18.49, 6.46 18.49 M17.38 22.68 C13.67 19.46, 9.96 16.23, 0.02 7.59 M17.38 22.68 C11.36 17.45, 5.33 12.21, 0.02 7.59 M23.02 22.29 C17.8 17.75, 12.57 13.2, 0.38 2.61 M23.02 22.29 C17.51 17.49, 11.99 12.7, 0.38 2.61 M27.16 20.58 C21.44 15.61, 15.73 10.65, 1.5 -1.72 M27.16 20.58 C17.94 12.57, 8.73 4.57, 1.5 -1.72 M31.29 18.88 C22.24 11.01, 13.19 3.14, 4.12 -4.74 M31.29 18.88 C22.87 11.55, 14.45 4.23, 4.12 -4.74 M33.92 15.86 C23.6 6.89, 13.28 -2.08, 7.5 -7.1 M33.92 15.86 C25.57 8.6, 17.23 1.35, 7.5 -7.1 M36.54 12.84 C27.71 5.16, 18.88 -2.51, 10.13 -10.12 M36.54 12.84 C26.68 4.26, 16.81 -4.31, 10.13 -10.12 M36.9 7.85 C31.33 3.01, 25.77 -1.83, 13.5 -12.49 M36.9 7.85 C31.48 3.14, 26.07 -1.57, 13.5 -12.49 M38.01 3.52 C30.66 -2.87, 23.31 -9.26, 16.13 -15.51 M38.01 3.52 C29.99 -3.45, 21.97 -10.43, 16.13 -15.51 M38.38 -1.47 C33.7 -5.53, 29.03 -9.59, 19.51 -17.87 M38.38 -1.47 C31.63 -7.33, 24.89 -13.19, 19.51 -17.87" stroke="#3CBEB1" stroke-width="0.5" fill="none"></path><path d="M0 0 C0 0, 0 0, 0 0 M0 0 C0 0, 0 0, 0 0 M0 0 C-0.1 0.67, -0.2 1.34, -0.28 1.9 M0 0 C-0.11 0.75, -0.22 1.5, -0.28 1.9 M-0.28 1.9 C-0.31 2.6, -0.35 3.31, -0.37 3.85 M-0.28 1.9 C-0.31 2.62, -0.35 3.34, -0.37 3.85 M-0.37 3.85 C-0.35 4.32, -0.32 4.78, -0.27 5.8 M-0.37 3.85 C-0.35 4.24, -0.33 4.64, -0.27 5.8 M-0.27 5.8 C-0.17 6.47, -0.07 7.13, 0.02 7.7 M-0.27 5.8 C-0.18 6.41, -0.09 7.01, 0.02 7.7 M0.02 7.7 C0.15 8.23, 0.29 8.75, 0.49 9.54 M0.02 7.7 C0.21 8.43, 0.4 9.16, 0.49 9.54 M0.49 9.54 C0.69 10.07, 0.89 10.61, 1.14 11.3 M0.49 9.54 C0.71 10.13, 0.93 10.73, 1.14 11.3 M1.14 11.3 C1.42 11.88, 1.71 12.47, 1.95 12.97 M1.14 11.3 C1.35 11.72, 1.55 12.14, 1.95 12.97 M1.95 12.97 C2.21 13.4, 2.47 13.82, 2.91 14.55 M1.95 12.97 C2.17 13.32, 2.38 13.68, 2.91 14.55 M2.91 14.55 C3.19 14.92, 3.47 15.29, 4.02 16.03 M2.91 14.55 C3.23 14.97, 3.55 15.4, 4.02 16.03 M4.02 16.03 C4.32 16.36, 4.61 16.68, 5.26 17.39 M4.02 16.03 C4.27 16.31, 4.53 16.59, 5.26 17.39 M5.26 17.39 C5.77 17.85, 6.27 18.31, 6.62 18.63 M5.26 17.39 C5.59 17.7, 5.93 18, 6.62 18.63 M6.62 18.63 C7.19 19.06, 7.76 19.48, 8.1 19.74 M6.62 18.63 C7.14 19.02, 7.66 19.41, 8.1 19.74 M8.1 19.74 C8.51 19.99, 8.91 20.23, 9.68 20.7 M8.1 19.74 C8.61 20.05, 9.12 20.36, 9.68 20.7 M9.68 20.7 C10.06 20.89, 10.44 21.07, 11.36 21.51 M9.68 20.7 C10.31 21.01, 10.94 21.31, 11.36 21.51 M11.36 21.51 C11.74 21.65, 12.12 21.79, 13.12 22.16 M11.36 21.51 C11.96 21.73, 12.55 21.95, 13.12 22.16 M13.12 22.16 C13.59 22.28, 14.07 22.41, 14.95 22.63 M13.12 22.16 C13.52 22.26, 13.92 22.37, 14.95 22.63 M14.95 22.63 C15.56 22.73, 16.18 22.82, 16.85 22.93 M14.95 22.63 C15.64 22.74, 16.34 22.85, 16.85 22.93 M16.85 22.93 C17.5 22.96, 18.15 22.99, 18.8 23.03 M16.85 22.93 C17.36 22.95, 17.88 22.98, 18.8 23.03 M18.8 23.03 C19.05 23.02, 19.29 23.01, 20 22.99 M18.8 23.03 C19.16 23.01, 19.51 23, 20 22.99 M20 22.99 C20.3 22.96, 20.61 22.93, 21.18 22.88 M20 22.99 C20.39 22.95, 20.78 22.92, 21.18 22.88 M21.18 22.88 C21.48 22.83, 21.78 22.79, 22.34 22.7 M21.18 22.88 C21.5 22.83, 21.82 22.78, 22.34 22.7 M22.34 22.7 C22.59 22.64, 22.84 22.59, 23.48 22.45 M22.34 22.7 C22.65 22.63, 22.97 22.56, 23.48 22.45 M23.48 22.45 C23.75 22.37, 24.03 22.29, 24.6 22.13 M23.48 22.45 C23.79 22.36, 24.1 22.27, 24.6 22.13 M24.6 22.13 C24.98 22, 25.36 21.86, 25.69 21.75 M24.6 22.13 C24.82 22.05, 25.04 21.98, 25.69 21.75 M25.69 21.75 C25.99 21.62, 26.29 21.5, 26.76 21.3 M25.69 21.75 C26.03 21.61, 26.37 21.46, 26.76 21.3 M26.76 21.3 C27.12 21.12, 27.49 20.94, 27.8 20.79 M26.76 21.3 C27 21.18, 27.24 21.06, 27.8 20.79 M27.8 20.79 C28.05 20.65, 28.3 20.5, 28.8 20.22 M27.8 20.79 C28.04 20.65, 28.29 20.51, 28.8 20.22 M28.8 20.22 C29.08 20.04, 29.36 19.85, 29.77 19.59 M28.8 20.22 C29.13 20, 29.46 19.79, 29.77 19.59 M29.77 19.59 C29.96 19.45, 30.15 19.31, 30.7 18.9 M29.77 19.59 C30.1 19.35, 30.42 19.11, 30.7 18.9 M30.7 18.9 C31.05 18.61, 31.4 18.31, 31.59 18.16 M30.7 18.9 C31 18.65, 31.3 18.4, 31.59 18.16 M31.59 18.16 C31.88 17.88, 32.17 17.61, 32.44 17.36 M31.59 18.16 C31.9 17.87, 32.2 17.58, 32.44 17.36 M32.44 17.36 C32.64 17.14, 32.84 16.93, 33.24 16.5 M32.44 17.36 C32.65 17.13, 32.86 16.91, 33.24 16.5 M33.24 16.5 C33.42 16.29, 33.6 16.07, 33.99 15.6 M33.24 16.5 C33.42 16.29, 33.59 16.08, 33.99 15.6 M33.99 15.6 C34.14 15.4, 34.28 15.2, 34.69 14.65 M33.99 15.6 C34.27 15.22, 34.55 14.84, 34.69 14.65 M34.69 14.65 C35.33 11.27, 35.97 7.89, 37.49 -0.12 M34.69 14.65 C35.75 9.05, 36.81 3.45, 37.49 -0.12 M37.49 -0.12 C36.02 -2.91, 34.55 -5.7, 33.7 -7.32 M37.49 -0.12 C36.46 -2.08, 35.43 -4.04, 33.7 -7.32 M33.7 -7.32 C30.22 -8.91, 26.75 -10.49, 16.69 -15.08 M33.7 -7.32 C29.77 -9.11, 25.85 -10.91, 16.69 -15.08 M16.69 -15.08 C12.33 -11.14, 7.96 -7.19, 0 0 M16.69 -15.08 C12.77 -11.53, 8.84 -7.99, 0 0 M0 0 C0 0, 0 0, 0 0 M0 0 C0 0, 0 0, 0 0 M0 0 C0 0, 0 0, 0 0 M0 0 C0 0, 0 0, 0 0" stroke="#3cbeb1" stroke-width="1" fill="none"></path></g></g><g stroke-linecap="round"><g transform="translate(715.0084933889464 47.06137383339541) rotate(0 6.82668383204043 -4.809732342756973)" fill-rule="evenodd"><path d="M1.67 -9.15 C1.67 -9.15, 1.67 -9.15, 1.67 -9.15 M1.67 -9.15 C1.67 -9.15, 1.67 -9.15, 1.67 -9.15 M0.1 -1.24 C2.37 -3.85, 4.64 -6.47, 9.28 -11.81 M0.1 -1.24 C3.23 -4.84, 6.36 -8.45, 9.28 -11.81 M2.46 2.14 C5.02 -0.81, 7.58 -3.76, 13.61 -10.69 M2.46 2.14 C5.28 -1.1, 8.09 -4.34, 13.61 -10.69 M6.79 3.25 C9.57 0.06, 12.35 -3.14, 16.63 -8.07 M6.79 3.25 C9.8 -0.21, 12.81 -3.68, 16.63 -8.07 M0 0 C0 0, 0 0, 0 0 M0 0 C0 0, 0 0, 0 0 M2.62 -3.02 C1.81 -3.72, 1 -4.43, -0.39 -5.64 M2.62 -3.02 C1.83 -3.71, 1.03 -4.4, -0.39 -5.64 M13.55 1.18 C9.71 -2.16, 5.86 -5.5, 1.47 -9.32 M13.55 1.18 C10.16 -1.77, 6.77 -4.72, 1.47 -9.32 M13.91 -3.81 C11.92 -5.54, 9.93 -7.27, 4.85 -11.68 M13.91 -3.81 C11.05 -6.29, 8.19 -8.78, 4.85 -11.68 M15.03 -8.14 C13.67 -9.32, 12.31 -10.5, 10.5 -12.08 M15.03 -8.14 C13.5 -9.47, 11.97 -10.8, 10.5 -12.08" stroke="#E9478C" stroke-width="0.5" fill="none"></path><path d="M0 0 C2.64 0.62, 5.29 1.24, 11.61 2.73 M0 0 C3.7 0.87, 7.4 1.74, 11.61 2.73 M11.61 2.73 C12.15 -0.03, 12.69 -2.79, 14.21 -10.49 M11.61 2.73 C12.55 -2.07, 13.5 -6.88, 14.21 -10.49 M14.21 -10.49 C14.21 -10.49, 14.21 -10.49, 14.21 -10.49 M14.21 -10.49 C14.21 -10.49, 14.21 -10.49, 14.21 -10.49 M14.21 -10.49 C14 -10.64, 13.78 -10.79, 13.59 -10.92 M14.21 -10.49 C14.04 -10.61, 13.86 -10.74, 13.59 -10.92 M13.59 -10.92 C13.35 -11.07, 13.1 -11.21, 12.95 -11.3 M13.59 -10.92 C13.44 -11.01, 13.29 -11.1, 12.95 -11.3 M12.95 -11.3 C12.7 -11.42, 12.45 -11.54, 12.28 -11.62 M12.95 -11.3 C12.79 -11.38, 12.64 -11.45, 12.28 -11.62 M12.28 -11.62 C12.06 -11.7, 11.84 -11.79, 11.58 -11.88 M12.28 -11.62 C12.12 -11.68, 11.97 -11.74, 11.58 -11.88 M11.58 -11.88 C11.31 -11.96, 11.05 -12.04, 10.87 -12.09 M11.58 -11.88 C11.35 -11.95, 11.13 -12.02, 10.87 -12.09 M10.87 -12.09 C10.66 -12.13, 10.45 -12.17, 10.14 -12.23 M10.87 -12.09 C10.59 -12.14, 10.32 -12.2, 10.14 -12.23 M10.14 -12.23 C9.92 -12.26, 9.69 -12.29, 9.39 -12.32 M10.14 -12.23 C9.96 -12.25, 9.78 -12.28, 9.39 -12.32 M9.39 -12.32 C9.12 -12.33, 8.85 -12.34, 8.63 -12.35 M9.39 -12.32 C9.11 -12.33, 8.84 -12.34, 8.63 -12.35 M8.63 -12.35 C8.35 -12.34, 8.07 -12.32, 7.69 -12.3 M8.63 -12.35 C8.41 -12.34, 8.2 -12.33, 7.69 -12.3 M7.69 -12.3 C7.51 -12.27, 7.32 -12.25, 6.79 -12.16 M7.69 -12.3 C7.33 -12.25, 6.97 -12.19, 6.79 -12.16 M6.79 -12.16 C6.44 -12.08, 6.1 -11.99, 5.91 -11.94 M6.79 -12.16 C6.52 -12.1, 6.26 -12.03, 5.91 -11.94 M5.91 -11.94 C5.6 -11.82, 5.29 -11.71, 5.07 -11.63 M5.91 -11.94 C5.67 -11.85, 5.43 -11.76, 5.07 -11.63 M5.07 -11.63 C4.89 -11.54, 4.7 -11.45, 4.27 -11.25 M5.07 -11.63 C4.89 -11.54, 4.7 -11.45, 4.27 -11.25 M4.27 -11.25 C4.11 -11.15, 3.95 -11.05, 3.51 -10.79 M4.27 -11.25 C3.99 -11.07, 3.7 -10.9, 3.51 -10.79 M3.51 -10.79 C3.31 -10.64, 3.11 -10.49, 2.8 -10.26 M3.51 -10.79 C3.27 -10.61, 3.03 -10.43, 2.8 -10.26 M2.8 -10.26 C2.59 -10.07, 2.39 -9.88, 2.15 -9.67 M2.8 -10.26 C2.56 -10.04, 2.32 -9.82, 2.15 -9.67 M2.15 -9.67 C1.99 -9.49, 1.82 -9.31, 1.55 -9.01 M2.15 -9.67 C1.95 -9.45, 1.75 -9.23, 1.55 -9.01 M1.55 -9.01 C1.37 -8.77, 1.19 -8.53, 1.02 -8.31 M1.55 -9.01 C1.36 -8.76, 1.17 -8.51, 1.02 -8.31 M1.02 -8.31 C0.85 -8.03, 0.69 -7.76, 0.56 -7.55 M1.02 -8.31 C0.9 -8.11, 0.78 -7.91, 0.56 -7.55 M0.56 -7.55 C0.42 -7.26, 0.28 -6.97, 0.17 -6.75 M0.56 -7.55 C0.41 -7.25, 0.27 -6.95, 0.17 -6.75 M0.17 -6.75 C0.06 -6.46, -0.04 -6.17, -0.14 -5.9 M0.17 -6.75 C0.06 -6.45, -0.05 -6.15, -0.14 -5.9 M-0.14 -5.9 C-0.21 -5.66, -0.27 -5.41, -0.37 -5.02 M-0.14 -5.9 C-0.19 -5.71, -0.24 -5.52, -0.37 -5.02 M-0.37 -5.02 C-0.41 -4.79, -0.44 -4.56, -0.51 -4.11 M-0.37 -5.02 C-0.42 -4.67, -0.48 -4.32, -0.51 -4.11 M-0.51 -4.11 C-0.52 -3.87, -0.54 -3.63, -0.56 -3.17 M-0.51 -4.11 C-0.52 -3.86, -0.54 -3.62, -0.56 -3.17 M-0.56 -3.17 C-0.55 -2.88, -0.53 -2.6, -0.52 -2.37 M-0.56 -3.17 C-0.55 -2.92, -0.54 -2.68, -0.52 -2.37 M-0.52 -2.37 C-0.5 -2.15, -0.47 -1.93, -0.42 -1.56 M-0.52 -2.37 C-0.5 -2.19, -0.48 -2.01, -0.42 -1.56 M-0.42 -1.56 C-0.36 -1.27, -0.29 -0.99, -0.24 -0.77 M-0.42 -1.56 C-0.38 -1.39, -0.34 -1.22, -0.24 -0.77 M-0.24 -0.77 C-0.16 -0.49, -0.07 -0.21, 0 0 M-0.24 -0.77 C-0.15 -0.46, -0.05 -0.16, 0 0 M0 0 C0 0, 0 0, 0 0 M0 0 C0 0, 0 0, 0 0 M0 0 C0 0, 0 0, 0 0 M0 0 C0 0, 0 0, 0 0" stroke="#e9478c" stroke-width="1" fill="none"></path></g></g><g stroke-linecap="round"><g transform="translate(714.0152410404667 49.85400682227572) rotate(0 3.4756422679528214 12.071260727053556)" fill-rule="evenodd"><path d="M-5.95 4.11 C-5.95 4.11, -5.95 4.11, -5.95 4.11 M-5.95 4.11 C-5.95 4.11, -5.95 4.11, -5.95 4.11 M-8.83 13.52 C-6.32 10.63, -3.8 7.74, 1.67 1.45 M-8.83 13.52 C-6.26 10.57, -3.69 7.61, 1.67 1.45 M-7.13 17.66 C-3.7 13.71, -0.27 9.77, 6 2.56 M-7.13 17.66 C-2.1 11.87, 2.93 6.09, 6 2.56 M-4.76 21.04 C-1.34 17.1, 2.08 13.16, 10.33 3.68 M-4.76 21.04 C-0.97 16.67, 2.82 12.31, 10.33 3.68 M-1.74 23.66 C2.57 18.7, 6.88 13.73, 14.66 4.79 M-1.74 23.66 C3.1 18.09, 7.95 12.51, 14.66 4.79 M-4.41 21.84 C-4.41 21.84, -4.41 21.84, -4.41 21.84 M-4.41 21.84 C-4.41 21.84, -4.41 21.84, -4.41 21.84 M1.23 21.45 C-2.52 18.19, -6.27 14.93, -8.58 12.92 M1.23 21.45 C-0.8 19.69, -2.82 17.92, -8.58 12.92 M4.61 19.08 C0.5 15.51, -3.61 11.94, -8.22 7.93 M4.61 19.08 C2.02 16.83, -0.58 14.58, -8.22 7.93 M7.23 16.07 C3.3 12.65, -0.63 9.23, -6.35 4.26 M7.23 16.07 C2.07 11.57, -3.1 7.08, -6.35 4.26 M10.61 13.7 C5.62 9.36, 0.62 5.02, -2.97 1.89 M10.61 13.7 C6.89 10.46, 3.16 7.23, -2.97 1.89 M13.24 10.68 C10.44 8.25, 7.65 5.82, 0.41 -0.47 M13.24 10.68 C9.15 7.13, 5.07 3.58, 0.41 -0.47 M16.62 8.32 C14.25 6.26, 11.89 4.21, 9.07 1.76 M16.62 8.32 C14.92 6.84, 13.22 5.37, 9.07 1.76" stroke="#2C458F" stroke-width="0.5" fill="none"></path><path d="M0 0 C0 0, 0 0, 0 0 M0 0 C0 0, 0 0, 0 0 M0 0 C-0.26 0.09, -0.51 0.19, -0.96 0.35 M0 0 C-0.3 0.11, -0.59 0.22, -0.96 0.35 M-0.96 0.35 C-1.21 0.47, -1.46 0.59, -1.88 0.78 M-0.96 0.35 C-1.32 0.52, -1.68 0.69, -1.88 0.78 M-1.88 0.78 C-2.2 0.96, -2.52 1.15, -2.75 1.28 M-1.88 0.78 C-2.16 0.94, -2.44 1.1, -2.75 1.28 M-2.75 1.28 C-3.01 1.45, -3.27 1.63, -3.58 1.84 M-2.75 1.28 C-3.07 1.49, -3.39 1.71, -3.58 1.84 M-3.58 1.84 C-3.88 2.08, -4.18 2.33, -4.35 2.46 M-3.58 1.84 C-3.76 1.99, -3.95 2.14, -4.35 2.46 M-4.35 2.46 C-4.5 2.61, -4.66 2.75, -5.08 3.15 M-4.35 2.46 C-4.57 2.66, -4.78 2.86, -5.08 3.15 M-5.08 3.15 C-5.31 3.39, -5.53 3.64, -5.75 3.88 M-5.08 3.15 C-5.27 3.35, -5.46 3.56, -5.75 3.88 M-5.75 3.88 C-5.96 4.14, -6.16 4.41, -6.36 4.66 M-5.75 3.88 C-5.91 4.08, -6.07 4.28, -6.36 4.66 M-6.36 4.66 C-6.57 4.97, -6.77 5.28, -6.91 5.49 M-6.36 4.66 C-6.54 4.94, -6.73 5.21, -6.91 5.49 M-6.91 5.49 C-7.03 5.7, -7.15 5.92, -7.4 6.36 M-6.91 5.49 C-7.05 5.73, -7.18 5.97, -7.4 6.36 M-7.4 6.36 C-7.49 6.56, -7.59 6.76, -7.82 7.26 M-7.4 6.36 C-7.52 6.62, -7.64 6.88, -7.82 7.26 M-7.82 7.26 C-7.9 7.49, -7.99 7.72, -8.17 8.2 M-7.82 7.26 C-7.95 7.61, -8.08 7.95, -8.17 8.2 M-8.17 8.2 C-8.27 8.56, -8.38 8.92, -8.45 9.16 M-8.17 8.2 C-8.25 8.48, -8.33 8.77, -8.45 9.16 M-8.45 9.16 C-8.49 9.36, -8.53 9.56, -8.65 10.14 M-8.45 9.16 C-8.49 9.36, -8.53 9.56, -8.65 10.14 M-8.65 10.14 C-8.68 10.43, -8.72 10.72, -8.77 11.15 M-8.65 10.14 C-8.69 10.49, -8.73 10.84, -8.77 11.15 M-8.77 11.15 C-8.79 11.51, -8.8 11.87, -8.81 12.16 M-8.77 11.15 C-8.78 11.43, -8.79 11.72, -8.81 12.16 M-8.81 12.16 C-8.8 12.53, -8.78 12.89, -8.77 13.16 M-8.81 12.16 C-8.8 12.41, -8.79 12.66, -8.77 13.16 M-8.77 13.16 C-8.74 13.45, -8.71 13.74, -8.66 14.14 M-8.77 13.16 C-8.74 13.49, -8.7 13.82, -8.66 14.14 M-8.66 14.14 C-8.59 14.51, -8.52 14.89, -8.48 15.09 M-8.66 14.14 C-8.61 14.39, -8.56 14.65, -8.48 15.09 M-8.48 15.09 C-8.38 15.45, -8.28 15.81, -8.22 16.03 M-8.48 15.09 C-8.39 15.42, -8.29 15.76, -8.22 16.03 M-8.22 16.03 C-8.12 16.31, -8.02 16.59, -7.9 16.93 M-8.22 16.03 C-8.13 16.3, -8.03 16.57, -7.9 16.93 M-7.9 16.93 C-7.77 17.23, -7.63 17.53, -7.51 17.81 M-7.9 16.93 C-7.77 17.23, -7.63 17.53, -7.51 17.81 M-7.51 17.81 C-7.41 17.99, -7.32 18.16, -7.06 18.65 M-7.51 17.81 C-7.39 18.04, -7.27 18.26, -7.06 18.65 M-7.06 18.65 C-6.93 18.85, -6.81 19.04, -6.55 19.46 M-7.06 18.65 C-6.88 18.94, -6.7 19.22, -6.55 19.46 M-6.55 19.46 C-6.34 19.74, -6.13 20.02, -5.98 20.22 M-6.55 19.46 C-6.35 19.73, -6.15 19.99, -5.98 20.22 M-5.98 20.22 C-5.76 20.47, -5.55 20.72, -5.35 20.94 M-5.98 20.22 C-5.81 20.42, -5.64 20.62, -5.35 20.94 M-5.35 20.94 C-5.08 21.21, -4.81 21.48, -4.67 21.61 M-5.35 20.94 C-5.11 21.18, -4.87 21.42, -4.67 21.61 M-4.67 21.61 C-4.49 21.77, -4.31 21.92, -3.94 22.24 M-4.67 21.61 C-4.5 21.76, -4.33 21.9, -3.94 22.24 M-3.94 22.24 C-3.71 22.41, -3.47 22.58, -3.16 22.8 M-3.94 22.24 C-3.69 22.42, -3.44 22.6, -3.16 22.8 M-3.16 22.8 C-2.9 22.97, -2.63 23.13, -2.34 23.31 M-3.16 22.8 C-2.84 23, -2.52 23.2, -2.34 23.31 M-2.34 23.31 C-2.14 23.41, -1.95 23.51, -1.47 23.76 M-2.34 23.31 C-2.04 23.46, -1.75 23.62, -1.47 23.76 M-1.47 23.76 C-1.19 23.88, -0.91 24, -0.56 24.14 M-1.47 23.76 C-1.14 23.9, -0.82 24.03, -0.56 24.14 M-0.56 24.14 C4.04 19.98, 8.64 15.82, 15.76 9.37 M-0.56 24.14 C4.71 19.38, 9.97 14.61, 15.76 9.37 M15.76 9.37 C14.89 7.49, 14.01 5.61, 12.78 2.98 M15.76 9.37 C14.68 7.05, 13.6 4.73, 12.78 2.98 M12.78 2.98 C8.31 1.94, 3.84 0.89, 0 0 M12.78 2.98 C9.82 2.29, 6.86 1.6, 0 0 M0 0 C0 0, 0 0, 0 0 M0 0 C0 0, 0 0, 0 0 M0 0 C0 0, 0 0, 0 0 M0 0 C0 0, 0 0, 0 0" stroke="#2c458f" stroke-width="1" fill="none"></path></g></g><g stroke-linecap="round"><g transform="translate(752.8043813740751 91.00153186638846) rotate(0 7.354349673294223 -5.616454642430341)" fill-rule="evenodd"><path d="M2.81 -13.46 C2.81 -13.46, 2.81 -13.46, 2.81 -13.46 M2.81 -13.46 C2.81 -13.46, 2.81 -13.46, 2.81 -13.46 M1.23 -5.55 C2.5 -7, 3.76 -8.46, 7.14 -12.34 M1.23 -5.55 C3.05 -7.64, 4.87 -9.73, 7.14 -12.34 M0.97 0.85 C3.29 -1.82, 5.61 -4.49, 11.47 -11.23 M0.97 0.85 C5.02 -3.81, 9.06 -8.46, 11.47 -11.23 M5.3 1.96 C7.28 -0.31, 9.26 -2.59, 14.49 -8.61 M5.3 1.96 C8.75 -2.01, 12.2 -5.98, 14.49 -8.61 M0 0 C0 0, 0 0, 0 0 M0 0 C0 0, 0 0, 0 0 M7.91 1.57 C5.28 -0.71, 2.65 -3, 1.11 -4.33 M7.91 1.57 C5.76 -0.29, 3.62 -2.15, 1.11 -4.33 M11.29 -0.79 C8.64 -3.09, 5.99 -5.39, 1.47 -9.32 M11.29 -0.79 C8.7 -3.04, 6.11 -5.29, 1.47 -9.32 M13.91 -3.81 C10.52 -6.75, 7.14 -9.7, 2.59 -13.65 M13.91 -3.81 C9.69 -7.48, 5.47 -11.14, 2.59 -13.65 M15.03 -8.14 C14.24 -8.82, 13.45 -9.51, 11.25 -11.42 M15.03 -8.14 C13.74 -9.26, 12.45 -10.38, 11.25 -11.42" stroke="#95C63D" stroke-width="0.5" fill="none"></path><path d="M0 0 C0 0, 0 0, 0 0 M0 0 C0 0, 0 0, 0 0 M0 0 C0.21 0.15, 0.41 0.29, 0.62 0.44 M0 0 C0.25 0.18, 0.49 0.35, 0.62 0.44 M0.62 0.44 C0.81 0.55, 1.01 0.67, 1.26 0.82 M0.62 0.44 C0.82 0.56, 1.01 0.67, 1.26 0.82 M1.26 0.82 C1.52 0.95, 1.77 1.07, 1.93 1.15 M1.26 0.82 C1.44 0.91, 1.62 1, 1.93 1.15 M1.93 1.15 C2.15 1.24, 2.36 1.32, 2.62 1.43 M1.93 1.15 C2.08 1.21, 2.23 1.27, 2.62 1.43 M2.62 1.43 C2.9 1.51, 3.19 1.6, 3.33 1.64 M2.62 1.43 C2.78 1.48, 2.94 1.52, 3.33 1.64 M3.33 1.64 C3.52 1.68, 3.72 1.73, 4.05 1.8 M3.33 1.64 C3.59 1.7, 3.85 1.76, 4.05 1.8 M4.05 1.8 C4.23 1.82, 4.42 1.85, 4.78 1.89 M4.05 1.8 C4.28 1.83, 4.52 1.86, 4.78 1.89 M4.78 1.89 C5.04 1.9, 5.3 1.91, 5.52 1.92 M4.78 1.89 C4.93 1.9, 5.09 1.91, 5.52 1.92 M5.52 1.92 C5.73 1.91, 5.93 1.9, 6.46 1.88 M5.52 1.92 C5.89 1.91, 6.26 1.89, 6.46 1.88 M6.46 1.88 C6.78 1.83, 7.1 1.78, 7.36 1.74 M6.46 1.88 C6.77 1.83, 7.08 1.78, 7.36 1.74 M7.36 1.74 C7.57 1.69, 7.77 1.63, 8.24 1.51 M7.36 1.74 C7.56 1.69, 7.76 1.64, 8.24 1.51 M8.24 1.51 C8.51 1.41, 8.79 1.31, 9.08 1.2 M8.24 1.51 C8.53 1.41, 8.82 1.3, 9.08 1.2 M9.08 1.2 C9.28 1.11, 9.49 1.01, 9.88 0.82 M9.08 1.2 C9.38 1.06, 9.68 0.92, 9.88 0.82 M9.88 0.82 C10.15 0.65, 10.42 0.49, 10.64 0.36 M9.88 0.82 C10.15 0.66, 10.42 0.49, 10.64 0.36 M10.64 0.36 C10.84 0.21, 11.04 0.06, 11.35 -0.17 M10.64 0.36 C10.89 0.17, 11.14 -0.01, 11.35 -0.17 M11.35 -0.17 C11.58 -0.38, 11.82 -0.6, 12 -0.76 M11.35 -0.17 C11.52 -0.32, 11.68 -0.47, 12 -0.76 M12 -0.76 C12.22 -1, 12.44 -1.24, 12.6 -1.41 M12 -0.76 C12.14 -0.91, 12.28 -1.06, 12.6 -1.41 M12.6 -1.41 C12.75 -1.62, 12.91 -1.83, 13.13 -2.12 M12.6 -1.41 C12.76 -1.63, 12.93 -1.86, 13.13 -2.12 M13.13 -2.12 C13.3 -2.4, 13.47 -2.68, 13.59 -2.88 M13.13 -2.12 C13.25 -2.31, 13.37 -2.51, 13.59 -2.88 M13.59 -2.88 C13.73 -3.17, 13.87 -3.45, 13.98 -3.68 M13.59 -2.88 C13.73 -3.15, 13.86 -3.43, 13.98 -3.68 M13.98 -3.68 C14.05 -3.86, 14.11 -4.03, 14.29 -4.52 M13.98 -3.68 C14.05 -3.87, 14.12 -4.06, 14.29 -4.52 M14.29 -4.52 C14.38 -4.86, 14.47 -5.2, 14.52 -5.41 M14.29 -4.52 C14.37 -4.82, 14.44 -5.11, 14.52 -5.41 M14.52 -5.41 C14.55 -5.63, 14.59 -5.85, 14.66 -6.32 M14.52 -5.41 C14.56 -5.69, 14.61 -5.97, 14.66 -6.32 M14.66 -6.32 C14.67 -6.54, 14.68 -6.76, 14.71 -7.26 M14.66 -6.32 C14.67 -6.53, 14.68 -6.75, 14.71 -7.26 M14.71 -7.26 C14.7 -7.47, 14.69 -7.68, 14.67 -8.09 M14.71 -7.26 C14.7 -7.45, 14.69 -7.64, 14.67 -8.09 M14.67 -8.09 C14.65 -8.27, 14.63 -8.44, 14.57 -8.89 M14.67 -8.09 C14.64 -8.35, 14.6 -8.62, 14.57 -8.89 M14.57 -8.89 C14.52 -9.1, 14.48 -9.31, 14.39 -9.67 M14.57 -8.89 C14.52 -9.1, 14.47 -9.31, 14.39 -9.67 M14.39 -9.67 C14.32 -9.89, 14.25 -10.11, 14.15 -10.43 M14.39 -9.67 C14.32 -9.91, 14.24 -10.15, 14.15 -10.43 M14.15 -10.43 C10.05 -11.39, 5.96 -12.35, 2.54 -13.16 M14.15 -10.43 C10.73 -11.23, 7.31 -12.04, 2.54 -13.16 M2.54 -13.16 C1.96 -10.14, 1.38 -7.12, 0 0 M2.54 -13.16 C1.99 -10.29, 1.44 -7.43, 0 0 M0 0 C0 0, 0 0, 0 0 M0 0 C0 0, 0 0, 0 0 M0 0 C0 0, 0 0, 0 0 M0 0 C0 0, 0 0, 0 0" stroke="#95c63d" stroke-width="1" fill="none"></path></g></g><g stroke-linecap="round"><g transform="translate(755.1627638184541 75.13141521228289) rotate(0 9.092095139973708 -9.09194784191348)" fill-rule="evenodd"><path d="M-3.2 -6.76 C-3.2 -6.76, -3.2 -6.76, -3.2 -6.76 M-3.2 -6.76 C-3.2 -6.76, -3.2 -6.76, -3.2 -6.76 M-1.5 -2.63 C3.63 -8.52, 8.75 -14.42, 14.25 -20.74 M-1.5 -2.63 C3.25 -8.08, 7.99 -13.54, 14.25 -20.74 M0.87 0.75 C7.02 -6.32, 13.16 -13.39, 17.27 -18.11 M0.87 0.75 C4.2 -3.08, 7.53 -6.91, 17.27 -18.11 M5.2 1.87 C10.99 -4.79, 16.78 -11.46, 20.29 -15.49 M5.2 1.87 C11.05 -4.87, 16.91 -11.61, 20.29 -15.49 M9.53 2.98 C13.78 -1.91, 18.03 -6.79, 21.34 -10.6 M9.53 2.98 C12.89 -0.88, 16.25 -4.74, 21.34 -10.6 M16.48 1.08 C17.45 -0.03, 18.42 -1.15, 20.42 -3.45 M16.48 1.08 C17.56 -0.15, 18.63 -1.38, 20.42 -3.45 M0 0 C0 0, 0 0, 0 0 M0 0 C0 0, 0 0, 0 0 M2.62 -3.02 C0.8 -4.6, -1.02 -6.18, -2.66 -7.61 M2.62 -3.02 C1.28 -4.19, -0.06 -5.36, -2.66 -7.61 M14.3 1.84 C9.64 -2.22, 4.97 -6.28, 0.72 -9.97 M14.3 1.84 C9.6 -2.26, 4.89 -6.35, 0.72 -9.97 M17.68 -0.53 C13.73 -3.96, 9.79 -7.39, 3.34 -12.99 M17.68 -0.53 C13.75 -3.94, 9.82 -7.36, 3.34 -12.99 M20.31 -3.55 C15.78 -7.48, 11.25 -11.42, 6.72 -15.36 M20.31 -3.55 C17.53 -5.96, 14.75 -8.38, 6.72 -15.36 M21.42 -7.88 C16.63 -12.04, 11.85 -16.2, 9.35 -18.37 M21.42 -7.88 C17.71 -11.1, 14 -14.33, 9.35 -18.37 M21.03 -13.52 C18.92 -15.35, 16.82 -17.18, 12.73 -20.74 M21.03 -13.52 C18.3 -15.89, 15.57 -18.27, 12.73 -20.74" stroke="#176655" stroke-width="0.5" fill="none"></path><path d="M0 0 C2.92 0.68, 5.85 1.36, 12.78 2.98 M0 0 C5.1 1.19, 10.19 2.38, 12.78 2.98 M12.78 2.98 C12.78 2.98, 12.78 2.98, 12.78 2.98 M12.78 2.98 C12.78 2.98, 12.78 2.98, 12.78 2.98 M12.78 2.98 C13.13 2.85, 13.48 2.72, 13.74 2.62 M12.78 2.98 C13.07 2.87, 13.35 2.77, 13.74 2.62 M13.74 2.62 C13.96 2.51, 14.18 2.41, 14.66 2.18 M13.74 2.62 C14.03 2.48, 14.32 2.34, 14.66 2.18 M14.66 2.18 C14.95 2.01, 15.24 1.85, 15.53 1.68 M14.66 2.18 C14.97 2, 15.28 1.83, 15.53 1.68 M15.53 1.68 C15.72 1.55, 15.91 1.43, 16.36 1.11 M15.53 1.68 C15.73 1.55, 15.92 1.41, 16.36 1.11 M16.36 1.11 C16.6 0.92, 16.84 0.73, 17.14 0.49 M16.36 1.11 C16.56 0.96, 16.75 0.8, 17.14 0.49 M17.14 0.49 C17.29 0.35, 17.44 0.2, 17.86 -0.19 M17.14 0.49 C17.39 0.25, 17.64 0.02, 17.86 -0.19 M17.86 -0.19 C18.01 -0.35, 18.15 -0.51, 18.53 -0.93 M17.86 -0.19 C18.06 -0.41, 18.25 -0.62, 18.53 -0.93 M18.53 -0.93 C18.72 -1.16, 18.9 -1.39, 19.15 -1.71 M18.53 -0.93 C18.7 -1.13, 18.86 -1.34, 19.15 -1.71 M19.15 -1.71 C19.33 -1.99, 19.52 -2.27, 19.7 -2.53 M19.15 -1.71 C19.27 -1.89, 19.39 -2.07, 19.7 -2.53 M19.7 -2.53 C19.87 -2.84, 20.05 -3.15, 20.18 -3.39 M19.7 -2.53 C19.82 -2.75, 19.95 -2.98, 20.18 -3.39 M20.18 -3.39 C20.33 -3.7, 20.47 -4, 20.6 -4.29 M20.18 -3.39 C20.28 -3.59, 20.37 -3.79, 20.6 -4.29 M20.6 -4.29 C20.69 -4.51, 20.77 -4.73, 20.95 -5.22 M20.6 -4.29 C20.68 -4.51, 20.77 -4.72, 20.95 -5.22 M20.95 -5.22 C21.02 -5.44, 21.08 -5.65, 21.23 -6.18 M20.95 -5.22 C21.04 -5.52, 21.13 -5.82, 21.23 -6.18 M21.23 -6.18 C21.29 -6.49, 21.36 -6.79, 21.43 -7.17 M21.23 -6.18 C21.3 -6.5, 21.36 -6.81, 21.43 -7.17 M21.43 -7.17 C21.48 -7.53, 21.52 -7.9, 21.56 -8.17 M21.43 -7.17 C21.48 -7.52, 21.52 -7.87, 21.56 -8.17 M21.56 -8.17 C21.57 -8.52, 21.58 -8.88, 21.6 -9.19 M21.56 -8.17 C21.57 -8.47, 21.58 -8.77, 21.6 -9.19 M21.6 -9.19 C21.59 -9.5, 21.57 -9.81, 21.56 -10.18 M21.6 -9.19 C21.59 -9.42, 21.58 -9.65, 21.56 -10.18 M21.56 -10.18 C21.53 -10.44, 21.5 -10.71, 21.45 -11.15 M21.56 -10.18 C21.52 -10.55, 21.47 -10.92, 21.45 -11.15 M21.45 -11.15 C21.38 -11.51, 21.31 -11.86, 21.26 -12.11 M21.45 -11.15 C21.39 -11.43, 21.34 -11.71, 21.26 -12.11 M21.26 -12.11 C21.17 -12.44, 21.08 -12.77, 21.01 -13.04 M21.26 -12.11 C21.2 -12.32, 21.15 -12.52, 21.01 -13.04 M21.01 -13.04 C20.88 -13.39, 20.75 -13.74, 20.68 -13.94 M21.01 -13.04 C20.91 -13.31, 20.81 -13.58, 20.68 -13.94 M20.68 -13.94 C20.58 -14.16, 20.49 -14.39, 20.3 -14.81 M20.68 -13.94 C20.56 -14.21, 20.44 -14.48, 20.3 -14.81 M20.3 -14.81 C20.2 -14.99, 20.11 -15.16, 19.84 -15.65 M20.3 -14.81 C20.18 -15.03, 20.06 -15.25, 19.84 -15.65 M19.84 -15.65 C19.65 -15.95, 19.46 -16.25, 19.33 -16.45 M19.84 -15.65 C19.65 -15.95, 19.46 -16.25, 19.33 -16.45 M19.33 -16.45 C19.22 -16.61, 19.1 -16.77, 18.76 -17.22 M19.33 -16.45 C19.2 -16.63, 19.08 -16.8, 18.76 -17.22 M18.76 -17.22 C18.59 -17.42, 18.41 -17.62, 18.14 -17.94 M18.76 -17.22 C18.53 -17.48, 18.3 -17.74, 18.14 -17.94 M18.14 -17.94 C17.91 -18.16, 17.68 -18.39, 17.46 -18.61 M18.14 -17.94 C17.96 -18.11, 17.77 -18.29, 17.46 -18.61 M17.46 -18.61 C17.23 -18.8, 17.01 -18.99, 16.73 -19.23 M17.46 -18.61 C17.24 -18.79, 17.02 -18.98, 16.73 -19.23 M16.73 -19.23 C16.48 -19.42, 16.22 -19.6, 15.95 -19.8 M16.73 -19.23 C16.48 -19.41, 16.24 -19.59, 15.95 -19.8 M15.95 -19.8 C15.65 -19.98, 15.36 -20.17, 15.12 -20.31 M15.95 -19.8 C15.78 -19.91, 15.6 -20.02, 15.12 -20.31 M15.12 -20.31 C14.92 -20.42, 14.71 -20.53, 14.25 -20.77 M15.12 -20.31 C14.85 -20.46, 14.57 -20.6, 14.25 -20.77 M14.25 -20.77 C14 -20.88, 13.74 -20.99, 13.34 -21.16 M14.25 -20.77 C13.92 -20.92, 13.58 -21.06, 13.34 -21.16 M13.34 -21.16 C8.08 -16.56, 2.81 -11.96, -3.41 -6.52 M13.34 -21.16 C8.68 -17.08, 4.01 -13, -3.41 -6.52 M-3.41 -6.52 C-2.39 -4.56, -1.36 -2.6, 0 0 M-3.41 -6.52 C-2.39 -4.56, -1.36 -2.6, 0 0 M0 0 C0 0, 0 0, 0 0 M0 0 C0 0, 0 0, 0 0 M0 0 C0 0, 0 0, 0 0 M0 0 C0 0, 0 0, 0 0" stroke="#176655" stroke-width="1" fill="none"></path></g></g><g stroke-linecap="round" transform="translate(316.640625 21.80078125) rotate(0 234.09765625 201.0234375)"><path d="M0.08 -0.81 C148.92 -1.74, 295.96 -1.56, 467.37 0.63 M-0.01 -0.33 C157.45 0.92, 315.42 1.13, 468.46 0.33 M468.64 0.93 C467.37 130.45, 466.6 260.67, 467.75 401.8 M468.44 0.2 C467.71 151.98, 468.12 305.16, 468.16 402.05 M467.39 401.52 C356.28 403.68, 245.65 403.25, -0.19 402.51 M468.05 402.09 C336.96 403, 205.92 403.22, -0.09 402.46 M-0.64 401.3 C-2.18 274.07, -1.02 147.08, -0.54 0.32 M0.29 401.64 C2.03 309.11, 2.54 214.88, 0.07 -0.33" stroke="#000000" stroke-width="1" fill="none"></path></g><g stroke-linecap="round" transform="translate(612.927734375 166.99609375) rotate(0 72.046875 26.5625)"><path d="M0.76 -1.36 C42.13 1.53, 84.05 1.65, 142.15 1.24 M-0.78 -0.27 C39.3 1.01, 76.53 0.91, 143.53 0.54 M142.52 0.55 C141.91 12.59, 144.16 26.27, 145.96 53.36 M144.82 0.02 C144.84 15.94, 142.94 32.21, 143.85 52.25 M145.61 54.11 C92.99 55.58, 42.92 52.91, 0.47 54.83 M143.53 52.67 C100.94 52.54, 56.11 52.87, 0.2 52.78 M1.59 52.61 C1.3 39.45, 0.81 24.94, -0.16 -0.49 M-0.36 53.37 C-0.39 42.48, -0.93 30.22, -0.01 0.82" stroke="#000000" stroke-width="1" fill="none"></path></g><g transform="translate(618.935546875 181.94140625) rotate(0 66.5 12.5)"><text x="0" y="18" font-family="Virgil, Segoe UI Emoji" font-size="20px" fill="#000000" text-anchor="start" style="white-space: pre;" direction="ltr">Elasticsearch</text></g><g stroke-linecap="round" transform="translate(617.9375 339.9921875) rotate(0 72.046875 26.5625)"><path d="M0.11 -0.64 C50.19 -0.63, 105.25 -0.34, 145.95 0.69 M-0.5 0.77 C49.49 -0.54, 99 -0.44, 143.74 -0.07 M145.13 -0.94 C144.36 10.84, 142.56 23.68, 143.74 53.03 M143.59 0.7 C143.12 18.89, 144.15 36.77, 143.3 53.91 M145.2 54.56 C113.76 53.33, 85.35 55.3, -0.38 51.97 M143.1 54.09 C110.97 54.12, 78.86 53.5, -0.29 52.33 M-0.77 51.99 C-1.43 37.14, -0.33 21.52, 1.99 -0.21 M0.56 53.72 C0.24 41.57, 0.98 32.14, 0.91 -0.65" stroke="#000000" stroke-width="1" fill="none"></path></g><g transform="translate(660.09765625 353.35546875) rotate(0 32 12.5)"><text x="0" y="18" font-family="Virgil, Segoe UI Emoji" font-size="20px" fill="#000000" text-anchor="start" style="white-space: pre;" direction="ltr">Kibana</text></g><g stroke-linecap="round" transform="translate(365.9375 49.38671875) rotate(0 72.046875 26.5625)"><path d="M-1.65 -0.57 C36.09 0.83, 73.89 0.08, 145.88 -1.01 M0.28 -0.35 C52.58 0.31, 105.75 0.34, 144.42 0.56 M143.19 1.7 C143.33 18.6, 142.31 37.93, 145.51 51.13 M145.07 -0.65 C143.79 20.29, 144.16 43.03, 143.44 52.74 M144.22 54.21 C111.01 53.17, 71.98 51.9, 1.17 54.24 M144.69 53.62 C93.25 51.31, 41.4 52.04, -0.55 52.36 M1.25 54.89 C-0.5 36.73, 1.69 17.61, 1.66 -1.05 M-0.65 53.2 C-1.32 41.76, -1.09 29.68, 0.31 -0.68" stroke="#000000" stroke-width="1" fill="none"></path></g><g transform="translate(392.9453125 64.33203125) rotate(0 45 12.5)"><text x="0" y="18" font-family="Virgil, Segoe UI Emoji" font-size="20px" fill="#000000" text-anchor="start" style="white-space: pre;" direction="ltr">Logstash</text></g><g stroke-linecap="round" transform="translate(360.09765625 338.3203125) rotate(0 72.046875 26.5625)"><path d="M-1.59 1.57 C45.99 2.13, 96.6 1.61, 145.53 -1.41 M-0.19 -0.58 C40.54 -2.02, 83.2 -2.22, 145.06 -0.02 M143.52 -1.6 C144.76 17.51, 143.29 30.83, 142.96 52.15 M145.09 -0.1 C143.15 16.14, 144.71 34.31, 144.69 52.97 M145.91 51.83 C114.15 54.01, 79.88 52.31, 0.77 53.79 M143.93 53.92 C89.86 54.62, 34.59 53.87, -0.81 53.86 M-1.86 53.69 C-1.06 41.39, 0.96 28.89, 1.11 0.9 M-0.6 52.69 C-0.88 37.74, -0.65 22.19, -0.75 0.29" stroke="#000000" stroke-width="1" fill="none"></path></g><g transform="translate(380.8515625 351.40625) rotate(0 51 12.5)"><text x="0" y="18" font-family="Virgil, Segoe UI Emoji" font-size="20px" fill="#000000" text-anchor="start" style="white-space: pre;" direction="ltr">Heartbeat</text></g><g stroke-linecap="round"><g transform="translate(519.9283967449062 109.63717545693805) rotate(0 56.404542823394536 23.397861591092948)"><path d="M0.64 -0.07 C19.32 7.73, 92.35 38.57, 110.9 46.61 M-0.48 -1.16 C18.69 6.84, 94.64 40.02, 113.29 47.95" stroke="#000000" stroke-width="1" fill="none"></path></g></g><g stroke-linecap="round"><g transform="translate(487.53227287291816 329.8046875) rotate(0 64.46174945959564 -46.65768508122295)"><path d="M-0.76 0.97 C20.41 -14.45, 105.8 -76.85, 127.31 -92.5 M1.04 0.43 C22.58 -15.33, 108.57 -78.96, 129.68 -94.28" stroke="#000000" stroke-width="1" fill="none"></path></g></g><g stroke-linecap="round" transform="translate(77.47318763587668 50.66333334610971) rotate(0 15.11119339032922 22.930396284400956)"><path d="M1.11 -0.74 L30.65 1.94 L29.16 46.74 L0.15 46.93" stroke="none" stroke-width="0" fill="#fff"></path><path d="M-1.94 0.76 C11.78 0.6, 20.68 -0.6, 31.93 -1.89 M0.46 -0.89 C6.84 -0.27, 12.87 -0.5, 30.08 -0.61 M30.43 -1.76 C30.75 13.69, 29.04 29.04, 28.76 44.5 M31.03 -0.15 C30.16 11.02, 31.29 21.01, 30.52 45.4 M28.75 44.46 C24.02 44.41, 16.65 45.03, -1.5 47.74 M31.17 46.15 C20.06 46.33, 7.59 46.86, 0.91 45.76 M-1.55 46.89 C-0.13 28.58, -0.97 11.98, 0.45 -1.63 M0.51 46.17 C1.07 35.03, 0.37 24.06, 0.73 0.59" stroke="#000000" stroke-width="2" fill="none"></path></g><g stroke-linecap="round" transform="translate(74.24588117081248 47.6615207523551) rotate(0 15.11119339032922 22.930396284400956)"><path d="M-0.74 0.42 L32.16 -1.06 L31.1 46.01 L1.06 46.84" stroke="none" stroke-width="0" fill="#fff"></path><path d="M0.76 0.52 C12.47 -1.54, 23.15 2, 28.33 -1.86 M-0.89 0.58 C9.25 0.21, 18.33 -0.28, 29.62 0.2 M28.47 0.68 C29.31 11.27, 29.97 23.16, 28.86 44.53 M30.07 -0.37 C30.75 17.59, 30.02 33.97, 29.76 45.43 M28.82 47.43 C21.38 47.62, 14.57 44.14, 1.88 47.03 M30.51 46.54 C22.1 45.19, 14.31 47.05, -0.1 46.44 M1.03 46.13 C-1.16 27.48, -1.35 10.69, -1.63 -1.38 M0.31 46.77 C0.1 33.93, -0.27 22.32, 0.59 0.55" stroke="#000000" stroke-width="2" fill="none"></path></g><g stroke-linecap="round" transform="translate(70.22851099366949 44.13212408508838) rotate(0 15.11119339032922 22.930396284400956)"><path d="M0.42 1.94 L29.16 0.88 L30.37 46.93 L0.98 45.13" stroke="none" stroke-width="0" fill="#fff"></path><path d="M0.52 0.59 C7.07 -0.73, 19.52 -2, 28.36 0.17 M0.58 -0.07 C11.35 -0.04, 21.86 -0.34, 30.43 -0.32 M30.9 -1 C29.23 14.3, 28.81 27.94, 28.89 47.2 M29.85 0.31 C31.35 15.49, 30.89 31.36, 29.8 45.32 M31.8 44.44 C23.45 44.85, 11.21 47.53, 1.17 45.37 M30.9 46.05 C17.45 46.67, 7.49 45.85, 0.58 46.74 M0.27 44.98 C-0.21 28.25, 0.81 11.16, -1.38 -0.71 M0.91 45.63 C-0.03 34.84, 0.5 25.6, 0.55 -0.37" stroke="#000000" stroke-width="2" fill="none"></path></g><g stroke-linecap="round"><g transform="translate(75.91581062020873 65.62488282937005) rotate(0 9.979891104094577 -0.701809038551545)"><path d="M0.31 0.35 C3.21 0.23, 12.75 0.17, 16.19 -0.3 C19.62 -0.77, 20.51 -2.3, 20.94 -2.45 M-0.98 -0.51 C2.37 -0.5, 14.71 1.25, 18.32 1.05 C21.94 0.84, 20.69 -1.55, 20.71 -1.73" stroke="#000000" stroke-width="1" fill="none"></path></g></g><g stroke-linecap="round"><g transform="translate(76.67447187457515 51.868896074077725) rotate(0 9.865413044590014 -0.42365492326379695)"><path d="M0.35 -1.1 C1.42 -1.18, 3.83 -0.15, 6.83 -0.18 C9.83 -0.2, 16.23 -1.39, 18.35 -1.26 M-0.92 0.94 C-0.09 0.51, 2.09 -1.52, 5.69 -1.76 C9.29 -2, 18.29 -0.56, 20.65 -0.52" stroke="#000000" stroke-width="1" fill="none"></path></g></g><g stroke-linecap="round"><g transform="translate(76.74356858534725 81.32347653122747) rotate(0 10.4932311750253 -0.032416178195092016)"><path d="M-1.1 -0.37 C0.9 -0.63, 9.64 -1.48, 12.32 -1.24 C15 -1, 13.45 0.93, 14.97 1.09 C16.49 1.25, 20.66 -0.09, 21.44 -0.29 M0.52 -1.61 C2.43 -1.8, 9.11 -0.98, 11.91 -0.3 C14.7 0.38, 15.58 2.84, 17.28 2.46 C18.98 2.08, 21.43 -2.25, 22.09 -2.56" stroke="#000000" stroke-width="1" fill="none"></path></g></g><g stroke-linecap="round"><g transform="translate(74.96306753093813 85.74109459787064) rotate(0 11.799781854398532 -0.29505815353815024)"><path d="M-0.37 1.02 C0.11 0.94, 1.99 -1.51, 3.21 -1.61 C4.44 -1.72, 4.15 0.27, 7 0.41 C9.85 0.54, 17.5 -0.56, 20.33 -0.81 C23.16 -1.05, 23.41 -0.98, 23.97 -1.07 M1.64 0.52 C2.44 0.63, 4.56 -0.32, 5.33 -0.66 C6.11 -1, 3.7 -1.6, 6.29 -1.53 C8.87 -1.47, 18.1 -0.4, 20.87 -0.27 C23.63 -0.13, 22.73 -0.34, 22.86 -0.73" stroke="#000000" stroke-width="1" fill="none"></path></g></g><g stroke-linecap="round"><g transform="translate(74.81641002347351 58.60887179195794) rotate(0 10.467910942432695 0.18841666193250717)"><path d="M1.02 -1.13 C2.32 -1.1, 3.36 -0.57, 6.66 -0.15 C9.97 0.26, 18.78 1.08, 20.83 1.36 M0.1 0.89 C1.85 1.17, 5.4 1.7, 8.79 1.44 C12.19 1.17, 18.82 -0.35, 20.47 -0.7" stroke="#000000" stroke-width="1" fill="none"></path></g></g><g stroke-linecap="round"><g transform="translate(75.56904067665414 73.31980138362115) rotate(0 10.125844447386669 0.22530055981528108)"><path d="M-1.13 -1.11 C-0.48 -1.06, 1.98 1.41, 3.56 1.38 C5.14 1.34, 5.46 -1.21, 8.33 -1.32 C11.2 -1.43, 18.74 0.42, 20.77 0.72 M0.47 0.91 C1.01 1.15, 1.44 -0.1, 2.67 -0.34 C3.9 -0.59, 4.73 -0.92, 7.85 -0.57 C10.97 -0.22, 19.49 1.57, 21.38 1.77" stroke="#000000" stroke-width="1" fill="none"></path></g></g><g stroke-linecap="round"><g transform="translate(85.20148445459085 163.91301652486175) rotate(0 0.883142536428636 -27.779899304060564)"><path d="M1.18 -0.66 C1.31 -10.25, 1.5 -47.83, 1.39 -57.17 M0.35 1.61 C0.29 -7.82, 0.78 -45.59, 0.64 -55.66" stroke="#000000" stroke-width="1" fill="none"></path></g></g><g stroke-linecap="round"><g transform="translate(118.0078125 72.48046875) rotate(0 120.61792983979922 0.7479002046538312)"><path d="M0.4 -0.73 C40.19 -0.7, 199.65 0.71, 239.9 0.89 M-0.86 1.5 C39.2 1.64, 201.67 2.29, 242.09 2.23" stroke="#000000" stroke-width="1" fill="none"></path></g></g><g stroke-linecap="round"><g transform="translate(680.7152047457128 229.625) rotate(0 0.31165563403226315 52.488283592830385)"><path d="M-0.47 0.58 C-0.7 18.01, -0.78 87.72, -0.9 105.14 M1.48 -0.17 C1.59 16.88, 1.47 86.21, 1.41 103.44" stroke="#000000" stroke-width="1" fill="none"></path></g></g><g transform="translate(64.8828125 10) rotate(0 22.5 12.5)"><text x="0" y="18" font-family="Virgil, Segoe UI Emoji" font-size="20px" fill="#000000" text-anchor="start" style="white-space: pre;" direction="ltr">Logs</text></g><g transform="translate(105.57421875 272.17578125) rotate(0 23.390625 8.121744791666686)"><text x="0" y="11.24348958333334" font-family="Virgil, Segoe UI Emoji" font-size="12.994791666666664px" fill="#000000" text-anchor="start" style="white-space: pre;" direction="ltr">/health</text></g><g stroke-linecap="round"><g transform="translate(161.58203125 280.7734375) rotate(0 96.51901330434254 41.77004204257861)"><path d="M0.58 -0.2 C32.73 14.01, 161.22 70.94, 193.62 84.89 M-0.58 -1.35 C31.31 12.57, 159.91 68.96, 192.46 83.29" stroke="#000000" stroke-width="1" fill="none"></path></g></g><g stroke-linecap="round" transform="translate(363.2109375 198.56640625) rotate(0 72.046875 26.5625)"><path d="M-1.27 -0.95 C35.79 0.97, 76.33 1.22, 142.97 1.83 M0.97 0.41 C44.99 -1.22, 90.47 -0.27, 143.51 0.76 M144.91 1.97 C143.89 17.87, 146.18 39.12, 143.07 54.79 M143.66 0.95 C144.28 16.95, 143.39 32.87, 143.89 52.77 M144.79 52.44 C91.83 51.39, 38.32 50.92, 0.29 53.05 M143.54 52.19 C108.91 54.87, 73.67 54.33, -0.59 52.89 M1.46 51.21 C-0.4 37.12, 1.54 19.47, -1.04 0.74 M-0.81 52.42 C-0.5 42.32, 0.09 29.77, -0.13 0.06" stroke="#000000" stroke-width="1" fill="none"></path></g><g transform="translate(413.421875 213.125) rotate(0 21.5 12.5)"><text x="0" y="18" font-family="Virgil, Segoe UI Emoji" font-size="20px" fill="#000000" text-anchor="start" style="white-space: pre;" direction="ltr">APM</text></g><g stroke-linecap="round"><g transform="translate(516.09375 225.29296875) rotate(0 44.7872636374226 -13.335004849447841)"><path d="M0.3 -0.92 C15.4 -5.52, 75.74 -23.31, 90.57 -27.87 M-1 1.2 C14 -3.2, 75.09 -21.81, 89.95 -26.6" stroke="#000000" stroke-width="1" fill="none"></path></g></g><g stroke-linecap="round"><g transform="translate(167.07958654685876 224.01048466981388) rotate(0 96.02415454305242 1.3008168824762265)"><path d="M0.71 -0.66 C32.31 -0.18, 158.32 1.46, 190.09 1.96 M-0.38 1.61 C31.57 2.34, 160.56 2.92, 192.43 3.26" stroke="#000000" stroke-width="1" fill="none"></path></g></g></svg>